<svg preserveAspectRatio="none" width="100%" height="100%" overflow="visible" style="display: block;" viewBox="0 0 30 30" fill="none" xmlns="http://www.w3.org/2000/svg">
<g id="office 1">
<path id="Vector" d="M7.5 12.1875C7.5 11.67 7.91906 11.25 8.4375 11.25H14.0625C14.5809 11.25 15 11.67 15 12.1875C15 12.705 14.5809 13.125 14.0625 13.125H8.4375C7.91906 13.125 7.5 12.705 7.5 12.1875ZM14.0625 15H8.4375C7.91906 15 7.5 15.42 7.5 15.9375C7.5 16.455 7.91906 16.875 8.4375 16.875H14.0625C14.5809 16.875 15 16.455 15 15.9375C15 15.42 14.5809 15 14.0625 15ZM14.0625 18.75H8.4375C7.91906 18.75 7.5 19.17 7.5 19.6875C7.5 20.205 7.91906 20.625 8.4375 20.625H14.0625C14.5809 20.625 15 20.205 15 19.6875C15 19.17 14.5809 18.75 14.0625 18.75ZM14.0625 22.5H8.4375C7.91906 22.5 7.5 22.92 7.5 23.4375C7.5 23.955 7.91906 24.375 8.4375 24.375H14.0625C14.5809 24.375 15 23.955 15 23.4375C15 22.92 14.5809 22.5 14.0625 22.5ZM28.125 27.1875C28.125 27.705 27.7059 28.125 27.1875 28.125H2.8125C2.29406 28.125 1.875 27.705 1.875 27.1875C1.875 26.67 2.29406 26.25 2.8125 26.25H3.75V9.01687C3.75 8.30156 4.1475 7.65937 4.78594 7.33969L16.0359 1.71469C16.6228 1.42219 17.3034 1.45219 17.8603 1.79625C18.4172 2.14031 18.7491 2.73656 18.7491 3.39187V10.3125H24.3741C25.4081 10.3125 26.2491 11.1534 26.2491 12.1875V26.25H27.1866C27.705 26.25 28.125 26.67 28.125 27.1875ZM18.75 12.1875V26.25H24.375V12.1875H18.75ZM5.625 26.25H16.875V3.39187L5.625 9.01687V26.25Z" fill="var(--fill-0, #15301F)"/>
</g>
</svg>
