<?xml version="1.0" encoding="UTF-8"?>
<svg xmlns="http://www.w3.org/2000/svg" width="176" height="108" viewBox="0 0 176 108" fill="none">
  <g style="mix-blend-mode:luminosity">
    <rect x="0.5" y="0.5" width="175" height="107" rx="9.5" stroke="#E3E3E3"></rect>
  </g>
  <g clip-path="url(#clip0_10_27059)">
    <path d="M85.2317 52.4967L85.3146 52.5823L85.2254 52.4967H85.2317Z" fill="#00000D"></path>
    <path d="M92.0497 47.809L92.0626 47.7958L92.0238 47.8353L92.0497 47.8024V47.809Z" fill="black"></path>
    <path d="M94.8718 43.7993C94.8718 43.7993 94.8909 43.7598 94.8973 43.7467C94.8846 43.773 94.8718 43.7993 94.8591 43.8257L94.8718 43.8059V43.7993Z" fill="black"></path>
    <path d="M84.4162 51.6671C84.378 51.6276 84.3461 51.5947 84.3079 51.5552L84.4162 51.6671Z" fill="black"></path>
    <path d="M83.6707 50.8902C83.6325 50.8507 83.5943 50.8112 83.5497 50.7651C83.5879 50.8046 83.6261 50.8441 83.6707 50.8902Z" fill="black"></path>
    <path d="M85.1043 52.365C85.0597 52.319 85.0087 52.2729 84.9641 52.2268C85.0087 52.2729 85.0597 52.3255 85.1043 52.365Z" fill="black"></path>
    <path d="M84.8813 52.1412C84.8431 52.1017 84.7985 52.0622 84.7603 52.0161C84.7985 52.0556 84.8431 52.1017 84.8813 52.1412Z" fill="black"></path>
    <path d="M81.5172 48.5398C81.4598 48.4739 81.3961 48.4081 81.3388 48.3357C81.3961 48.4015 81.4598 48.4673 81.5172 48.5398Z" fill="black"></path>
    <path d="M82.887 50.0541C82.8488 50.008 82.7978 49.9553 82.7596 49.9158C82.7978 49.9619 82.8488 50.0146 82.887 50.0541Z" fill="black"></path>
    <path d="M81.237 48.2106L81.2502 48.2303L81.2305 48.2106H81.237Z" fill="#0000AB"></path>
    <path d="M89.3923 31.1582C89.4433 31.1582 89.507 31.1714 89.5644 31.1846C89.507 31.1714 89.4497 31.1648 89.3923 31.1582Z" fill="#D60C21"></path>
    <path d="M78.3059 35.102C78.7265 34.358 79.1852 33.7786 79.6185 33.3375C80.3321 32.6133 80.9629 32.2907 81.1795 32.2907C81.7784 31.6915 82.441 31.4018 83.0145 31.257C82.441 31.4018 81.772 31.6981 81.1795 32.2907C80.8291 32.2907 79.421 33.1202 78.3059 35.0954C78.2359 35.2271 78.1658 35.3654 78.1021 35.4904C78.1021 35.4904 78.1148 35.4707 78.1148 35.4641C78.1721 35.339 78.2359 35.2139 78.3123 35.0888L78.3059 35.102Z" fill="#D60C21"></path>
    <path d="M94.6233 35.102C94.687 35.2271 94.7507 35.3456 94.8208 35.4707C94.7635 35.3456 94.6998 35.2271 94.6233 35.102C94.1646 34.2856 93.6549 33.6667 93.1961 33.2256C93.6612 33.6733 94.1709 34.2922 94.6233 35.102Z" fill="#D60C21"></path>
    <path d="M84.4672 31.1582C84.4672 31.1582 84.225 32.6199 84.0084 34.5424C83.9638 34.5424 83.9192 34.5292 83.881 34.5226C83.9256 34.5226 83.9766 34.5358 84.0212 34.549C84.0212 34.549 84.0403 34.5358 84.0466 34.5226C84.3907 34.1868 85.5248 33.8379 86.4742 33.8247C87.4108 33.8379 88.5194 34.1803 88.8826 34.5094C88.8954 34.5226 88.9145 34.5358 88.9208 34.549C88.9654 34.5358 89.0164 34.5358 89.061 34.5226C89.0164 34.5226 88.9718 34.5358 88.9336 34.5424C88.7169 32.6199 88.4748 31.1582 88.4748 31.1582C88.4748 31.1582 88.8253 31.099 89.3414 31.1582C88.8189 31.1056 88.4748 31.1582 88.4748 31.1582C87.8122 30.5854 86.6908 30.592 86.4742 30.5986C86.2576 30.5986 85.1362 30.5789 84.4735 31.1582H84.4672Z" fill="#D60C21"></path>
    <path d="M91.7498 32.2973C91.8326 32.2973 91.9664 32.3368 92.1448 32.4355C91.9664 32.3433 91.8262 32.2973 91.7498 32.2973C91.3102 31.8561 90.8323 31.5862 90.3863 31.415C90.8323 31.5862 91.3102 31.8693 91.7498 32.2973Z" fill="#D60C21"></path>
    <path d="M80.5551 35.3719C80.5105 35.4115 80.4786 35.4378 80.4659 35.4575C80.4531 35.4773 80.485 35.4378 80.5041 35.4246C80.5232 35.4115 80.5423 35.3917 80.5551 35.3785V35.3719Z" fill="#D60C21"></path>
    <path d="M82.3773 34.5094C82.4155 34.5094 82.4538 34.4963 82.4984 34.4897C82.4602 34.4897 82.4219 34.5029 82.3773 34.5094Z" fill="#D60C21"></path>
    <path d="M81.1667 34.9304C81.1667 34.9304 81.1986 34.911 81.205 34.9045C81.1858 34.9045 81.1731 34.9239 81.1667 34.9304Z" fill="#D60C21"></path>
    <path d="M81.3515 34.8321C81.3515 34.8321 81.3904 34.8123 81.4098 34.7991C81.3839 34.8123 81.3709 34.8189 81.3515 34.8321Z" fill="#D60C21"></path>
    <path d="M81.5681 34.7333C81.5681 34.7333 81.6191 34.707 81.651 34.6938C81.6191 34.707 81.6 34.7201 81.5681 34.7333Z" fill="#D60C21"></path>
    <path d="M80.8545 35.1283C80.8545 35.1283 80.8743 35.1152 80.8809 35.1086C80.8809 35.1086 80.8611 35.1217 80.8545 35.1283Z" fill="#D60C21"></path>
    <path d="M80.9947 35.0357C80.9947 35.0357 81.0202 35.0228 81.0329 35.0098C81.0202 35.0098 81.0074 35.0228 80.9947 35.0357Z" fill="#D60C21"></path>
    <path d="M82.0779 34.5687C82.1161 34.5687 82.148 34.5489 82.1862 34.5424C82.148 34.5424 82.1161 34.5621 82.0779 34.5687Z" fill="#D60C21"></path>
    <path d="M81.8103 34.6477C81.8103 34.6477 81.8676 34.6214 81.9058 34.6148C81.8676 34.628 81.8421 34.6411 81.8103 34.6477Z" fill="#D60C21"></path>
    <path d="M82.7086 34.4634C82.7469 34.4634 82.7915 34.4502 82.8297 34.4502C82.7915 34.4502 82.7469 34.4502 82.7086 34.4634Z" fill="#D60C21"></path>
    <path d="M83.4541 34.4633C83.4987 34.4633 83.5433 34.4633 83.5879 34.4765C83.5433 34.4765 83.4987 34.4765 83.4541 34.4633Z" fill="#D60C21"></path>
    <path d="M90.4373 34.4831C90.4755 34.4831 90.5201 34.4963 90.5583 34.5029C90.5201 34.5029 90.4819 34.4831 90.4373 34.4831Z" fill="#D60C21"></path>
    <path d="M91.9027 35.0098C91.9027 35.0098 91.9537 35.0493 91.9855 35.0625C91.9537 35.0427 91.9346 35.023 91.9027 35.0098Z" fill="#D60C21"></path>
    <path d="M91.7243 34.9045C91.7243 34.9045 91.7689 34.9374 91.8008 34.944C91.7753 34.9308 91.7562 34.9111 91.7243 34.9045Z" fill="#D60C21"></path>
    <path d="M91.514 34.7991C91.514 34.7991 91.565 34.8255 91.5969 34.8386C91.565 34.8255 91.5459 34.8123 91.514 34.7991Z" fill="#D60C21"></path>
    <path d="M92.1894 35.2073C92.1894 35.2073 92.2283 35.2403 92.2477 35.2534C92.2283 35.2337 92.2089 35.2205 92.1894 35.2073Z" fill="#D60C21"></path>
    <path d="M92.062 35.1152C92.062 35.1152 92.1008 35.1481 92.1203 35.1547C92.1008 35.1415 92.0814 35.1218 92.062 35.1152Z" fill="#D60C21"></path>
    <path d="M89.3414 34.4765C89.386 34.4765 89.4306 34.4765 89.4752 34.4633C89.4306 34.4633 89.386 34.4633 89.3414 34.4765Z" fill="#D60C21"></path>
    <path d="M90.7431 34.5424C90.7813 34.5424 90.8195 34.5621 90.8578 34.5753C90.8195 34.5621 90.7877 34.5555 90.7431 34.5424Z" fill="#D60C21"></path>
    <path d="M90.0932 34.4568C90.1314 34.4568 90.176 34.4568 90.2143 34.47C90.176 34.47 90.1314 34.4568 90.0932 34.4568Z" fill="#D60C21"></path>
    <path d="M95.2286 36.6558C95.2669 36.7085 95.2987 36.7546 95.3306 36.7809C95.3624 36.8138 95.2732 36.7019 95.2286 36.6558Z" fill="#D60C21"></path>
    <path d="M92.4634 35.4575C92.4634 35.4575 92.3806 35.3785 92.2914 35.2995C92.3551 35.3522 92.3997 35.3983 92.4315 35.4246C92.4443 35.4378 92.457 35.451 92.4698 35.4575H92.4634Z" fill="#D60C21"></path>
    <path d="M93.3427 35.4905C93.1706 35.4575 92.9858 35.4444 92.7947 35.451C92.6864 35.451 92.5844 35.451 92.4698 35.4707C92.7883 35.4378 93.0751 35.4575 93.3427 35.5036V35.4905Z" fill="#D60C21"></path>
    <path d="M80.4595 35.4575C80.3448 35.4444 80.2429 35.4378 80.1346 35.4378C79.9307 35.4378 79.7332 35.4575 79.5484 35.4839C79.8224 35.4378 80.1218 35.418 80.4595 35.4444V35.4575Z" fill="#D60C21"></path>
    <path d="M77.8918 36.4319C77.758 36.5834 77.6624 36.7151 77.6051 36.7941C77.5477 36.8731 77.6369 36.7546 77.6497 36.7348C77.707 36.6624 77.7835 36.557 77.8918 36.4451V36.4319Z" fill="#C20E1D"></path>
    <path d="M81.1731 32.2973C81.1731 32.2973 80.7908 33.6601 80.4595 35.4641C80.4786 35.451 80.5041 35.4246 80.5487 35.3785C80.6124 35.3193 80.7144 35.2337 80.8418 35.1415C80.8418 35.1415 80.8609 35.1284 80.8673 35.1218C80.9055 35.0954 80.9437 35.0691 80.9883 35.0428C81.0011 35.0428 81.0138 35.0296 81.0266 35.0164C81.0648 34.9901 81.1158 34.9638 81.1604 34.9374C81.1795 34.9374 81.1922 34.9177 81.1986 34.9111C81.2432 34.8847 81.2942 34.865 81.3451 34.8387C81.3643 34.8255 81.3834 34.8189 81.4025 34.8057C81.4471 34.7794 81.5044 34.7662 81.549 34.7465C81.5809 34.7333 81.6 34.7201 81.6319 34.707C81.6828 34.6872 81.7402 34.6675 81.7975 34.6543C81.8294 34.6411 81.8549 34.628 81.8931 34.6214C81.9504 34.6016 82.0141 34.5885 82.0715 34.5753C82.1097 34.5753 82.1416 34.5556 82.1798 34.549C82.2371 34.5358 82.3009 34.5226 82.371 34.5095C82.4092 34.5095 82.4474 34.4963 82.492 34.4897C82.5557 34.4765 82.6322 34.4765 82.7023 34.47C82.7405 34.47 82.7851 34.4568 82.8233 34.4568H83.1865C83.2693 34.4568 83.3585 34.47 83.4477 34.4765C83.4923 34.4765 83.5369 34.4765 83.5815 34.4897C83.6771 34.5029 83.7727 34.516 83.8619 34.5292C83.9001 34.5292 83.9511 34.5424 83.9893 34.549C84.2059 32.6265 84.4481 31.1648 84.4481 31.1648C84.4481 31.1648 83.9383 31.0792 83.2502 31.2043C83.1674 31.2241 83.0846 31.2438 82.9954 31.257C82.4219 31.4019 81.7529 31.6981 81.1604 32.2907V32.2775L81.1731 32.2973Z" fill="#C20E1D"></path>
    <path d="M78.1148 35.4707C78.1148 35.4707 78.1021 35.4905 78.1021 35.497C78.0001 35.7011 77.9173 35.8987 77.8408 36.1028C77.9236 35.8921 78.0129 35.6814 78.1212 35.4707H78.1148Z" fill="#C20E1D"></path>
    <path d="M77.8918 36.4319C78.204 36.0896 78.7328 35.6485 79.5484 35.4904C79.7332 35.4575 79.9243 35.4444 80.1346 35.4444C80.2429 35.4444 80.3448 35.4444 80.4595 35.4641C80.7908 33.6667 81.1731 32.2972 81.1731 32.2972C80.9565 32.2972 80.3257 32.6199 79.6121 33.3441C79.1788 33.7786 78.7201 34.3646 78.2996 35.1086C78.2295 35.2337 78.1721 35.3588 78.102 35.4839C78.0001 35.688 77.9045 35.9052 77.8217 36.1159C77.7325 36.3398 77.6497 36.5702 77.5923 36.8006C77.6433 36.7282 77.7389 36.5965 77.879 36.4385L77.8918 36.4319Z" fill="#A41218"></path>
    <path d="M92.7947 35.4444C92.9922 35.4444 93.1706 35.4641 93.3427 35.4839C94.3748 35.6616 94.9674 36.3069 95.2222 36.6492C95.2605 36.7019 95.2987 36.7546 95.3242 36.7875C95.1203 36.5044 94.3557 35.4312 92.7883 35.4378L92.7947 35.4444Z" fill="#C20E1D"></path>
    <path d="M88.4621 31.1582C88.4621 31.1582 88.7042 32.6199 88.9208 34.5424C88.9654 34.5424 89.01 34.5292 89.0483 34.5226C89.1438 34.5029 89.2458 34.4897 89.3286 34.4831C89.3732 34.4831 89.4178 34.4831 89.4624 34.4699C89.5516 34.4699 89.6408 34.4568 89.7236 34.4502H90.0868C90.1251 34.4502 90.1696 34.4502 90.2079 34.4634C90.278 34.4634 90.3481 34.4765 90.4181 34.4831C90.4564 34.4831 90.501 34.4963 90.5392 34.5029C90.6029 34.516 90.6666 34.5226 90.7303 34.5358C90.7686 34.5358 90.8068 34.5555 90.845 34.5687C90.9024 34.5819 90.9661 34.6016 91.0171 34.6082C91.0553 34.6214 91.0871 34.6345 91.1254 34.6477C91.1763 34.6675 91.2337 34.6872 91.2783 34.7004C91.3165 34.7135 91.342 34.7267 91.3739 34.7399C91.4185 34.7596 91.4694 34.7794 91.5077 34.7926C91.5395 34.8057 91.5586 34.8189 91.5905 34.8321C91.6287 34.8518 91.6797 34.8716 91.7116 34.8913C91.7434 34.9045 91.7562 34.9242 91.788 34.9308C91.8262 34.9506 91.8581 34.9703 91.8963 34.9901C91.9282 35.0098 91.9473 35.0296 91.9792 35.0427C92.0046 35.0625 92.0301 35.0822 92.0556 35.0888C92.0811 35.1086 92.0938 35.1217 92.113 35.1283C92.1384 35.1481 92.1576 35.1678 92.183 35.181C92.2085 35.2008 92.2213 35.2139 92.2404 35.2271C92.2595 35.2403 92.2722 35.2534 92.285 35.2666C92.3742 35.3456 92.4315 35.3983 92.457 35.4246C92.1257 33.6272 91.7434 32.2577 91.7434 32.2577C91.3038 31.8166 90.8259 31.5467 90.3799 31.3755C90.3672 31.3755 90.3481 31.3623 90.3417 31.3557H90.3289C90.055 31.2504 89.8001 31.1846 89.5644 31.1516C89.507 31.1385 89.4497 31.1319 89.3923 31.1253C89.3732 31.1253 89.3541 31.1253 89.335 31.1253C88.8125 31.0726 88.4685 31.1253 88.4685 31.1253L88.4557 31.1451L88.4621 31.1582Z" fill="#C20E1D"></path>
    <path d="M91.7498 32.2972C91.7498 32.2972 92.1321 33.6601 92.4634 35.4641C92.5781 35.4641 92.68 35.4509 92.7883 35.4509C94.3557 35.4509 95.1203 36.5109 95.3242 36.8006C95.2031 36.3529 95.0247 35.9118 94.8081 35.4839C94.7508 35.3588 94.687 35.2403 94.6106 35.1152C94.1518 34.2988 93.6421 33.6799 93.1834 33.2387C92.782 32.8503 92.4124 32.5935 92.1384 32.4487C91.96 32.3565 91.8199 32.3104 91.7434 32.3104L91.7498 32.2972Z" fill="#A41218"></path>
    <path d="M90.6093 49.4352C90.7049 49.3232 90.8004 49.2245 90.8896 49.1191L90.9215 49.0862C91.0043 48.9875 91.0935 48.8953 91.1764 48.7965L91.221 48.7439C91.2974 48.6517 91.3802 48.5661 91.4567 48.4739L91.514 48.4081C91.5905 48.3225 91.6606 48.2369 91.7371 48.1513L91.8008 48.0789C91.8709 47.9933 91.9409 47.9143 92.011 47.8287L92.0493 47.7892C92.285 47.5127 92.5144 47.2427 92.731 46.9662C91.6224 48.3291 90.2907 49.7907 89.1566 50.9824C88.9973 51.1536 88.838 51.3182 88.6851 51.4762L88.6724 51.4894C88.2646 51.9173 87.8887 52.2926 87.5828 52.6086H86.9712C88.5258 49.1587 89.0929 45.1359 89.2012 41.5213H89.1821C89.0164 41.416 88.1818 40.9814 86.4678 40.8893C84.8495 40.9288 83.8746 41.4357 83.7408 41.5147C83.8555 45.1293 84.4162 49.1587 85.9709 52.602H87.5956C88.3538 51.8383 89.4752 50.6861 90.6157 49.4286L90.6093 49.4352Z" fill="#02448E"></path>
    <path d="M78.032 43.7335V43.7072C78.0001 43.6611 78.0001 43.6479 77.981 43.5821C78.0128 43.6611 78.0128 43.6545 78.032 43.7269C78.1849 44.1286 78.4716 44.6092 78.8284 45.1491C78.7265 44.9976 78.6309 44.8594 78.548 44.7145C78.325 44.3458 78.1466 44.01 78.032 43.7269V43.7335Z" fill="#02448E"></path>
    <path d="M82.4219 49.5471C82.0269 49.1126 81.6255 48.6649 81.2368 48.2172L81.2496 48.2303C81.2814 48.2698 81.3133 48.3028 81.3451 48.3423C81.4025 48.4081 81.4662 48.4739 81.5235 48.5464C81.5618 48.5859 81.6 48.6319 81.6382 48.6715C81.6892 48.7307 81.7465 48.7965 81.7975 48.8558C81.8358 48.8953 81.8804 48.948 81.9186 48.9875C81.9696 49.0402 82.0205 49.106 82.0715 49.1587C82.1097 49.2048 82.1607 49.2574 82.1989 49.3035C82.2435 49.3562 82.2945 49.4089 82.3391 49.4615C82.3837 49.5076 82.4283 49.5603 82.4729 49.6064C82.5175 49.6525 82.5685 49.7117 82.6131 49.7578C82.6577 49.8039 82.7023 49.8566 82.7469 49.9026C82.7851 49.9487 82.8361 50.0014 82.8743 50.0409C82.9189 50.087 82.9699 50.1463 83.0145 50.1923C83.0527 50.2318 83.0973 50.2845 83.1355 50.324C83.1801 50.3701 83.2311 50.4294 83.2757 50.4754L83.3968 50.6005C83.4414 50.6466 83.4923 50.6993 83.5369 50.752C83.5752 50.7915 83.6134 50.831 83.658 50.8771C83.7026 50.9232 83.7536 50.9824 83.8045 51.0285L84.5181 51.7659C84.5564 51.8054 84.5946 51.8449 84.6328 51.8844C84.6711 51.9239 84.7029 51.9568 84.7412 51.9963C84.7794 52.0358 84.824 52.0819 84.8622 52.1214L84.9514 52.207C84.996 52.2531 85.047 52.3058 85.0916 52.3453L85.1999 52.4572C84.4672 51.7198 83.4541 50.6795 82.4156 49.5339L82.4219 49.5471Z" fill="#02448E"></path>
    <path d="M94.8973 43.7335C94.8208 43.931 94.7125 44.1483 94.5851 44.3787C94.5851 44.3919 94.5724 44.3985 94.566 44.4117C94.5086 44.517 94.4449 44.6158 94.3748 44.7211C94.2156 44.9845 94.0244 45.261 93.8205 45.5441C94.2856 44.8857 94.6552 44.2931 94.8527 43.8125C94.8654 43.7862 94.8782 43.7598 94.8909 43.7335C94.9101 43.6874 94.9164 43.6677 94.9292 43.6479C94.9292 43.6677 94.9164 43.6874 94.9037 43.7138V43.7335H94.8973Z" fill="#02448E"></path>
    <path d="M93.228 46.3605C93.0814 46.558 92.9221 46.749 92.7628 46.9465C92.9221 46.749 93.0814 46.5514 93.228 46.3605Z" fill="#02448E"></path>
    <path d="M83.3267 41.495C83.4541 41.495 83.6006 41.5082 83.7345 41.5213C83.5943 41.5082 83.4541 41.5016 83.3267 41.495Z" fill="#02448E"></path>
    <path d="M93.6803 42.7196C94.4322 43.0027 94.9037 43.5097 94.9546 43.5887C95.0056 43.6677 94.9419 43.5689 94.9292 43.5557C94.8145 43.4241 94.3621 42.9698 93.6803 42.7064V42.7196Z" fill="#033A7E"></path>
    <path d="M94.91 43.7203C94.91 43.7203 94.9292 43.6743 94.9355 43.6545C94.9355 43.6347 94.9483 43.6216 94.961 43.5952C94.9355 43.6611 94.9292 43.6743 94.9164 43.7203H94.91Z" fill="#033A7E"></path>
    <path d="M94.5724 44.4117C94.5724 44.4117 94.5853 44.3919 94.5918 44.3788C94.5918 44.3919 94.5788 44.3985 94.5724 44.4117Z" fill="#033A7E"></path>
    <path d="M89.163 50.9956C90.3035 49.7973 91.6351 48.3423 92.7374 46.9794L92.7628 46.9465C92.9221 46.749 93.0814 46.5514 93.228 46.3605C93.4382 46.084 93.6485 45.814 93.8269 45.5507C94.0308 45.261 94.2155 44.9845 94.3812 44.7277C93.2726 46.5185 90.9725 49.0928 89.1566 50.9956H89.163Z" fill="#033A7E"></path>
    <path d="M92.2276 43.8323C92.3869 43.4241 92.5144 42.983 92.6099 42.5353C92.5844 42.5353 91.5905 41.4621 89.609 41.5016C89.4815 41.5016 89.335 41.5148 89.2012 41.5279C89.0865 45.1425 88.5258 49.1653 86.9712 52.6152H87.5828C87.5828 52.6152 90.5392 48.1316 92.2276 43.8389V43.8323Z" fill="#033A7E"></path>
    <path d="M93.6803 42.7196C93.3745 42.6011 93.0177 42.5221 92.629 42.5352H92.6099C92.5144 42.9895 92.3869 43.4241 92.2276 43.8323C90.5456 48.125 87.5892 52.6086 87.5828 52.6086C87.895 52.2992 88.2646 51.9173 88.6723 51.4894L88.6851 51.4762C88.838 51.3182 88.9973 51.1536 89.1566 50.9824C90.9661 49.0797 93.2726 46.5119 94.3812 44.7145C94.4449 44.6092 94.5086 44.5038 94.5724 44.4051C94.5724 44.3919 94.5851 44.3853 94.5915 44.3722C94.7189 44.1417 94.8272 43.9179 94.9037 43.7269V43.7072C94.9355 43.6545 94.9355 43.6479 94.9546 43.5821C94.8973 43.5031 94.4322 42.9895 93.6803 42.713V42.7196Z" fill="#04326C"></path>
    <path d="M83.7345 41.5213C83.5943 41.5081 83.4541 41.5016 83.3267 41.495C81.651 41.4555 80.6825 42.2192 80.4022 42.4562C80.3576 42.4957 80.3257 42.5287 80.3193 42.5287C80.4149 42.9829 80.5423 43.4175 80.7016 43.8257C82.3837 48.1184 85.3401 52.5955 85.3464 52.602H85.9581C84.4035 49.1521 83.8364 45.1293 83.7281 41.5147L83.7345 41.5213Z" fill="#033A7E"></path>
    <path d="M77.9746 43.5887C78.0001 43.6545 78.0065 43.6677 78.0192 43.7138C78.0001 43.6677 77.9937 43.6545 77.9746 43.5887Z" fill="#033A7E"></path>
    <path d="M82.4219 49.5471C80.9374 47.9143 79.3891 46.0971 78.5417 44.7211C78.6309 44.8594 78.7265 45.0108 78.822 45.1556L78.8475 45.1951C79.4656 46.1103 80.3193 47.1637 81.2305 48.2172C81.6191 48.6715 82.0205 49.1192 82.4156 49.5537L82.4219 49.5471Z" fill="#033A7E"></path>
    <path d="M80.7016 43.8323C80.5423 43.4241 80.4149 42.983 80.3193 42.5353C80.2238 42.081 80.3066 42.5353 80.3002 42.5353C79.4592 42.5155 78.7965 42.8908 78.3888 43.2002C78.1721 43.3714 78.0256 43.5163 77.981 43.5755L77.9682 43.5953C77.9937 43.6611 78.0001 43.6743 78.0128 43.7204V43.7467C78.1339 44.0364 78.3123 44.3656 78.5353 44.7343C79.3763 46.1037 80.9246 47.9275 82.4155 49.5603C83.4541 50.6993 84.4672 51.7527 85.1999 52.4835L85.219 52.5033L85.3082 52.5889L85.3401 52.6218C85.3401 52.6218 82.3773 48.1382 80.6952 43.8454L80.7016 43.8323Z" fill="#04326C"></path>
    <path d="M81.9058 22.5333C86.8182 21.5918 91.96 21.8881 96.7068 23.5077C100.714 24.8706 104.397 27.1881 107.462 30.1707C111.514 34.121 114.547 39.217 116.025 44.7738C116.223 45.5441 116.401 46.321 116.535 47.1111C115.891 47.1967 115.254 47.2888 114.611 47.381C114.063 44.2471 112.992 41.2119 111.463 38.4335C109.564 34.9769 106.952 31.9417 103.856 29.5715C100.256 26.8129 95.9932 24.9825 91.5714 24.3176C86.4105 23.5209 81.0457 24.2583 76.2798 26.4639C72.3167 28.2877 68.7806 31.099 66.0536 34.5885C63.0781 38.3742 61.0774 42.9632 60.3001 47.7695C59.6821 47.6773 59.0577 47.5917 58.4333 47.5061C58.9812 43.8455 60.2619 40.3296 62.0714 37.1364C64.2887 33.2256 67.3279 29.8151 70.9469 27.2408C74.2282 24.8969 77.9874 23.2839 81.9058 22.5267V22.5333Z" fill="#DA1C2E"></path>
    <path d="M86.4168 65.704C86.8437 65.704 87.2706 65.6909 87.6975 65.704C87.8186 65.7699 87.774 65.9147 87.7867 66.0267V66.797C87.328 66.8101 86.8692 66.797 86.4105 66.797C86.4105 66.4217 86.3977 66.0596 86.4105 65.6843V65.6975L86.4168 65.704Z" fill="#134C97"></path>
    <path d="M93.2726 65.7106C93.7122 65.6975 94.1646 65.7106 94.6106 65.7106C94.6616 66.0793 94.6361 66.4414 94.6424 66.8101C94.2028 66.8101 93.7568 66.8233 93.3172 66.8101L93.2789 66.7706C93.2598 66.4151 93.2789 66.0662 93.2789 65.7172L93.2726 65.7106Z" fill="#134C97"></path>
    <path d="M79.8096 65.9542C80.2684 65.9542 80.7335 65.9345 81.1859 65.9542C81.2878 66.0332 81.3069 66.1649 81.3643 66.2834C81.8039 67.4883 82.3136 68.6668 82.7469 69.8782L82.8424 69.898C83.3267 68.5878 83.8555 67.2973 84.3397 65.9871C84.6838 65.9081 85.0279 65.9608 85.3783 65.9476C85.493 65.9608 85.6204 65.9213 85.7224 65.9871C85.7224 66.2439 85.5631 66.4678 85.4739 66.6982C84.9259 68.0347 84.3461 69.3515 83.7918 70.6881C83.6516 71.0173 83.5433 71.3662 83.3585 71.6756C83.3394 71.6954 83.3012 71.7217 83.2821 71.7349C82.9444 71.7481 82.6003 71.7481 82.269 71.7349C82.1416 71.6493 82.097 71.4847 82.0333 71.3596C81.3515 69.74 80.6825 68.1137 79.9944 66.5007C79.9179 66.3295 79.8542 66.1452 79.8096 65.9608V65.9542Z" fill="#0050A0"></path>
    <path d="M89.7937 67.3434C90.5902 67.0669 91.4376 67.3171 92.1639 67.6924C92.1193 68.015 91.89 68.2784 91.7243 68.5549C91.3611 68.5022 91.0489 68.2257 90.673 68.2257C90.45 68.2257 90.1442 68.1599 90.004 68.4035C89.9148 68.5812 90.1123 68.7063 90.2334 68.7853C90.724 69.0421 91.3038 69.0882 91.7689 69.4042C92.1384 69.6083 92.3551 70.0626 92.3041 70.4906C92.2659 71.0173 91.89 71.465 91.4121 71.6296C91.0234 71.7942 90.5965 71.7678 90.1824 71.7547C89.6026 71.6888 89.0483 71.465 88.5768 71.116C88.7424 70.8461 88.9017 70.5761 89.112 70.3391C89.3095 70.3589 89.4752 70.5366 89.6599 70.6091C90.0231 70.8 90.4373 70.8066 90.8387 70.7737C91.0298 70.7737 91.1572 70.5564 91.0999 70.372C90.8896 70.135 90.5583 70.0955 90.2716 69.9968C89.832 69.8651 89.3668 69.7268 89.0419 69.3779C88.7679 69.0816 88.7934 68.6405 88.8444 68.2652C88.9527 67.8109 89.3477 67.4883 89.7619 67.3566L89.7746 67.3369L89.7937 67.3434Z" fill="#0050A0"></path>
    <path d="M97.4523 67.2908C98.0384 67.1723 98.6629 67.2052 99.2108 67.4554C99.9881 67.778 100.6 68.6076 100.53 69.4964C100.581 70.2338 100.167 70.9449 99.5803 71.3399C99.2172 71.5637 98.8221 71.7547 98.3889 71.7744C97.6052 71.8666 96.745 71.6362 96.1907 71.0173C95.8148 70.642 95.5727 70.1087 95.5918 69.5622C95.5536 68.9763 95.7893 68.3969 96.1907 67.9887C96.522 67.6266 96.968 67.4027 97.4332 67.2908H97.4523ZM97.5351 68.3969C96.9362 68.6602 96.6877 69.4898 97.0063 70.0692C97.3503 70.8263 98.4844 70.9449 98.9942 70.3128C99.4465 69.7795 99.3191 68.8512 98.7266 68.4759C98.3634 68.2652 97.911 68.2191 97.5351 68.3969Z" fill="#0050A0"></path>
    <path d="M102.779 67.8899C103.059 67.6068 103.365 67.3237 103.76 67.2447C104.263 67.1854 104.843 67.2118 105.225 67.6068C105.563 67.9294 105.691 68.41 105.691 68.8775V71.6757C105.264 71.6757 104.843 71.6888 104.423 71.6757L104.391 71.6362C104.372 70.7934 104.391 69.9573 104.378 69.1145C104.378 68.7919 104.181 68.4759 103.868 68.3771C103.55 68.2981 103.142 68.3376 102.938 68.6339C102.715 68.9763 102.785 69.4042 102.772 69.7992C102.772 70.4115 102.785 71.0173 102.772 71.6296L102.747 71.6691C102.32 71.6888 101.9 71.6691 101.473 71.6691V67.5015C101.454 67.4093 101.485 67.3434 101.556 67.2974C101.963 67.2842 102.371 67.2974 102.785 67.2974C102.785 67.4949 102.785 67.6858 102.785 67.8833V67.8965L102.779 67.8899Z" fill="#0050A0"></path>
    <path d="M86.4296 67.3961C86.4296 67.3961 86.4806 67.3303 86.4997 67.3105C86.9075 67.2908 87.3152 67.3105 87.7294 67.3105C87.7294 68.7656 87.7421 70.2338 87.7294 71.6888H86.436C86.4232 70.2601 86.4232 68.838 86.436 67.4027L86.4296 67.3961Z" fill="#0050A0"></path>
    <path d="M93.2981 67.3961C93.2981 67.3961 93.349 67.3303 93.3618 67.3039C93.7695 67.2908 94.1837 67.3039 94.5915 67.3039C94.5915 68.759 94.5915 70.2206 94.5915 71.6757C94.1518 71.6757 93.7249 71.6888 93.2853 71.6757C93.2853 70.247 93.2726 68.8248 93.2853 67.3961H93.2981Z" fill="#0050A0"></path>
    <path d="M115.057 52.4901C115.7 52.3782 116.356 52.365 117 52.4901C117.013 57.2437 115.923 61.9841 113.852 66.2242C111.833 70.3721 108.876 74.0261 105.302 76.8243C101.715 79.6422 97.4969 81.5845 93.0687 82.4535C88.2263 83.4082 83.1546 83.0988 78.4589 81.5318C75.5535 80.5705 72.801 79.1287 70.3225 77.2852C67.1176 74.915 64.3842 71.8666 62.3262 68.3903C59.4909 63.6499 57.9809 58.0733 58 52.4967C58.5862 52.4309 59.1787 52.444 59.7649 52.5428C59.8222 52.5626 59.956 52.5428 59.9369 52.6547C59.956 57.2569 61.0711 61.859 63.1736 65.9213C65.0787 69.6149 67.793 72.8674 71.0488 75.3758C73.7185 77.43 76.7513 78.9838 79.9562 79.9253C84.7985 81.3475 90.0104 81.3672 94.8591 79.978C98.9942 78.7995 102.849 76.6004 106.022 73.6179C109.157 70.6815 111.629 66.9945 113.171 62.9256C114.432 59.6139 115.069 56.052 115.069 52.4967V52.4836L115.057 52.4901Z" fill="#003CA3"></path>
    <path d="M73.814 59.4427V59.3966C73.814 58.7382 73.6165 58.1852 73.2279 57.8033C72.7882 57.3754 72.132 57.1449 71.3483 57.1449H68.736V63.9856H70.2205V61.7668H71.0743L72.3422 63.9856H74.0307L72.5652 61.464C73.1259 61.1809 73.8077 60.6278 73.8077 59.4427M72.3231 59.469C72.3231 60.0945 71.909 60.483 71.2272 60.483H70.2269V58.488H71.2272C71.9345 58.488 72.3231 58.8172 72.3231 59.469ZM94.7444 57.1186L92.2531 63.9856H93.7377L94.2538 62.524H96.573L97.0891 63.9856H98.631L96.1397 57.1186H94.7444ZM96.1143 61.2335H94.6998L95.407 59.1333L96.1143 61.2335ZM102.957 60.5027L104.932 57.1713H103.295L102.123 59.344L100.976 57.1713H99.2618L101.218 60.5225L99.1662 64.0054H100.804L102.046 61.7076L103.289 64.0054H104.977L102.944 60.4961L102.957 60.5027ZM76.8724 62.6754V61.2138H79.5356V59.9036H76.8724V58.488H79.8733V57.1515H75.4069V63.9922H78.1913L78.873 62.682H76.866L76.8724 62.6754ZM89.5707 57.1515L88.0862 59.3703L86.5698 57.1515H86.5443L85.0279 60.1274V63.9856H86.4678V59.7456L88.0288 61.8458V61.8722H88.0989L89.6854 59.7522V63.9922H91.1254V57.1515H89.5644H89.5707Z" fill="#DE293B"></path>
    <path d="M83.1929 57.1449L79.7013 63.9856H81.5044L84.996 57.1449H83.1929Z" fill="#0050A0"></path>
    <path d="M105.71 56.9211C105.436 56.9211 105.219 57.1449 105.219 57.428C105.219 57.7112 105.436 57.935 105.71 57.935C105.984 57.935 106.2 57.7112 106.2 57.428C106.2 57.1449 105.984 56.9211 105.71 56.9211ZM105.71 57.856C105.493 57.856 105.321 57.6782 105.321 57.428C105.321 57.2042 105.493 57.0001 105.71 57.0001C105.926 57.0001 106.098 57.2042 106.098 57.428C106.098 57.6519 105.926 57.856 105.71 57.856ZM105.812 57.4544C105.856 57.428 105.914 57.382 105.914 57.3029C105.914 57.2569 105.888 57.1976 105.869 57.1779C105.844 57.1515 105.767 57.1318 105.697 57.1318C105.627 57.1318 105.576 57.1318 105.55 57.1581V57.7112H105.652V57.461H105.722C105.793 57.461 105.824 57.4873 105.844 57.5663C105.844 57.6387 105.869 57.6914 105.888 57.7177H105.99C105.99 57.7177 105.965 57.6716 105.965 57.5926C105.894 57.5202 105.863 57.4675 105.818 57.4675M105.697 57.4215H105.627V57.2437H105.697C105.799 57.2437 105.844 57.2898 105.844 57.349C105.818 57.3951 105.773 57.4215 105.697 57.4215Z" fill="#DE293B"></path>
    <path d="M86.4933 53.7147H85.4739L85.4866 53.7476L85.8498 55.0973H86.4933V53.7213V53.7147Z" fill="#3C3C3B"></path>
    <path d="M86.4742 53.7147H87.4936L87.4809 53.7476L87.1177 55.0973H86.4742V53.7213V53.7147Z" fill="#636362"></path>
    <path d="M87.5956 53.7674H85.3719V53.6226H87.5956V53.7674Z" fill="#636362"></path>
    <path d="M87.4681 53.8069L87.4809 53.7674H85.493L85.5057 53.8069H87.4681Z" fill="#3C3C3B"></path>
    <path d="M81.5172 37.9989V37.9857C81.5044 37.7355 81.4216 37.5446 81.2687 37.4459C81.0967 37.3273 80.8418 37.3208 80.5487 37.4261C80.2174 37.538 79.8924 37.6631 79.5739 37.7948C79.6185 38.6639 79.6694 39.5264 79.7077 40.3955C79.9179 40.3099 80.0326 40.2704 80.2429 40.1848C80.2238 39.8424 80.2174 39.6778 80.2046 39.3354C80.3257 39.2894 80.3958 39.2696 80.5168 39.2169C80.7144 39.4935 80.8227 39.6317 81.0266 39.9082C81.2814 39.8292 81.4025 39.7831 81.6573 39.7173C81.4598 39.4474 81.2687 39.1774 81.0648 38.9141C81.3451 38.6968 81.5235 38.3676 81.5044 37.9989M80.9437 38.1833C80.9565 38.4203 80.8099 38.6112 80.5551 38.7034C80.4022 38.7561 80.3257 38.7824 80.1792 38.8351C80.16 38.5322 80.1537 38.3808 80.1409 38.0779C80.2875 38.0252 80.3639 37.9989 80.5105 37.9462C80.7908 37.8475 80.9374 37.9331 80.9501 38.1833" fill="#02448E"></path>
    <path d="M89.6217 36.6361C89.2776 37.4656 88.94 38.3018 88.615 39.1445C88.8444 39.1709 88.9591 39.184 89.1884 39.217C89.2713 39.0063 89.3095 38.8943 89.386 38.6771C89.7428 38.7297 89.9148 38.7627 90.2716 38.8351C90.3417 39.0787 90.3799 39.1972 90.45 39.4408C90.6794 39.4869 90.8004 39.5198 91.0298 39.5725C90.7495 38.6244 90.4564 37.6763 90.1633 36.7217C89.9466 36.6822 89.8383 36.6624 89.6281 36.6229M90.125 38.2952C89.9084 38.2557 89.8001 38.236 89.5835 38.1965C89.7045 37.8936 89.7619 37.7422 89.8766 37.4393C89.9785 37.7817 90.0295 37.9528 90.125 38.2952Z" fill="#02448E"></path>
    <path d="M92.782 38.7693C93.0432 38.4335 93.3108 38.1043 93.5784 37.7817C93.3363 37.6829 93.2152 37.6368 92.9667 37.5446C92.7756 37.8146 92.68 37.9463 92.4889 38.2162C92.3615 37.8936 92.2213 37.571 92.0938 37.2484C91.839 37.1694 91.7116 37.1299 91.4503 37.0574C91.6861 37.5578 91.9154 38.0582 92.1385 38.5586C91.8581 38.9273 91.5905 39.2894 91.3165 39.6647C91.565 39.7305 91.6861 39.77 91.9282 39.8424C92.1257 39.5527 92.2277 39.4013 92.4315 39.1182C92.5717 39.4606 92.7119 39.8095 92.8521 40.1519C93.1005 40.244 93.2216 40.2901 93.4637 40.3889C93.2407 39.849 93.0113 39.3025 92.7756 38.7693" fill="#02448E"></path>
    <path d="M82.8106 38.9273C82.8106 38.7034 82.7978 38.5915 82.7915 38.3742C83.1292 38.3018 83.4669 38.2425 83.8045 38.1833C83.8045 37.9792 83.8045 37.8804 83.7918 37.6763C83.4477 37.7224 83.11 37.7948 82.7787 37.8672C82.7787 37.6566 82.766 37.5446 82.7596 37.3274C83.1483 37.2484 83.5306 37.1825 83.9192 37.1233L83.9065 36.6163C83.3203 36.7085 82.7469 36.8204 82.1798 36.9587C82.2117 37.8277 82.2372 38.7034 82.269 39.5725C82.6194 39.4869 82.9635 39.4079 83.3203 39.3486C83.4223 39.1314 83.4668 39.0128 83.5624 38.7956C83.263 38.8417 83.11 38.8746 82.8042 38.9404" fill="#02448E"></path>
    <path d="M87.5892 36.4319C87.3917 36.7085 87.1942 36.9784 86.9966 37.2615C86.7991 36.9718 86.608 36.6887 86.4041 36.4056C86.2066 36.7875 86.0091 37.1825 85.8116 37.5644C85.8116 38.0582 85.8116 38.552 85.8116 39.0458C86.0282 39.0326 86.1429 39.0326 86.3659 39.0326V37.4064C86.5634 37.6763 86.7736 37.9462 86.9648 38.2162H86.9966C87.1942 37.9528 87.4044 37.6895 87.6083 37.4327C87.6083 37.9726 87.6083 38.5256 87.5956 39.0655C87.8186 39.0787 87.9333 39.0853 88.1499 39.105C88.1626 38.2359 88.1754 37.3537 88.1817 36.4846C87.9396 36.4649 87.8186 36.4517 87.5828 36.4451" fill="#02448E"></path>
    <path d="M84.5245 39.1511C84.9578 38.2293 85.3974 37.3142 85.8498 36.399C85.5694 36.4122 85.4229 36.4188 85.1489 36.4385C84.7029 37.3669 84.2633 38.3018 83.8364 39.2367C84.1104 39.1972 84.2505 39.1774 84.5181 39.1445" fill="#D60C21"></path>
    <path d="M88.8699 53.616C89.2585 53.616 89.5644 53.932 89.5644 54.327C89.5644 54.7221 89.2585 55.0447 88.8699 55.0447C88.4812 55.0447 88.169 54.7286 88.169 54.327C88.169 53.9254 88.4812 53.616 88.8699 53.616ZM88.8699 53.7279C88.5577 53.7279 88.3028 53.9978 88.3028 54.3336C88.3028 54.6694 88.5577 54.9459 88.8699 54.9459C89.1821 54.9459 89.4369 54.676 89.4369 54.3402C89.4369 54.0044 89.1821 53.7345 88.8699 53.7345V53.7279ZM88.7488 54.7484H88.6214V53.9517C88.6851 53.9386 88.7488 53.932 88.8444 53.932C88.9654 53.932 89.0419 53.9583 89.0929 53.9912C89.1375 54.0308 89.163 54.0834 89.163 54.1558C89.163 54.2612 89.0929 54.327 89.01 54.3534C89.0801 54.3731 89.1311 54.439 89.1375 54.5575C89.1566 54.6826 89.1757 54.7286 89.1884 54.755H89.061C89.061 54.755 89.0228 54.6562 89.01 54.5509C88.9909 54.4455 88.94 54.4126 88.838 54.4126H88.7488V54.755V54.7484ZM88.7488 54.3073H88.838C88.9463 54.3073 89.0292 54.2678 89.0292 54.1756C89.0292 54.1032 88.9782 54.0373 88.838 54.0373C88.7998 54.0373 88.7679 54.0373 88.7488 54.0373V54.3073Z" fill="#636362"></path>
  </g>
  <defs>
    <clipPath id="clip0_10_27059">
      <rect width="59" height="61" fill="white" transform="translate(58 22)"></rect>
    </clipPath>
  </defs>
</svg>
