<svg preserveAspectRatio="none" width="100%" height="100%" overflow="visible" style="display: block;" viewBox="0 0 26.3503 26.345" fill="none" xmlns="http://www.w3.org/2000/svg">
<g id="layer1">
<path id="path825" d="M11.3998 0C5.11801 0 0 5.11118 0 11.3929C-3.50551e-08 17.6747 5.11801 22.7841 11.3998 22.7841C14.2246 22.7841 16.8064 21.7439 18.7993 20.0352L19.7955 21.0314L19.1759 21.651C19.0116 21.8153 18.9193 22.0382 18.9193 22.2706C18.9193 22.503 19.0116 22.7259 19.1759 22.8902L21.8033 25.5194C22.3781 26.0946 23.1176 26.3738 23.8043 26.3427C24.4909 26.3129 25.1034 26.0042 25.5553 25.5536C26.0072 25.103 26.3155 24.4926 26.3478 23.806C26.3802 23.1193 26.101 22.3785 25.5262 21.8033L22.8954 19.1708C22.8126 19.0879 22.714 19.0226 22.6056 18.9785C22.4971 18.9344 22.3809 18.9124 22.2638 18.914C22.0355 18.9172 21.8175 19.0093 21.6561 19.1708L21.0348 19.7921L20.0403 18.7976C21.7513 16.8041 22.7927 14.2199 22.7927 11.3929C22.7927 5.11118 17.6815 0 11.3998 0ZM11.3998 1.74591C16.7343 1.74591 21.0382 6.05843 21.0382 11.3929C21.0382 16.7274 16.7343 21.0314 11.3998 21.0314C6.06527 21.0314 1.75276 16.7274 1.75276 11.3929C1.75276 6.05843 6.06527 1.74591 11.3998 1.74591ZM13.1457 7.00589C13.0289 7.00327 12.9128 7.024 12.8042 7.06686C12.6956 7.10973 12.5966 7.17386 12.5131 7.2555C12.4296 7.33714 12.3633 7.43464 12.318 7.54227C12.2727 7.6499 12.2494 7.76549 12.2494 7.88227C12.2494 7.99904 12.2727 8.11463 12.318 8.22227C12.3633 8.3299 12.4296 8.42739 12.5131 8.50903C12.5966 8.59067 12.6956 8.65481 12.8042 8.69767C12.9128 8.74053 13.0289 8.76127 13.1457 8.75864H14.5441L11.3929 11.9098L10.2615 10.7716C9.91966 10.4319 9.3675 10.4319 9.02567 10.7716L5.51844 14.2771C4.64026 15.1049 5.93796 16.3954 6.76112 15.5129L9.647 12.627L10.7784 13.7602C11.1203 14.0999 11.6724 14.0999 12.0143 13.7602L15.7799 9.99961V11.3929C15.7773 11.5096 15.7981 11.6257 15.841 11.7343C15.8839 11.8429 15.948 11.9418 16.0296 12.0253C16.1113 12.1087 16.2088 12.1751 16.3164 12.2203C16.424 12.2656 16.5396 12.2889 16.6563 12.2889C16.7731 12.2889 16.8886 12.2656 16.9963 12.2203C17.1039 12.1751 17.2014 12.1087 17.283 12.0253C17.3646 11.9418 17.4288 11.8429 17.4716 11.7343C17.5145 11.6257 17.5353 11.5096 17.5327 11.3929V7.88569C17.5331 7.77003 17.5107 7.65542 17.4666 7.54848C17.4226 7.44154 17.3578 7.34438 17.276 7.26259C17.1942 7.18081 17.097 7.11602 16.9901 7.07196C16.8832 7.0279 16.7686 7.00545 16.6529 7.00589H13.1457ZM22.2757 21.0296L24.287 23.0426C24.5598 23.3155 24.6063 23.5203 24.5968 23.7221C24.5873 23.9238 24.4868 24.1441 24.3178 24.3126C24.1487 24.4812 23.9284 24.5827 23.7255 24.5916C23.5227 24.6016 23.3154 24.5531 23.0426 24.2801L21.0348 22.2706L22.2757 21.0296Z" fill="var(--fill-0, #15301F)"/>
</g>
</svg>
