<?xml version="1.0" encoding="UTF-8"?>
<svg xmlns="http://www.w3.org/2000/svg" width="175" height="108" viewBox="0 0 175 108" fill="none">
  <g style="mix-blend-mode:luminosity">
    <rect x="0.5" y="0.5" width="174" height="107" rx="9.5" stroke="#E3E3E3"></rect>
  </g>
  <g style="mix-blend-mode:luminosity" clip-path="url(#clip0_10_27422)">
    <path d="M79.3034 32.0555C82.2216 32.0694 85.1398 32.0555 88.058 32.0555C88.058 32.0902 88.0511 32.1665 88.0441 32.2081C88.1412 32.4093 88.1412 32.6383 88.1412 32.8534C88.1204 40.2423 88.1689 47.6313 88.162 55.0272C88.1481 57.9204 88.1966 60.8135 88.1897 63.7067C87.6837 63.7067 87.1707 63.7067 86.6578 63.6997L86.6024 63.9217L86.5469 63.6997C85.2646 63.6997 83.9753 63.7344 82.6791 63.6789L82.991 63.783H82.3741L82.6791 63.672C82.4157 63.6928 82.1661 63.6997 81.9027 63.6997L81.9582 63.7899C81.3344 63.8038 80.7105 63.7899 80.0867 63.8038C80.0589 63.7344 79.9966 63.5818 79.9688 63.5055C79.9619 62.4925 80.0035 61.4657 79.9411 60.4527C79.8857 60.5499 79.8233 60.6401 79.7748 60.7441C79.3935 61.1604 79.0331 61.5975 78.6241 61.986C78.2151 62.4093 77.7715 62.7909 77.2725 63.1031C77.113 63.2071 76.9536 63.3043 76.7942 63.4083C76.5308 63.5124 76.2812 63.6095 76.0248 63.7205C75.9069 63.7691 75.7822 63.8107 75.6713 63.8524C75.5049 63.9009 75.3385 63.9564 75.1791 64.0258C74.985 64.0466 74.7909 64.0674 74.5969 64.0883L74.6385 64.1854C74.3335 64.1993 74.0354 64.2131 73.7304 64.2201V64.2895C72.9887 64.3242 72.2471 64.3172 71.4984 64.2895L71.4846 64.2201C71.1727 64.2131 70.8607 64.1854 70.5488 64.2062L70.6805 64.1091C70.3409 64.0674 70.0082 64.005 69.6962 63.8593C69.5853 63.8385 69.3774 63.8038 69.2665 63.7899L69.2457 63.7067C69.0031 63.6234 68.7813 63.5332 68.5595 63.4222C67.2771 62.77 66.2097 61.7432 65.4264 60.5499C65.3085 60.3626 65.2115 60.1752 65.1075 59.974L65.059 59.9601C64.955 59.7659 64.858 59.5786 64.7471 59.3843C64.657 59.2178 64.5807 59.0513 64.5045 58.8848C64.4352 58.7252 64.3589 58.5656 64.2896 58.413C64.2411 58.2812 64.1856 58.1493 64.1371 58.0244C64.0886 57.8926 64.0401 57.7608 63.9916 57.622C63.8876 57.3653 63.8252 57.1017 63.7697 56.838L63.7004 56.8242C63.6519 56.2067 63.3608 55.6239 63.3885 54.9856L63.3261 55.4574C63.3123 55.0272 63.2845 54.604 63.2776 54.1739L63.1806 54.2224C63.1112 52.7654 63.1112 51.3015 63.1806 49.8515H63.2776C63.2915 49.5184 63.3053 49.1854 63.3123 48.8524H63.3746C63.4232 48.4778 63.5063 48.0962 63.5549 47.7146L63.6242 47.7493C63.645 47.3052 63.846 46.9098 63.9361 46.4796H63.9916C64.0262 46.3408 64.0747 46.1951 64.1163 46.0494C64.1995 45.8829 64.2688 45.7164 64.3589 45.5569C64.4698 45.3418 64.5738 45.1267 64.6708 44.9116C64.8095 44.7174 64.9412 44.5092 65.0521 44.3011C65.1976 44.1068 65.3432 43.9125 65.4888 43.7113C66.1265 42.9412 66.8612 42.2474 67.693 41.7063C67.901 41.5814 68.1089 41.4565 68.3099 41.3316C68.4763 41.2483 68.6426 41.172 68.809 41.1027C68.9684 41.0402 69.1278 40.9708 69.2803 40.9084C69.4952 40.8459 69.7101 40.7696 69.9042 40.6656C70.0567 40.6517 70.2161 40.6447 70.3686 40.6309C70.3686 40.6101 70.3617 40.5684 70.3547 40.5407C70.7914 40.499 71.2073 40.4019 71.644 40.3811L71.5886 40.2978C72.3025 40.3256 73.0303 40.2076 73.7304 40.3672C74.181 40.395 74.6315 40.499 75.0821 40.5337C75.0821 40.5545 75.0682 40.6031 75.0613 40.6378C75.193 40.6378 75.4425 40.6517 75.5742 40.6586V40.7419C75.7822 40.7904 75.997 40.8529 76.205 40.9014V40.9986C76.2951 41.0055 76.4615 41.0263 76.5446 41.0333C76.7318 41.1512 76.9328 41.2483 77.1338 41.3524C77.3418 41.4704 77.5497 41.5952 77.7438 41.7201C78.2359 42.0601 78.7419 42.3931 79.1232 42.8718C79.1648 42.8718 79.248 42.8857 79.2826 42.8927C79.2826 39.278 79.2618 35.6633 79.2965 32.0486H79.3173L79.3034 32.0555ZM74.2156 47.1179V47.1873C73.6126 47.3607 73.1828 47.8395 72.8016 48.2904C72.6699 48.4916 72.5382 48.7067 72.4342 48.9218C72.3718 49.0883 72.2956 49.2548 72.2332 49.4213V49.5254C72.1708 49.6988 72.1154 49.8723 72.0807 50.0457C71.9559 50.3788 71.9559 50.7326 71.949 51.0934H71.8866C71.8866 51.9468 71.7896 52.8001 71.9351 53.6327C71.9629 53.9171 71.9837 54.2016 71.9975 54.4791L72.0876 54.4306C72.1015 54.5554 72.1223 54.7913 72.1362 54.9162C72.2401 55.2076 72.3372 55.4921 72.4827 55.7627V55.8875C72.6075 56.0471 72.7115 56.2136 72.8224 56.3801C72.9264 56.512 73.0303 56.6438 73.1412 56.7687C73.5086 57.1225 73.9314 57.4486 74.4236 57.6082C74.583 57.6567 74.7424 57.7192 74.8949 57.7816C75.3455 57.7886 75.8099 57.8302 76.2604 57.7469C76.4753 57.6845 76.6902 57.622 76.9051 57.5596C77.619 57.2266 78.229 56.6715 78.631 55.9985C78.7905 55.7418 78.9083 55.4782 78.9776 55.1868H79.04C79.0885 54.7983 79.1925 54.4167 79.2895 54.0351C79.3589 53.2442 79.3519 52.4463 79.345 51.6484C79.3311 51.1073 79.3242 50.5453 79.1232 50.0319C79.1093 49.9209 79.0816 49.6988 79.0677 49.5809H78.9846C78.8944 49.2687 78.7627 48.9773 78.6033 48.6859C78.4231 48.4153 78.2221 48.1655 78.0003 47.9227C77.6883 47.6591 77.3626 47.437 77.0229 47.222H76.8981C76.614 47.0346 76.2674 46.993 75.9416 46.9583L75.9555 46.8612H74.9781L74.992 46.9445C74.7286 46.9791 74.486 47.0416 74.2295 47.0971L74.2156 47.111V47.1179Z" fill="black"></path>
    <path d="M106.662 32.0139C109.643 31.9931 112.63 32.0069 115.611 32.0069C115.604 34.3242 115.611 36.6415 115.611 38.9588C115.673 42.0532 115.611 45.1475 115.646 48.2419C115.715 48.1447 115.798 48.0545 115.874 47.9644C115.916 47.9088 116.006 47.7909 116.048 47.7354L116.096 47.7215C116.928 46.6808 117.815 45.6817 118.675 44.6757C118.813 44.5162 118.945 44.3566 119.084 44.197C119.195 44.0652 119.299 43.9403 119.41 43.8154C119.735 43.3853 120.137 43.0176 120.456 42.5874C120.699 42.2891 120.955 42.0115 121.205 41.7132C121.51 41.3663 121.794 40.9917 122.106 40.6517C125.703 40.6656 129.308 40.6517 132.905 40.6517C132.697 40.8737 132.469 41.0888 132.254 41.2969C131.803 41.8103 131.263 42.2197 130.784 42.7053C130.535 42.9551 130.285 43.2049 130.036 43.4616C129.779 43.7114 129.537 43.9611 129.287 44.2109C129.031 44.4607 128.788 44.7035 128.545 44.9602C128.421 45.0851 128.289 45.21 128.171 45.3348C127.915 45.5846 127.665 45.8274 127.422 46.0842C126.57 46.889 125.738 47.7285 124.913 48.568C124.733 48.6859 124.844 48.9149 124.934 49.0536C125.066 49.2548 125.19 49.4768 125.308 49.685C125.787 50.5106 126.279 51.3293 126.75 52.1757C126.854 52.3492 126.958 52.5157 127.09 52.6753C127.09 52.703 127.076 52.7655 127.076 52.7932C127.201 52.9597 127.325 53.1262 127.45 53.2927C127.45 53.3205 127.45 53.3829 127.457 53.4107C127.61 53.6119 127.741 53.8408 127.866 54.0629C127.991 54.271 128.116 54.493 128.233 54.7012C128.289 54.8122 128.358 54.9093 128.421 55.0203C128.455 55.0758 128.525 55.1868 128.559 55.2423C128.816 55.6725 129.051 56.1026 129.329 56.5189V56.6369C129.46 56.8103 129.585 56.9768 129.71 57.1503V57.2613C129.828 57.4209 129.932 57.5874 130.036 57.7539C130.16 57.962 130.278 58.184 130.403 58.3922C130.528 58.6003 130.653 58.8154 130.777 59.0166C130.888 59.2178 130.999 59.419 131.11 59.6202C131.263 59.8492 131.401 60.0989 131.547 60.3418C131.671 60.5499 131.796 60.765 131.914 60.9731C132.053 61.2368 132.205 61.4865 132.365 61.7432C132.434 61.8681 132.51 61.9999 132.58 62.1179C132.787 62.4856 133.002 62.8672 133.231 63.228C133.273 63.3459 133.321 63.4569 133.363 63.5749H123.513C123.388 63.3251 123.263 63.0823 123.125 62.8464C123.125 62.8186 123.118 62.7492 123.111 62.7215C122.986 62.5203 122.882 62.3052 122.751 62.104C122.751 62.0763 122.737 62.0138 122.737 61.9861C122.605 61.7918 122.494 61.5837 122.39 61.3825C122.279 61.1119 122.147 60.8621 121.988 60.6193C121.988 60.5915 121.974 60.5221 121.974 60.4944C121.849 60.3001 121.745 60.085 121.641 59.8838C121.531 59.6133 121.399 59.3635 121.239 59.1207C121.239 59.0929 121.226 59.0235 121.226 58.9958C121.101 58.8015 121.004 58.5864 120.9 58.3852C120.747 58.0869 120.588 57.7955 120.435 57.5041C120.311 57.2543 120.186 57.0115 120.075 56.7548C119.943 56.505 119.812 56.2553 119.701 55.9986C119.576 55.7488 119.451 55.499 119.333 55.2562C119.188 54.9787 119.035 54.6942 118.952 54.4028C117.892 55.506 116.762 56.5397 115.743 57.6706L115.68 57.6845C115.694 59.6757 115.68 61.653 115.687 63.6373C112.721 63.6373 109.754 63.6373 106.787 63.6651C106.759 61.32 106.85 58.968 106.725 56.623C106.718 51.8913 106.752 47.1595 106.697 42.4278C106.697 38.9519 106.704 35.4759 106.69 32.0069H106.662V32.0139Z" fill="black"></path>
    <path d="M100.029 32.5065C100.327 32.3261 100.639 32.1735 100.972 32.0555C100.978 34.9487 100.972 37.8487 100.972 40.7419C102.573 40.7419 104.181 40.7905 105.796 40.7072C105.81 42.851 105.782 44.988 105.817 47.1387C105.595 47.1387 105.373 47.1318 105.151 47.1249L105.2 47.2289H101.062C101.089 50.3302 101.013 53.4315 101.103 56.5328C101.207 56.9005 101.325 57.2752 101.602 57.5457C101.81 57.7261 102.053 57.851 102.344 57.858L102.309 57.9481C102.697 57.9551 103.093 57.9481 103.481 57.9481L103.411 57.858C103.751 57.8441 104.098 57.8163 104.444 57.8024L104.43 57.7331C104.583 57.7123 104.742 57.6845 104.888 57.6498C105.075 57.6151 105.269 57.5874 105.463 57.5527L105.408 57.4625C105.609 57.4486 105.817 57.4417 106.018 57.4347C106.032 58.0036 105.983 58.5656 105.976 59.1345C106.045 60.5915 105.976 62.0624 105.955 63.5194C105.761 63.5471 105.574 63.5749 105.38 63.6442C105.186 63.6651 104.992 63.6859 104.798 63.6998C104.798 63.7206 104.819 63.7622 104.825 63.7899C104.583 63.8038 104.354 63.8246 104.112 63.8524C103.89 63.9079 103.661 63.9356 103.432 63.9634L103.453 64.0328C103.079 64.0328 102.691 64.0605 102.316 64.0744C102.316 64.0952 102.323 64.1438 102.33 64.1715C100.868 64.2132 99.3911 64.2409 97.9286 64.1646L98.0117 64.0813C97.7206 64.0744 97.4364 64.0536 97.1591 64.0258C97.0136 63.9842 96.8749 63.9426 96.7294 63.9079V63.8455C96.5561 63.8385 96.3828 63.8316 96.2165 63.8246L96.2442 63.7344C95.6897 63.6512 95.2252 63.3459 94.7677 63.0545C94.3519 62.7215 93.9845 62.333 93.6448 61.9306C93.5339 61.7502 93.43 61.5767 93.3191 61.4033C93.1943 61.1466 93.0764 60.9037 92.9725 60.6401C92.8477 60.3209 92.7784 59.9879 92.6675 59.6688C92.6536 59.4745 92.6398 59.2802 92.6259 59.086L92.5358 59.1137C92.5289 58.5518 92.3902 58.0106 92.3972 57.4555H92.3001C92.2862 54.049 92.2585 50.6494 92.2724 47.2428C91.198 47.2844 90.1236 47.2706 89.0631 47.2636C89.0977 45.1059 89.0284 42.9621 89.0492 40.8043C90.1236 40.7974 91.198 40.8321 92.2793 40.7696C92.3001 39.3682 92.2516 37.9667 92.2585 36.5722C92.4595 36.4611 92.6744 36.364 92.8893 36.2738L92.9101 36.2114C93.1943 36.1281 93.4369 35.9824 93.6864 35.8228C93.9914 35.6841 94.2964 35.5453 94.5875 35.3788C94.7192 35.3094 94.8509 35.2331 94.9757 35.1707C95.2252 35.0389 95.4678 34.9209 95.7243 34.796C95.9531 34.6434 96.2095 34.5185 96.466 34.4144C96.7086 34.2757 96.9512 34.1508 97.2007 34.0259C97.4433 33.8871 97.6929 33.7623 97.9493 33.6582C98.1157 33.5541 98.2821 33.457 98.4484 33.339H98.5732C98.8158 33.1864 99.0653 33.0615 99.3218 32.9366C99.5644 32.784 99.8139 32.6591 100.07 32.555V32.5204L100.029 32.5065Z" fill="black"></path>
    <path d="M44.4722 35.8714V35.7812C45.4565 35.7118 46.4547 35.7812 47.4389 35.7396L47.5291 35.6008L47.6192 35.7396C48.1737 35.7743 48.7144 35.7396 49.262 35.7396C49.8303 35.7535 50.3918 35.7396 50.9533 35.7535V35.6841H51.5771L51.5632 35.7535C52.0415 35.7049 52.5406 35.8228 52.9981 35.6702C53.7467 35.8228 54.5438 35.7049 55.3063 35.7882L55.2786 35.8853C55.7776 35.8853 56.2559 36.0449 56.7342 36.1836C56.9837 36.2808 57.2263 36.3571 57.4759 36.4542C57.6006 36.5097 57.7254 36.5722 57.8432 36.6277C57.9819 36.697 58.1136 36.7872 58.2453 36.8774C58.273 36.8774 58.3354 36.8913 58.3631 36.8913C58.7097 37.1411 59.0493 37.3978 59.3613 37.6892C59.3959 37.7169 59.4652 37.7724 59.493 37.8002C59.5276 37.8279 59.5969 37.8973 59.6247 37.9251C59.999 38.383 60.4218 38.8131 60.6921 39.3474C60.8377 39.5902 60.9625 39.833 61.0664 40.0967C61.1704 40.3603 61.2466 40.6239 61.2952 40.9015C61.316 40.9015 61.3576 40.8876 61.3853 40.8807C61.3853 41.0888 61.3922 41.2969 61.3991 41.5051H61.5031C61.5516 42.3029 61.5516 43.0939 61.5031 43.8848H61.3991C61.3922 44.086 61.3853 44.3011 61.3783 44.5092L61.309 44.4815C61.2605 44.7382 61.1843 44.988 61.1288 45.2447L61.0734 45.2585C60.9763 45.5361 60.8446 45.7928 60.7129 46.0633C60.5743 46.2576 60.4495 46.4519 60.3248 46.6531C59.9574 47.1179 59.5415 47.562 59.0355 47.888L59.0008 47.9435C58.7859 48.0615 58.5711 48.1864 58.37 48.3113C58.0235 48.4847 57.6769 48.6512 57.3026 48.7692L57.2818 48.9496C57.4204 48.9634 57.6908 48.9842 57.8225 48.9912L57.7878 49.0952C57.8848 49.1022 58.0581 49.1161 58.1482 49.123C58.3423 49.2132 58.5503 49.2965 58.7513 49.3658C59.4028 49.6364 60.0198 49.9972 60.5881 50.4273C61.0387 50.7881 61.3991 51.2391 61.7804 51.6693C61.7804 51.697 61.7942 51.7525 61.7942 51.7803C62.0784 52.1827 62.328 52.6059 62.4458 53.0846C62.4597 53.0846 62.4874 53.0777 62.5013 53.0707C62.6122 53.5425 62.7647 54.0004 62.8063 54.4861L62.8964 54.4445C62.931 55.3325 62.938 56.2136 62.8964 57.1017L62.827 57.0462C62.7924 57.5666 62.633 58.0592 62.5151 58.5726H62.4597C62.3696 58.8917 62.2379 59.197 62.0854 59.4884C61.8081 60.0573 61.4269 60.5568 61.0318 61.0425C60.8169 61.327 60.5466 61.549 60.2624 61.771C60.0821 61.9375 59.895 62.0901 59.6801 62.222L59.6593 62.2705C59.4791 62.3677 59.2989 62.4648 59.1256 62.5827C58.98 62.6729 58.8206 62.7354 58.6681 62.8048C58.5295 62.8533 58.3908 62.9088 58.2522 62.9574C58.0928 63.0406 57.9264 63.0684 57.7531 63.1031C57.3788 63.228 56.9837 63.3112 56.5886 63.332C56.5886 63.3529 56.5886 63.3945 56.5956 63.4222C56.2836 63.4292 55.9717 63.4292 55.6667 63.5194C55.3825 63.5541 55.0914 63.5679 54.8072 63.561L55.1538 63.6442C54.7102 63.6512 54.2666 63.6789 53.8299 63.6928C53.8507 63.7136 53.8853 63.7553 53.913 63.783C53.3516 63.7969 52.804 63.8385 52.2425 63.8316V63.9148C48.7421 63.901 45.2347 63.9148 41.7343 63.9148C40.2162 63.9773 38.6982 63.9287 37.1733 63.9495C37.1525 61.5212 37.1733 59.086 37.1594 56.6646C37.1456 56.3732 37.0624 56.0888 37.0693 55.8043V44.7104C37.0832 43.0522 37.0139 41.401 37.0416 39.7359C37.0416 39.5832 37.1456 39.4584 37.201 39.3265C37.3743 39.1253 37.5545 38.9172 37.7763 38.7576C37.9358 38.6327 38.0952 38.5009 38.2615 38.383C38.4348 38.272 38.5943 38.161 38.7537 38.0291L38.8577 38.0499C39.0102 37.9112 39.1834 37.8071 39.3567 37.7169C39.6132 37.599 39.8558 37.4741 40.1053 37.3492C40.2301 37.3006 40.3479 37.2382 40.4658 37.1896C40.5975 37.1341 40.7292 37.0786 40.8678 37.0301C41.0272 36.9676 41.1867 36.8982 41.353 36.8358C42.3928 36.4681 43.4325 36.0726 44.5277 35.8992H44.5138L44.4722 35.8714ZM42.8087 36.6068C42.5591 36.704 42.3165 36.7664 42.06 36.8566C41.9353 36.8982 41.8105 36.9537 41.6857 37.0023C41.4223 37.0994 41.1659 37.2035 40.9025 37.3076C40.6252 37.4463 40.3341 37.5782 40.0568 37.6961C39.8835 37.8002 39.7172 37.9042 39.5577 38.0222C39.53 38.0222 39.4607 38.0222 39.433 38.0153C39.2666 38.1471 39.1003 38.272 38.9339 38.3968H38.8161C38.4695 38.6744 38.1021 38.9311 37.7347 39.1947C37.7347 39.2363 37.7555 39.3196 37.7625 39.3543C38.012 39.3682 38.2546 39.389 38.5041 39.4098V39.4931C38.7953 39.5555 39.0587 39.6943 39.3013 39.8608C39.4607 39.9995 39.6271 40.1244 39.8211 40.2077C39.9043 40.0758 39.9806 39.944 40.0638 39.8191C40.2093 39.6041 40.3618 39.389 40.5212 39.1808C41.2213 38.2303 42.0739 37.3978 43.0443 36.7248C43.1483 36.6623 43.2384 36.5999 43.3355 36.5375C43.1622 36.5375 42.9819 36.5375 42.8156 36.6207V36.6068H42.8087ZM45.7269 41.4773C45.7269 42.4209 45.7199 43.3645 45.7546 44.308C45.7823 45.1198 45.6922 45.9315 45.817 46.7363C47.0508 46.7155 48.2846 46.7294 49.5046 46.7294C50.0868 46.7225 50.6968 46.7225 51.2444 46.5143C51.3137 46.5074 51.4454 46.4866 51.5216 46.4796C51.7157 46.3686 51.9098 46.2715 52.1178 46.1674C52.3118 45.987 52.499 45.7997 52.6584 45.5846C52.7139 45.4459 52.7832 45.314 52.8456 45.1822C52.9149 44.9949 52.9357 44.8006 52.9565 44.5994L53.0397 44.6411C53.0535 44.2595 53.0605 43.864 53.0397 43.4824L52.9565 43.5102C52.9357 43.3159 52.9149 43.1216 52.8456 42.9343C52.6792 42.5805 52.4228 42.2821 52.1316 42.0185C51.9098 41.8797 51.6741 41.7548 51.4038 41.7132L51.4454 41.6577C51.2513 41.63 51.0642 41.6022 50.8701 41.5467C50.3571 41.4634 49.8234 41.4565 49.3035 41.4843V41.4149H48.9223L48.9084 41.5814C48.7698 41.3039 48.4232 41.4565 48.1806 41.4079V41.4912C47.8618 41.4843 47.5291 41.4843 47.1963 41.4912V41.4079C46.9537 41.4218 46.7181 41.4288 46.4963 41.4981C46.4339 41.4704 46.2952 41.4079 46.2259 41.3802L46.2121 41.4981H45.7199V41.4773H45.7269ZM45.7546 53.8894C45.7684 55.1938 45.7061 56.505 45.8239 57.8024C47.3419 57.7955 48.8599 57.8233 50.3779 57.7886C50.7938 57.7192 51.2167 57.7192 51.6395 57.6706C51.8266 57.629 52.0069 57.5804 52.2009 57.5527C52.194 57.5388 52.1801 57.5041 52.1732 57.4902C52.4782 57.4764 52.7485 57.3307 53.0119 57.1988C53.2753 56.9976 53.511 56.7687 53.712 56.512C53.816 56.3177 53.913 56.1234 54.0309 55.9292C54.0447 55.8598 54.0655 55.721 54.0794 55.6447C54.2596 55.1868 54.1695 54.6803 54.1626 54.2016L54.0655 54.2363C54.0586 54.1461 54.0378 53.9657 54.0309 53.8825C53.9685 53.7715 53.9061 53.6605 53.8437 53.5494C53.6496 53.2303 53.3862 52.9528 53.102 52.7169L52.9911 52.7308C52.8317 52.6128 52.6654 52.5296 52.4851 52.4463C52.2703 52.3631 52.0277 52.3353 51.7989 52.3214L51.8128 52.2382C49.8165 52.037 47.8133 52.1896 45.81 52.1272C45.6922 52.7099 45.7684 53.2997 45.7546 53.8894Z" fill="black"></path>
    <path d="M134.472 59.3427C135.172 58.9888 136.024 58.9888 136.732 59.3427C136.926 59.4884 137.12 59.6341 137.321 59.7867C137.529 60.0365 137.702 60.314 137.834 60.6123C137.882 60.8135 137.938 61.0286 137.993 61.2298C137.993 61.542 137.938 61.8473 137.882 62.1595C137.813 62.3121 137.744 62.4648 137.681 62.6174C137.563 62.7839 137.459 62.9504 137.335 63.11C137.217 63.2071 137.106 63.3043 136.995 63.4084C136.773 63.5402 136.531 63.6512 136.274 63.7206L136.295 63.7899C135.823 63.8246 135.345 63.8246 134.874 63.7899L134.909 63.7206C134.645 63.6651 134.409 63.5402 134.174 63.4153L134.153 63.3667C134.007 63.2418 133.869 63.117 133.737 62.9921C133.377 62.5203 133.224 61.9514 133.196 61.3686C133.252 61.1535 133.287 60.9176 133.307 60.6956H133.37C133.515 60.1059 133.973 59.6826 134.458 59.3704V59.3566L134.472 59.3427ZM134.659 60.4597C134.645 61.1188 134.645 61.7779 134.659 62.437L135.019 62.4162C135.012 62.1664 135.012 61.9306 134.992 61.6877C135.04 61.6669 135.151 61.6253 135.2 61.5975H135.754C135.817 61.6253 135.941 61.6947 136.004 61.7224C136.024 61.7779 136.073 61.9028 136.108 61.9652C136.122 62.1179 136.135 62.2775 136.149 62.437L136.433 62.4509C136.42 62.222 136.413 61.993 136.399 61.764C136.038 61.4588 136.586 61.098 136.433 60.7164C136.329 60.6817 136.135 60.5915 136.031 60.5568L135.969 60.654L135.927 60.7164C135.927 60.7164 135.844 60.6748 135.817 60.6609C135.664 60.4042 135.345 60.4805 135.103 60.4528C135.116 60.543 135.137 60.7095 135.151 60.7927C135.463 60.7927 135.789 60.7511 136.101 60.8413C136.108 61.0147 136.087 61.1813 136.031 61.3478C135.671 61.4033 135.297 61.4171 134.943 61.3269C135.006 61.0425 135.054 60.7511 135.096 60.4736C134.985 60.4736 134.763 60.4736 134.652 60.4805V60.4666L134.659 60.4597Z" fill="black"></path>
    <path d="M124.851 67.8001H125.204V68.0429L125.322 68.0152C125.315 69.0281 125.308 70.048 125.322 71.061L125.218 70.9708C125.218 71.0748 125.204 71.2691 125.204 71.3732C124.941 71.6576 124.698 72.0531 124.269 72.0461C123.97 72.0461 123.645 72.0878 123.367 71.9421C123.056 71.8103 122.896 71.505 122.723 71.2413C122.716 70.1035 122.674 68.9518 122.737 67.8209C122.827 67.807 123 67.7862 123.083 67.7723C123.125 68.8547 123.125 69.937 123.083 71.0193C123.118 71.0193 123.201 71.0054 123.236 70.9985C123.222 71.3107 123.541 71.4703 123.763 71.6229C123.977 71.616 124.199 71.5813 124.414 71.5258C124.546 71.3523 124.678 71.1789 124.795 71.0054C124.802 69.937 124.761 68.8616 124.823 67.8001H124.837H124.851Z" fill="black"></path>
    <path d="M126.951 67.807C127.492 67.807 128.046 67.807 128.587 67.8001L128.573 67.8834C129.155 67.9944 129.446 68.5633 129.537 69.0975C129.481 69.3126 129.433 69.5416 129.336 69.7428V69.8607C129.301 69.9023 129.211 69.9995 129.162 70.048H129.1C128.906 70.166 128.642 70.4227 128.947 70.5961V70.7279C129.072 70.9222 129.176 71.1304 129.294 71.3246C129.412 71.5397 129.495 71.7825 129.467 72.0392C129.336 72.0392 129.197 72.0462 129.065 72.0531V71.8935H128.961C128.871 71.6091 128.739 71.3593 128.601 71.1026C128.49 70.8736 128.386 70.6447 128.282 70.4157C127.991 70.4157 127.7 70.4088 127.422 70.4088C127.422 70.943 127.422 71.4911 127.415 72.0254C127.256 72.0392 127.097 72.0531 126.944 72.06C126.916 70.6447 126.909 69.2293 126.944 67.814H126.951V67.807ZM127.436 68.2996C127.422 68.8269 127.429 69.3681 127.436 69.8954C127.804 69.8954 128.178 69.8954 128.545 69.8885C128.684 69.7566 128.823 69.6248 128.961 69.5069C128.961 69.1808 129.058 68.8061 128.809 68.5425C128.774 68.5078 128.705 68.4315 128.67 68.3968C128.268 68.2511 127.852 68.3066 127.436 68.2996Z" fill="black"></path>
    <path d="M76.6971 68.0221H77.1754C77.1754 69.4305 77.1893 70.839 77.1754 72.2543H76.7249C76.6625 70.8459 76.6971 69.4305 76.7041 68.0221H76.6971Z" fill="black"></path>
    <path d="M86.4291 67.9458C86.5677 67.9597 86.6994 67.9735 86.838 67.9874C87.4134 67.9458 87.9887 67.9042 88.5571 68.0152C88.5432 68.147 88.5293 68.2719 88.5155 68.3968C87.9818 68.4245 87.448 68.4176 86.9212 68.4176C86.9074 68.8339 86.9212 69.2432 86.9074 69.6595C87.4411 69.6456 87.9887 69.6387 88.5293 69.6595C88.5363 69.7913 88.5432 69.9162 88.5501 70.0411C88.0095 70.0549 87.4619 70.048 86.9212 70.0411C86.9004 70.7349 86.9143 71.4287 86.9212 72.1225H86.7687L86.7895 72.2474H86.54L86.5608 72.1225H86.4291C86.436 70.721 86.4291 69.3265 86.436 67.9319H86.4291V67.9458Z" fill="black"></path>
    <path d="M90.8306 68.1054C91.2604 67.8625 91.7525 67.8972 92.1892 68.1054C92.3902 68.2927 92.6398 68.4731 92.6814 68.7784H92.7645C92.7576 69.6734 92.8616 70.5822 92.7091 71.4634C92.5635 71.7339 92.3486 71.9421 92.0991 72.1225C91.905 72.1363 91.7109 72.1502 91.5099 72.1641L91.4961 72.3584C91.4129 72.0878 91.1217 72.171 90.9207 72.0739C90.6504 71.9282 90.3939 71.7062 90.3523 71.387L90.2553 71.4009C90.2414 71.0471 90.2553 70.7002 90.186 70.3463C90.1721 69.9648 90.1791 69.5762 90.1721 69.1946C90.2345 68.9379 90.3177 68.6951 90.4147 68.4453L90.8306 68.0984H90.8375L90.8306 68.1054ZM91.2396 68.4106V68.5563C91.2049 68.5425 91.1079 68.5216 91.0663 68.5147C90.9693 68.6257 90.8722 68.7228 90.7752 68.8339C90.5326 69.5485 90.692 70.2978 90.6504 71.0332L90.7474 71.0193C90.7544 71.1026 90.7682 71.2691 90.7752 71.3524C90.9485 71.4911 91.1148 71.6299 91.2881 71.7617H91.7317C91.9327 71.5744 92.3001 71.4217 92.2724 71.0887C92.2724 70.3186 92.3001 69.5485 92.2447 68.7853C92.0922 68.6673 91.9466 68.5425 91.7595 68.487V68.4037C91.5862 68.4037 91.4129 68.4037 91.2396 68.4106Z" fill="black"></path>
    <path d="M94.6153 67.925C95.1005 67.925 95.5788 67.925 96.064 67.9389C96.1818 68.0082 96.2927 68.0846 96.4036 68.1609H96.5423C96.6947 68.369 96.8542 68.5772 96.9581 68.8131C97.0067 69.153 96.9859 69.5069 96.9166 69.8538C96.7502 70.0341 96.5838 70.2076 96.3828 70.3464L96.3482 70.5961C96.4175 70.721 96.4937 70.839 96.563 70.9569C96.6809 71.2275 96.8126 71.4842 96.9789 71.734C96.9859 71.8727 96.9928 72.0115 96.9997 72.1502C96.875 72.1572 96.7571 72.1641 96.6393 72.178C96.5076 71.949 96.3898 71.7131 96.2719 71.4842C96.1264 71.165 95.96 70.8598 95.8144 70.5476C95.5094 70.5406 95.2045 70.5406 94.8995 70.5337C94.8925 71.054 94.8995 71.5813 94.8925 72.1017C94.7816 72.1849 94.7054 72.2821 94.6499 72.4069C94.6499 72.3445 94.6499 72.2196 94.643 72.1502L94.4697 72.178L94.539 72.0115L94.3935 72.067C94.4073 70.7418 94.3935 69.4097 94.3935 68.0915C94.4489 68.0568 94.5668 67.9805 94.6153 67.9389V67.925ZM94.8856 68.3968V70.0411C95.2738 70.0411 95.6827 70.0758 96.0709 69.9925C96.6324 69.6942 96.6462 68.9171 96.2026 68.5147C96.1749 68.5147 96.0986 68.5286 96.0709 68.5355C95.759 68.258 95.2738 68.4662 94.8995 68.3968H94.8925H94.8856Z" fill="black"></path>
    <path d="M102.06 67.9319C102.76 67.9805 103.55 67.7377 104.181 68.1817C104.763 68.7784 104.742 69.8815 104.014 70.3464C103.82 70.4366 103.606 70.4296 103.398 70.4088L103.495 70.5059C103.183 70.5059 102.871 70.499 102.559 70.499C102.559 71.0055 102.552 71.5189 102.559 72.0323H102.42L102.462 72.1711C102.323 72.1641 102.191 72.1502 102.06 72.1433C102.053 70.7418 102.046 69.3403 102.06 67.9389H102.053L102.06 67.9319ZM102.441 68.3829L102.455 68.6743L102.566 68.6465C102.545 69.1045 102.545 69.5693 102.566 70.0341H103.578V69.9301C103.703 69.8815 103.834 69.8191 103.959 69.7705L103.938 69.7081C104.195 69.4652 104.077 69.0906 104.084 68.7784H103.931V68.5494H103.703V68.4245C103.287 68.3621 102.871 68.3066 102.448 68.3829H102.441Z" fill="black"></path>
    <path d="M106.343 67.8903C106.461 67.8903 106.572 67.9042 106.69 67.9111C106.718 69.16 106.704 70.4157 106.697 71.6646C107.272 71.6715 107.834 71.6646 108.409 71.6784C108.409 71.8241 108.416 71.9698 108.423 72.1155C107.778 72.1433 107.134 72.1433 106.489 72.1294C106.42 72.0947 106.281 72.0253 106.205 71.9907C106.219 70.6863 106.205 69.3681 106.205 68.0637C106.24 68.0221 106.309 67.925 106.343 67.8834V67.8903Z" fill="black"></path>
    <path d="M110.045 67.9181C110.745 67.8903 111.459 67.9042 112.159 67.9181C112.166 68.0429 112.173 68.1748 112.187 68.2997C111.625 68.4523 111.064 68.2927 110.496 68.3898C110.502 68.7784 110.502 69.1738 110.509 69.5624C110.918 69.5624 111.32 69.5207 111.722 69.5901C111.778 69.7289 111.764 69.8746 111.778 70.0203C111.348 70.055 110.932 70.048 110.502 70.048C110.502 70.6031 110.502 71.1512 110.509 71.7062C111.05 71.6715 111.605 71.6368 112.145 71.6785C112.159 71.8311 112.166 71.9837 112.173 72.1364C111.459 72.1294 110.745 72.1502 110.031 72.1364C110.01 70.7349 110.01 69.3265 110.031 67.925L110.045 67.9181Z" fill="black"></path>
    <path d="M131.186 67.7932C131.879 67.7932 132.58 67.7793 133.28 67.8001C133.28 67.918 133.28 68.1539 133.273 68.2719H131.581C131.602 68.6604 131.512 69.0975 131.623 69.4722C132.004 69.5415 132.42 69.4652 132.822 69.5207C132.829 69.6248 132.843 69.8191 132.857 69.9231C132.482 69.9301 132.094 69.9301 131.72 69.9231L131.567 70.2284C131.602 70.2978 131.678 70.4435 131.72 70.5198L131.588 70.5059C131.588 70.7973 131.595 71.0818 131.588 71.3662C131.616 71.4287 131.678 71.5536 131.706 71.6229H133.287V72.0462C132.593 72.067 131.893 72.06 131.193 72.0462C131.193 70.6308 131.152 69.2085 131.193 67.7932H131.186Z" fill="black"></path>
    <path d="M63.6381 68.0429C64.4699 67.9944 65.3086 68.0152 66.1404 68.0291C66.1404 68.1886 66.1334 68.3482 66.1265 68.5147H65.1353C65.1561 69.7774 65.1699 71.0332 65.1284 72.2959C64.9759 72.2821 64.8164 72.2682 64.6639 72.2543C64.6431 71.0055 64.657 69.7636 64.6639 68.5147C64.3312 68.5147 63.9916 68.5147 63.6589 68.5078C63.6519 68.3482 63.645 68.1956 63.645 68.036L63.6381 68.0429Z" fill="black"></path>
    <path d="M67.8663 68.0291C68.4624 68.0707 69.1417 67.8626 69.6893 68.1609H69.8002C69.9458 68.3066 70.0983 68.4523 70.2508 68.6049L70.2716 68.7159C70.5142 69.1045 70.4587 69.5971 70.2716 69.9925C70.2716 70.0203 70.2577 70.0758 70.2508 70.0966C70.1399 70.2007 70.0428 70.2978 69.9319 70.4019C69.8765 70.4088 69.7517 70.4227 69.6893 70.4296C69.7309 70.5753 69.7725 70.728 69.8765 70.8459V70.9638C69.9597 71.1026 70.0498 71.2344 70.1329 71.3801C70.1884 71.4911 70.2577 71.5952 70.3201 71.7062C70.3894 71.8935 70.4033 72.0947 70.3825 72.2959C70.2577 72.289 70.1399 72.2751 70.022 72.2682C69.9597 72.1225 69.8903 71.9837 69.8349 71.838C69.7309 71.6785 69.6408 71.5119 69.5438 71.3454C69.4329 71.1026 69.322 70.8737 69.2249 70.6308C68.9338 70.6308 68.6357 70.6239 68.3446 70.6239C68.3515 71.165 68.3585 71.7201 68.3446 72.2613C68.1921 72.2751 68.0327 72.2821 67.8802 72.289C67.8386 70.8737 67.8455 69.4514 67.8802 68.036H67.8663V68.0291ZM68.3377 68.5147C68.3446 69.0281 68.3377 69.5554 68.3377 70.0688C68.7605 70.0688 69.1764 70.0688 69.6061 70.0411V69.9023H69.7309V69.7705H69.8626C69.925 69.3265 69.925 68.8547 69.5438 68.5494C69.1417 68.5078 68.7397 68.5147 68.3307 68.5147H68.3377Z" fill="black"></path>
    <path d="M73.3838 68.0221C73.5225 68.0291 73.6611 68.036 73.7997 68.0499C73.8205 68.2164 73.8344 68.3829 73.8552 68.5494L73.9522 68.4939C73.9661 68.5911 73.9869 68.7714 74.0007 68.8547C74.0631 69.0073 74.1255 69.16 74.1879 69.3057C74.3057 69.6179 74.4028 69.937 74.486 70.2631H74.5761C74.583 70.388 74.6038 70.6308 74.6107 70.7557L74.7078 70.7418C74.7494 70.9569 74.8117 71.172 74.8603 71.3801H74.9573C74.9781 71.6854 74.9989 71.9907 74.9989 72.2959C74.9018 72.2543 74.7078 72.1641 74.6177 72.1225C74.5345 71.7964 74.4236 71.4842 74.3196 71.1651C73.876 71.1651 73.4254 71.1651 72.9887 71.1581C72.9887 71.1859 72.9749 71.2552 72.9679 71.283C72.9264 71.2761 72.8362 71.2552 72.7877 71.2483C72.7461 71.4495 72.6907 71.6576 72.6283 71.8519C72.6283 71.8727 72.6283 71.9144 72.6352 71.9421C72.5936 72.0254 72.4966 72.1919 72.455 72.2751C72.3649 72.2751 72.1985 72.2682 72.1154 72.2613C72.1292 72.0184 72.1154 71.7687 72.2471 71.5605C72.2471 71.5397 72.2401 71.4981 72.2332 71.4773C72.3025 71.3038 72.3718 71.1304 72.4411 70.9569C72.4897 70.7835 72.5451 70.61 72.6144 70.4435L72.5936 70.2909C72.5936 70.2909 72.6907 70.277 72.7184 70.27C72.7253 70.1382 72.7392 69.8954 72.7461 69.7636L72.864 69.7913C72.8709 69.7011 72.8917 69.5277 72.8986 69.4444C73.0165 69.1877 73.1066 68.9241 73.1482 68.6466L73.2383 68.6604C73.2452 68.5702 73.2591 68.3968 73.266 68.3135C73.3007 68.2442 73.3769 68.0915 73.4116 68.0152V68.036L73.3838 68.0221ZM73.4185 69.5277L73.3076 69.5554C73.3076 69.5554 73.3353 69.6664 73.3422 69.7011C73.2175 70.0133 73.0719 70.3256 73.0442 70.6655C72.9957 70.6794 72.8917 70.7141 72.8432 70.728C73.266 70.7765 73.6888 70.7696 74.1186 70.7626C74.0562 70.5059 73.9799 70.2492 73.9314 69.9925C73.9106 70.0064 73.876 70.0272 73.8483 70.0411C73.8413 69.9509 73.8205 69.7705 73.8136 69.6873C73.7027 69.4375 73.6126 69.1947 73.5086 68.9449C73.4739 69.1322 73.4462 69.3195 73.4116 69.5207L73.4185 69.5277Z" fill="black"></path>
    <path d="M78.8251 68.0082C79.1024 67.925 79.2965 68.0776 79.4143 68.3274C79.6084 68.7645 79.8787 69.16 80.0867 69.5971C80.1907 69.7705 80.2946 69.937 80.4125 70.1035C80.4125 70.1313 80.4263 70.2007 80.4333 70.2284C80.5996 70.4851 80.7521 70.7418 80.9046 71.0055C81.0017 70.0133 80.9185 69.0143 80.9462 68.0221C81.071 68.0082 81.1957 67.9944 81.3205 67.9874C81.369 68.1886 81.4245 68.3968 81.4176 68.6049V71.9976C81.3898 72.06 81.3274 72.1988 81.3066 72.2751C81.2512 72.2751 81.1264 72.289 81.0571 72.289L81.0779 72.1502H80.9393L80.9531 72.0045L80.8492 72.0184C80.7521 71.7895 80.6481 71.5605 80.5234 71.3454C80.3709 71.1026 80.2323 70.8528 80.0936 70.6031C79.9896 70.4088 79.8926 70.2215 79.7956 70.0203H79.7332C79.6153 69.7289 79.4836 69.4514 79.3658 69.1808C79.1579 70.2007 79.4351 71.2691 79.2133 72.289H78.9291L78.9638 72.1502H78.8251C78.839 70.7696 78.8113 69.4028 78.839 68.0221H78.8113L78.8251 68.0082Z" fill="black"></path>
    <path d="M115.126 67.8834C115.535 67.7585 115.653 68.0915 115.666 68.4245L115.708 68.3829C115.812 68.7645 115.951 69.153 116.027 69.5415L116.11 69.4999C116.117 69.5901 116.138 69.7705 116.152 69.8537C116.27 70.1035 116.353 70.3672 116.408 70.6447L116.498 70.6308L116.519 71.0124L116.602 70.9916C116.706 71.3593 116.824 71.7409 116.782 72.1294C116.332 72.2335 116.353 71.8172 116.318 71.5119C116.283 71.5119 116.207 71.5189 116.166 71.5258C116.145 71.3593 116.124 71.1997 116.11 71.0332C115.653 71.0332 115.195 71.0332 114.738 71.0193V71.1511C114.696 71.1442 114.592 71.1303 114.544 71.1234C114.502 71.4079 114.433 71.6993 114.266 71.9421V72.1225C114.169 72.1225 113.975 72.1086 113.885 72.1017C113.871 71.9213 113.878 71.7409 113.885 71.5605C114.024 71.3107 114.086 71.0401 114.148 70.7626H114.204C114.294 70.381 114.433 70.0133 114.53 69.6317L114.613 69.6664C114.62 69.5762 114.641 69.3958 114.648 69.3126C114.696 69.1946 114.751 69.0836 114.793 68.9587C114.883 68.6535 114.98 68.3482 115.05 68.036H115.16L115.119 67.8903H115.14L115.126 67.8834ZM115.313 68.8269C115.264 69.0073 115.174 69.3611 115.126 69.5415C115.105 69.5415 115.063 69.5346 115.036 69.5277C115.022 69.708 115.008 69.8815 114.994 70.0619L114.911 70.0064C114.862 70.1798 114.8 70.3533 114.758 70.5337C115.105 70.7071 115.535 70.5684 115.909 70.603C115.826 70.3533 115.757 70.1104 115.715 69.8468L115.66 69.9023C115.604 69.5277 115.445 69.1669 115.313 68.813V68.8269Z" fill="black"></path>
    <path d="M118.536 68.4662C118.723 68.154 119.001 67.8972 119.375 67.8556L119.326 67.8001H119.895L119.853 67.8903C120.2 67.9181 120.616 67.9042 120.865 68.1886C120.955 68.5425 120.595 68.5286 120.366 68.5564L120.387 68.4245C119.916 68.3205 119.382 68.1748 118.994 68.5772C118.987 68.7714 118.966 68.9796 118.994 69.1738C119.146 69.3542 119.347 69.486 119.555 69.6179C119.818 69.7219 120.061 69.8399 120.311 69.9717C120.491 70.0758 120.671 70.1798 120.851 70.2909C121.156 70.7696 121.17 71.4842 120.678 71.845C120.207 72.3445 119.465 72.067 118.917 71.8797C118.765 71.7201 118.411 71.6507 118.501 71.3593C118.571 71.3038 118.709 71.1928 118.786 71.1442C118.89 71.2899 119.028 71.3871 119.202 71.4287C119.326 71.4842 119.451 71.5466 119.569 71.6021C119.874 71.6854 120.186 71.623 120.47 71.4911C120.484 71.4009 120.505 71.2205 120.519 71.1373L120.657 71.1512C120.609 70.8528 120.456 70.5823 120.207 70.4088H120.047C119.874 70.2978 119.687 70.2145 119.507 70.1243V70.0758C119.361 70.0272 119.222 69.9786 119.084 69.9301C118.557 69.6456 118.384 69.0212 118.55 68.4731H118.543L118.536 68.4662Z" fill="black"></path>
  </g>
  <defs>
    <clipPath id="clip0_10_27422">
      <rect width="101" height="40.4" fill="white" transform="translate(37 32)"></rect>
    </clipPath>
  </defs>
</svg>
