<svg preserveAspectRatio="none" width="100%" height="100%" overflow="visible" style="display: block;" viewBox="0 0 25.0833 25.0833" fill="none" xmlns="http://www.w3.org/2000/svg">
<g id="Group">
<path id="Vector" d="M19.0984 9.76514H12.9734C12.4951 9.76514 12.0984 9.36847 12.0984 8.89014C12.0984 8.41181 12.4951 8.01514 12.9734 8.01514H19.0984C19.5768 8.01514 19.9734 8.41181 19.9734 8.89014C19.9734 9.36847 19.5884 9.76514 19.0984 9.76514Z" fill="var(--fill-0, #15301F)"/>
<path id="Vector_2" d="M6.84783 10.6518C6.62616 10.6518 6.4045 10.5701 6.2295 10.3951L5.3545 9.52008C5.01616 9.18175 5.01616 8.62175 5.3545 8.28341C5.69283 7.94508 6.25283 7.94508 6.59116 8.28341L6.84783 8.54008L8.8545 6.53341C9.19283 6.19508 9.75283 6.19508 10.0912 6.53341C10.4295 6.87175 10.4295 7.43175 10.0912 7.77008L7.46616 10.3951C7.30283 10.5584 7.08116 10.6518 6.84783 10.6518Z" fill="var(--fill-0, #15301F)"/>
<path id="Vector_3" d="M19.0984 17.9318H12.9734C12.4951 17.9318 12.0984 17.5351 12.0984 17.0568C12.0984 16.5785 12.4951 16.1818 12.9734 16.1818H19.0984C19.5768 16.1818 19.9734 16.5785 19.9734 17.0568C19.9734 17.5351 19.5884 17.9318 19.0984 17.9318Z" fill="var(--fill-0, #15301F)"/>
<path id="Vector_4" d="M6.84783 18.8185C6.62616 18.8185 6.4045 18.7368 6.2295 18.5618L5.3545 17.6868C5.01616 17.3485 5.01616 16.7885 5.3545 16.4501C5.69283 16.1118 6.25283 16.1118 6.59116 16.4501L6.84783 16.7068L8.8545 14.7001C9.19283 14.3618 9.75283 14.3618 10.0912 14.7001C10.4295 15.0385 10.4295 15.5985 10.0912 15.9368L7.46616 18.5618C7.30283 18.7251 7.08116 18.8185 6.84783 18.8185Z" fill="var(--fill-0, #15301F)"/>
<path id="Vector_5" d="M16.0417 25.0833H9.04167C2.70667 25.0833 0 22.3767 0 16.0417V9.04167C0 2.70667 2.70667 0 9.04167 0H16.0417C22.3767 0 25.0833 2.70667 25.0833 9.04167V16.0417C25.0833 22.3767 22.3767 25.0833 16.0417 25.0833ZM9.04167 1.75C3.66333 1.75 1.75 3.66333 1.75 9.04167V16.0417C1.75 21.42 3.66333 23.3333 9.04167 23.3333H16.0417C21.42 23.3333 23.3333 21.42 23.3333 16.0417V9.04167C23.3333 3.66333 21.42 1.75 16.0417 1.75H9.04167Z" fill="var(--fill-0, #15301F)"/>
</g>
</svg>
