<?xml version="1.0" encoding="UTF-8"?>
<svg xmlns="http://www.w3.org/2000/svg" width="176" height="108" viewBox="0 0 176 108" fill="none">
  <g style="mix-blend-mode:luminosity">
    <rect x="0.5" y="0.5" width="175" height="107" rx="9.5" stroke="#E3E3E3"></rect>
  </g>
  <g clip-path="url(#clip0_5_16313)">
    <path d="M108.11 59.0689C109.769 58.9487 111.118 57.7349 111.118 56.0805C111.118 55.4556 110.9 54.9068 110.609 54.398C108.61 50.925 102.828 42.06 100.001 37.8578C95.8621 31.6968 91.9654 26.5933 89.8252 24.37L89.4295 23.9774C88.8843 23.3766 88.0848 23 87.1924 23C86.3 23 85.557 23.4126 84.9593 23.9734C82.9241 25.9243 78.8013 31.2841 74.3836 37.8578C71.561 42.06 65.7704 50.925 63.7756 54.398C63.4889 54.9028 63.2628 55.4556 63.2628 56.0805C63.2628 57.7349 64.6276 58.8686 66.2832 59.0689C68.3467 59.3293 84.0709 59.4054 87.2166 59.3693C91.0407 59.3293 105.816 59.2452 108.118 59.0689" fill="#009CA6"></path>
    <path d="M122.146 66.3756C121.766 65.5023 120.741 64.7933 119.86 64.7933H117.615C116.735 64.7933 115.713 65.5023 115.33 66.3756L107.476 82.996H110.742C111.623 82.996 112.644 82.287 113.028 81.4137L118.463 69.9128C118.508 69.8047 118.613 69.7325 118.738 69.7325C118.863 69.7325 118.968 69.8087 119.012 69.9128L120.83 73.7544C120.83 73.7544 120.842 73.7905 120.842 73.8105C120.842 73.8947 120.773 73.9628 120.688 73.9628H119.929C118.972 73.9387 117.89 74.5636 117.518 75.3608L116.133 78.3211L122.784 78.3091C122.913 78.3091 123.022 78.3892 123.071 78.4974L124.448 81.4137C124.827 82.287 125.853 82.996 126.733 82.996H130L122.146 66.3756Z" fill="#EF3340"></path>
    <path d="M109.067 69.1878H110.335C111.094 69.1878 111.712 68.5749 111.712 67.8218V64.7893H97.017C96.2578 64.7893 95.64 65.4022 95.64 66.1553V69.1878H101.188C101.338 69.1878 101.459 69.3079 101.459 69.4562V81.63C101.459 82.3831 102.077 82.996 102.836 82.996H105.893V69.4602C105.893 69.3119 106.014 69.1918 106.163 69.1918H109.067V69.1878Z" fill="#EF3340"></path>
    <path d="M89.7081 64.7933H87.4629C86.5826 64.7933 85.561 65.5023 85.1774 66.3756L79.6977 77.9766H79.6937C79.4837 78.4053 79.0436 78.7057 78.5267 78.7057H73.3741C72.6473 78.7057 72.0496 78.1128 72.0496 77.3918V76.2421C72.0577 76.158 72.1223 76.0939 72.2071 76.0939V76.0819L74.9207 76.0739C75.8818 76.1019 76.9599 75.481 77.3314 74.6918L78.7286 71.7315H72.2071C72.1183 71.7315 72.0456 71.6594 72.0456 71.5712V70.4135C72.0456 69.6885 72.6392 69.0996 73.3701 69.0996H78.2158C79.1768 69.1317 80.255 68.4707 80.6265 67.6775L81.9792 64.7973H73.3741C70.2567 64.7973 67.7289 67.309 67.7289 70.4055V77.3918C67.7289 80.4883 70.2567 83 73.3741 83H80.5901C81.4704 83 82.4921 82.291 82.8757 81.4177L88.3109 69.9168C88.3554 69.8087 88.4603 69.7366 88.5855 69.7366C88.7107 69.7366 88.8157 69.8127 88.8601 69.9168L94.2954 81.4177C94.6749 82.291 95.7006 83 96.5809 83H99.8477L91.9937 66.3796C91.6141 65.5063 90.5884 64.7973 89.7081 64.7973V64.7933Z" fill="#EF3340"></path>
    <path d="M66.5901 78.7017L60.7228 66.3756C60.3432 65.5023 59.3175 64.7933 58.4372 64.7933H55.1704L61.2235 77.6962V77.7123C61.272 77.8044 61.3002 77.9085 61.3002 78.0207C61.3002 78.4013 60.9893 78.7057 60.6097 78.7057C60.5895 78.7057 60.5653 78.7057 60.5451 78.6977H60.533L56.4222 78.7057L52.3155 78.6977H52.3075C52.2873 78.6977 52.2711 78.6977 52.2509 78.6977C51.8673 78.6977 51.5604 78.3892 51.5604 78.0127C51.5604 77.9125 51.5846 77.8164 51.621 77.7323C51.621 77.7203 51.621 77.7042 51.6291 77.6922L51.6896 77.556L54.2013 72.2082C54.2013 72.2082 54.379 71.8396 54.383 71.4391C54.383 71.1707 54.2013 70.6699 54.2013 70.6699L52.158 66.3155C52.158 66.3155 52.1379 66.3516 52.1298 66.3716C52.1298 66.3716 46.2544 78.7217 46.2503 78.7338C46.0969 79.0983 46.0081 79.4989 46.0081 79.9195C46.0081 81.1333 46.7188 82.1788 47.7485 82.6795C47.7646 82.6875 47.8131 82.7116 47.8252 82.7156C48.1725 82.8718 48.552 82.964 48.9518 82.984C48.976 82.984 49.1093 82.992 49.1133 82.992L56.4303 82.964L63.7473 82.992C63.7473 82.992 63.8806 82.992 63.9088 82.984C64.3086 82.964 64.6882 82.8718 65.0355 82.7156C65.0435 82.7156 65.096 82.6875 65.1122 82.6795C66.1419 82.1788 66.8526 81.1333 66.8526 79.9195C66.8526 79.4869 66.7597 79.0742 66.5942 78.6977H66.5901V78.7017Z" fill="#EF3340"></path>
    <path d="M58.0335 45.1124C60.638 44.7399 62.7742 43.43 64.4298 41.6033C65.7139 40.1892 66.7557 38.4667 67.959 36.628H67.951L67.959 36.62H59.9879L46 36.628V45.2286H55.5299C57.5489 45.2206 57.8396 45.1365 58.0254 45.1124H58.0335Z" fill="#EF3340"></path>
    <path d="M49.1941 58.1956C51.7987 57.8231 53.9348 56.5131 55.5904 54.6865C56.8745 53.2724 57.9163 51.5499 59.1197 49.7112H59.1116L59.1197 49.7032H51.1526L46.004 49.7112V58.3118H46.6986C48.7176 58.3038 49.0084 58.2196 49.1941 58.1956Z" fill="#EF3340"></path>
    <path d="M67.4341 32.0212C70.0387 31.6487 72.1748 30.3388 73.8304 28.5121C75.1145 27.098 76.1563 25.3755 77.3597 23.5368H77.3516L77.3597 23.5288H69.3885L46 23.5368V32.1374H64.9345C66.9536 32.1294 67.2443 32.0453 67.4301 32.0212H67.4341Z" fill="#EF3340"></path>
    <path d="M128.417 36.632L114.429 36.624H106.458L106.466 36.632H106.458C107.661 38.4707 108.707 40.1932 109.987 41.6073C111.643 43.434 113.779 44.7439 116.384 45.1164C116.569 45.1445 116.864 45.2286 118.879 45.2326H128.409V36.632H128.417Z" fill="#EF3340"></path>
    <path d="M118.827 54.6865C120.482 56.5131 122.618 57.8231 125.223 58.1956C125.409 58.2237 125.703 58.3078 127.718 58.3118H128.413V49.7112L123.264 49.7032H115.293L115.301 49.7112H115.293C116.497 51.5499 117.543 53.2724 118.823 54.6865H118.827Z" fill="#EF3340"></path>
    <path d="M100.587 28.5121C102.242 30.3388 104.378 31.6487 106.983 32.0212C107.169 32.0493 107.463 32.1334 109.478 32.1374H128.413V23.5368L105.025 23.5288H97.0533L97.0614 23.5368H97.0533C98.2567 25.3755 99.3026 27.098 100.583 28.5121H100.587Z" fill="#EF3340"></path>
  </g>
  <defs>
    <clipPath id="clip0_5_16313">
      <rect width="84" height="60" fill="white" transform="translate(46 23)"></rect>
    </clipPath>
  </defs>
</svg>
