<svg preserveAspectRatio="none" width="100%" height="100%" overflow="visible" style="display: block;" viewBox="0 0 15.9926 23.1005" fill="none" xmlns="http://www.w3.org/2000/svg">
<g id="Group">
<path id="Vector" fill-rule="evenodd" clip-rule="evenodd" d="M4.4424 1.77696C3.73548 1.77696 3.05751 2.05778 2.55763 2.55765C2.05781 3.05752 1.77696 3.7355 1.77696 4.44241C1.77696 5.14933 2.05781 5.82731 2.55763 6.32713C3.05751 6.82701 3.73548 7.10786 4.4424 7.10786H7.10784V1.77696H4.4424ZM1.30113 1.30115C2.13429 0.468038 3.26421 5.14236e-08 4.4424 5.14236e-08H7.99632C8.48699 5.14236e-08 8.8848 0.397789 8.8848 0.88848V7.99634C8.8848 8.487 8.48699 8.88482 7.99632 8.88482H4.4424C3.26421 8.88482 2.13429 8.41678 1.30113 7.58368C0.468038 6.75053 1.58946e-07 5.62061 1.58946e-07 4.44241C1.58946e-07 3.26422 0.468038 2.13426 1.30113 1.30115Z" fill="var(--fill-0, #15301F)"/>
<path id="Vector_2" fill-rule="evenodd" clip-rule="evenodd" d="M7.10784 0.88848C7.10784 0.397789 7.50565 0 7.99632 0H11.5502C12.1337 0 12.7113 0.114908 13.2503 0.338157C13.7893 0.561412 14.279 0.888634 14.6915 1.30115C15.104 1.71367 15.4312 2.2034 15.6545 2.74239C15.8777 3.28133 15.9926 3.859 15.9926 4.44241C15.9926 5.02577 15.8777 5.60344 15.6545 6.14244C15.4312 6.68144 15.104 7.17114 14.6915 7.58368C14.279 7.99617 13.7893 8.32341 13.2503 8.54665C12.7113 8.7699 12.1337 8.88482 11.5502 8.88482H7.99632C7.50565 8.88482 7.10784 8.487 7.10784 7.99634V0.88848ZM8.8848 1.77696V7.10786H11.5502C11.9003 7.10786 12.2469 7.03888 12.5702 6.90497C12.8936 6.771 13.1875 6.57465 13.435 6.32713C13.6825 6.07966 13.8788 5.7858 14.0128 5.46242C14.1468 5.13904 14.2157 4.79246 14.2157 4.44241C14.2157 4.09237 14.1468 3.74579 14.0128 3.42241C13.8788 3.09897 13.6825 2.80516 13.435 2.55765C13.1875 2.31015 12.8936 2.11381 12.5702 1.97986C12.2469 1.84591 11.9003 1.77696 11.5502 1.77696H8.8848Z" fill="var(--fill-0, #15301F)"/>
<path id="Vector_3" fill-rule="evenodd" clip-rule="evenodd" d="M11.5502 8.88482C11.2002 8.88482 10.8536 8.95373 10.5302 9.0877C10.2069 9.22167 9.913 9.41796 9.66547 9.66548C9.41801 9.91301 9.22166 10.2068 9.08769 10.5303C8.95372 10.8536 8.8848 11.2002 8.8848 11.5503C8.8848 11.9003 8.95372 12.2469 9.08769 12.5703C9.22166 12.8936 9.41801 13.1875 9.66547 13.435C9.913 13.6825 10.2069 13.8788 10.5302 14.0128C10.8536 14.1467 11.2002 14.2157 11.5502 14.2157C11.9003 14.2157 12.2469 14.1467 12.5702 14.0128C12.8936 13.8788 13.1875 13.6825 13.435 13.435C13.6825 13.1875 13.8788 12.8936 14.0128 12.5703C14.1468 12.2469 14.2157 11.9003 14.2157 11.5503C14.2157 11.2002 14.1468 10.8536 14.0128 10.5303C13.8788 10.2068 13.6825 9.91301 13.435 9.66548C13.1875 9.41796 12.8936 9.22167 12.5702 9.0877C12.2469 8.95373 11.9003 8.88482 11.5502 8.88482ZM9.85022 7.44602C10.3892 7.22277 10.9668 7.10785 11.5502 7.10785C12.1337 7.10785 12.7113 7.22277 13.2503 7.44602C13.7893 7.66926 14.279 7.99651 14.6915 8.40899C15.104 8.82153 15.4312 9.31123 15.6545 9.85023C15.8777 10.3892 15.9926 10.9668 15.9926 11.5503C15.9926 12.1336 15.8777 12.7113 15.6545 13.2503C15.4312 13.7893 15.104 14.279 14.6915 14.6915C14.279 15.104 13.7893 15.4313 13.2503 15.6545C12.7113 15.8777 12.1337 15.9927 11.5502 15.9927C10.9668 15.9927 10.3892 15.8777 9.85022 15.6545C9.31122 15.4313 8.82152 15.104 8.40898 14.6915C7.99649 14.279 7.66925 13.7893 7.44601 13.2503C7.22276 12.7113 7.10784 12.1336 7.10784 11.5503C7.10784 10.9668 7.22276 10.3892 7.44601 9.85023C7.66925 9.31123 7.99649 8.82153 8.40898 8.40899C8.82152 7.99651 9.31122 7.66926 9.85022 7.44602Z" fill="var(--fill-0, #15301F)"/>
<path id="Vector_4" fill-rule="evenodd" clip-rule="evenodd" d="M4.4424 15.9927C3.73548 15.9927 3.05751 16.2734 2.55763 16.7733C2.05781 17.2732 1.77696 17.9512 1.77696 18.6581C1.77696 19.365 2.05781 20.043 2.55763 20.5428C3.05751 21.0427 3.73548 21.3235 4.4424 21.3235C5.14932 21.3235 5.82729 21.0427 6.32717 20.5428C6.827 20.043 7.10784 19.365 7.10784 18.6581V15.9927H4.4424ZM1.30113 15.5168C2.13429 14.6837 3.26421 14.2157 4.4424 14.2157H7.99632C8.48699 14.2157 8.8848 14.6135 8.8848 15.1042V18.6581C8.8848 19.8363 8.41677 20.9662 7.58367 21.7994C6.75052 22.6325 5.6206 23.1005 4.4424 23.1005C3.26421 23.1005 2.13429 22.6325 1.30113 21.7994C0.468037 20.9662 0 19.8363 0 18.6581C0 17.4799 0.468037 16.3499 1.30113 15.5168Z" fill="var(--fill-0, #15301F)"/>
<path id="Vector_5" fill-rule="evenodd" clip-rule="evenodd" d="M4.4424 8.88482C3.73548 8.88482 3.05751 9.1656 2.55763 9.66548C2.05781 10.1654 1.77696 10.8433 1.77696 11.5503C1.77696 12.2572 2.05781 12.9351 2.55763 13.435C3.05751 13.9349 3.73548 14.2157 4.4424 14.2157H7.10784V8.88482H4.4424ZM1.30113 8.40899C2.13429 7.57589 3.26421 7.10785 4.4424 7.10785H7.99632C8.48699 7.10785 8.8848 7.50561 8.8848 7.99634V15.1042C8.8848 15.5948 8.48699 15.9927 7.99632 15.9927H4.4424C3.26421 15.9927 2.13429 15.5246 1.30113 14.6915C0.468037 13.8584 0 12.7285 0 11.5503C0 10.3721 0.468037 9.24208 1.30113 8.40899Z" fill="var(--fill-0, #15301F)"/>
</g>
</svg>
