<?xml version="1.0" encoding="UTF-8"?>
<svg xmlns="http://www.w3.org/2000/svg" width="175" height="108" viewBox="0 0 175 108" fill="none">
  <g style="mix-blend-mode:luminosity">
    <rect x="0.5" y="0.5" width="174" height="107" rx="9.5" stroke="#E3E3E3"></rect>
  </g>
  <g clip-path="url(#clip0_12_28874)">
    <path d="M121.449 34.3584C121.697 34.1635 121.989 33.9308 122.332 34.0126C122.891 34.132 123.342 34.5282 123.684 34.9746C123.545 35.333 123.773 35.6851 123.735 36.0436C123.786 36.4648 123.424 36.7415 123.119 36.9553C122.535 37.3703 122.109 37.9488 121.678 38.5021C121.347 38.9737 120.96 39.4076 120.636 39.8855C119.925 40.967 119.359 42.1365 118.718 43.2558C118.597 43.4821 118.369 43.6267 118.121 43.7022C118.242 43.9286 118.394 44.1612 118.337 44.4253C118.191 44.4442 118.057 44.3876 117.93 44.3247C117.702 44.463 117.645 44.7397 117.53 44.9598C117.314 45.4817 117.009 45.9658 116.825 46.5003C116.724 46.821 116.47 47.0662 116.355 47.3806C116.247 47.6447 116.095 47.8774 115.949 48.1163C115.771 48.393 115.714 48.7199 115.606 49.028C115.441 49.5499 115.155 50.0341 114.996 50.5623C114.641 51.889 114.221 53.2095 114.018 54.5677C113.745 55.9573 114.209 57.3532 114.228 58.7428C114.069 58.7302 113.91 58.7428 113.758 58.7177C113.637 58.5668 113.542 58.3844 113.37 58.2901C113.084 58.114 112.748 57.9883 112.564 57.6927C112.24 57.2023 111.846 56.7055 111.821 56.0893C111.776 55.448 111.802 54.8003 111.852 54.1589C111.865 54.0269 111.852 53.8949 111.814 53.7691C111.687 53.7943 111.567 53.8508 111.471 53.9389C111.268 54.1338 110.995 54.2218 110.766 54.3727C110.138 54.7374 109.471 55.1336 108.728 55.1587C108.086 55.0958 107.464 54.8255 107 54.3916C106.498 53.9011 106.251 53.2158 106.194 52.5367C105.698 53.0146 105.196 53.4924 104.631 53.8886C104.041 54.3036 103.583 54.8632 103.043 55.3285C102.758 55.58 102.472 55.8441 102.116 55.995C101.754 56.1082 101.411 55.8944 101.157 55.668C100.916 55.4354 100.713 55.1587 100.579 54.8506C100.458 54.4482 100.408 54.0269 100.293 53.6245C99.4614 54.4859 98.7564 55.4668 97.8291 56.2277C97.2131 56.7433 96.5144 57.284 95.6761 57.3155C95.2887 57.3532 94.9965 57.064 94.7107 56.8502C93.9422 56.2277 93.485 55.2216 93.6056 54.2281C93.7708 52.7693 94.4376 51.4426 95.0346 50.1221C95.4157 49.3236 95.7904 48.5061 96.3176 47.7893C96.5589 47.4812 96.9209 47.1605 97.3528 47.2611C97.664 47.3429 97.9625 47.5127 98.1848 47.7516C98.2356 47.8836 98.1975 48.0408 98.2102 48.1855C98.3626 48.1855 98.604 48.0157 98.6611 48.2358C98.4325 48.7639 98.0832 49.2292 97.7847 49.7197C97.2067 50.6252 96.7177 51.5809 96.2477 52.5493C95.981 53.1403 95.6888 53.7251 95.5872 54.3664C95.5681 54.5299 95.5491 54.8506 95.7968 54.8129C96.1651 54.7186 96.4573 54.4545 96.7431 54.2218C97.8799 53.2472 98.8072 52.0714 99.6582 50.8578C100.008 50.2982 100.414 49.7826 100.776 49.2355C101.227 48.5879 101.665 47.9339 102.122 47.2926C102.326 47.0159 102.51 46.7015 102.821 46.5317C103.094 46.3745 103.482 46.4311 103.659 46.6952C103.786 46.865 103.863 47.1542 104.142 47.0851C104.104 47.3052 103.971 47.5378 104.06 47.7579C104.142 47.8396 104.237 47.9088 104.326 47.9842C104.326 48.2861 104.11 48.5187 103.964 48.7639C103.774 49.0406 103.685 49.3676 103.456 49.6254C103.215 49.9272 102.935 50.229 102.859 50.6189C102.821 50.7446 102.923 50.8578 102.98 50.971C102.872 51.1911 102.675 51.3608 102.573 51.5809C102.465 51.801 102.478 52.0525 102.434 52.2914C102.383 52.4298 102.237 52.5304 102.23 52.6876C102.218 52.8385 102.192 53.0397 102.332 53.1403C102.548 53.178 102.739 53.0397 102.91 52.9265C104.453 51.6878 105.825 50.2605 107.273 48.9274C107.819 47.8899 108.416 46.8587 109.223 45.991C109.706 45.4754 110.271 45.0038 110.951 44.7837C111.497 44.6139 112.075 44.7837 112.557 45.0541C113.199 45.337 113.637 45.903 114.12 46.3808C114.418 45.7646 114.641 45.117 114.952 44.5008C115.307 43.7839 115.72 43.1049 116.101 42.4069C116.73 41.1808 117.448 39.9986 118.127 38.7977C118.673 37.7727 119.334 36.8107 120.045 35.8926C120.484 35.3519 120.922 34.8111 121.449 34.3521H121.468L121.449 34.3584ZM110.982 48.0031C110.163 49.0783 109.414 50.229 108.886 51.474C108.778 51.8324 108.556 52.2852 108.848 52.6184C109.229 52.631 109.585 52.4675 109.909 52.2852C110.525 51.933 110.995 51.3923 111.42 50.8389C111.903 50.2416 112.322 49.5939 112.697 48.9149C112.894 48.5502 113.104 48.1729 113.192 47.7642C113.116 47.2863 112.545 47.0222 112.094 47.0914C111.592 47.192 111.281 47.6321 110.982 47.9968V48.0031Z" fill="black"></path>
    <path d="M131.77 34.1886C131.973 34.0566 132.22 33.956 132.468 34.0252C132.989 34.1761 133.395 34.5596 133.719 34.9746C133.853 35.1004 133.719 35.2827 133.757 35.4399C133.815 35.7983 133.935 36.1756 133.808 36.5277C133.611 36.8547 133.256 37.0245 132.97 37.2508C132.354 37.7539 131.903 38.4141 131.408 39.024C130.334 40.2439 129.68 41.7404 128.854 43.1112C128.734 43.3249 128.505 43.4318 128.283 43.501C128.384 43.7337 128.6 44.004 128.461 44.2556C128.315 44.2367 128.181 44.1612 128.048 44.1172C127.806 44.3562 127.718 44.6831 127.571 44.9724C127.362 45.3937 127.133 45.8024 126.974 46.2488C126.879 46.5506 126.625 46.7644 126.524 47.0662C126.428 47.3178 126.282 47.5315 126.136 47.7453C125.946 48.0157 125.888 48.3364 125.78 48.6445C125.609 49.1915 125.304 49.6883 125.152 50.2416C124.733 51.801 124.199 53.3604 124.11 54.9827C124.097 56.1271 124.364 57.24 124.396 58.3844C124.282 58.3718 124.167 58.3656 124.116 58.485C123.646 59.2018 122.999 59.8495 122.827 60.7172C123.164 60.4028 123.373 59.9878 123.64 59.6231C124.409 58.4033 125.317 57.2652 126.352 56.2528C126.155 56.6678 125.838 57.0074 125.59 57.3972C124.764 58.5731 123.958 59.774 123.386 61.0882C123.011 61.9308 122.7 62.7985 122.44 63.6851C122.281 64.1944 122.192 64.7415 122.325 65.2634C122.383 65.4457 122.459 65.6406 122.624 65.7475C122.98 65.8984 123.367 65.7601 123.691 65.6029C123.913 65.5023 124.072 65.3011 124.294 65.2005C124.764 64.993 125.145 64.6346 125.526 64.295C127.375 62.459 128.842 60.2897 130.118 58.0386C130.798 56.869 131.325 55.624 131.897 54.3979C132.182 53.7565 132.481 53.1215 132.76 52.4801C131.674 53.2284 130.569 53.9703 129.394 54.574C129.058 54.7312 128.677 54.945 128.302 54.8003C127.813 54.6054 127.464 54.1904 127.178 53.7628C126.828 53.2346 126.53 52.6184 126.581 51.9708C126.657 51.4552 126.86 50.9647 127.051 50.4806C127.508 49.3802 128.029 48.3049 128.588 47.2549C128.975 46.5506 129.369 45.8401 129.909 45.2365C130.112 45.0227 130.347 44.7586 130.664 44.7649C130.982 44.746 131.35 44.746 131.592 44.9912C131.751 45.1296 131.655 45.3559 131.712 45.5383C131.909 45.6452 132.132 45.7081 132.309 45.8527C132.348 46.1482 132.157 46.3997 132.011 46.6449C131.738 47.0599 131.496 47.4875 131.287 47.934C131.071 48.3993 130.76 48.8206 130.398 49.1915C130.245 49.3487 130.08 49.5185 130.061 49.7512C130.15 49.7009 130.239 49.6443 130.334 49.594C130.302 49.8455 130.182 50.0781 130.017 50.2668C129.782 50.5371 129.61 50.8578 129.521 51.1911C130.55 50.7761 131.42 50.0656 132.24 49.3362C133.23 48.4244 134.177 47.4561 134.971 46.3746C135.307 45.947 135.669 45.5068 136.19 45.3056C136.622 45.2679 137.104 45.3308 137.435 45.6263C137.632 45.8212 137.74 46.079 137.898 46.2991C138.032 46.4563 138 46.6701 137.936 46.8524C137.524 48.1666 136.844 49.3802 136.342 50.6692C136.069 51.3546 135.783 52.0337 135.434 52.6813C135.256 53.0083 135.072 53.3353 134.812 53.5993C135.002 53.9012 134.812 54.2721 134.659 54.5551C134.564 54.75 134.335 54.794 134.139 54.8255C134.272 55.1399 134.221 55.5234 133.961 55.7624C133.821 55.9573 133.503 55.8944 133.421 56.1397C133.542 56.1648 133.656 56.1837 133.783 56.2025C133.738 56.4729 133.573 56.6993 133.459 56.9445C133.129 57.6425 132.805 58.3467 132.341 58.9692C132.024 59.359 131.763 59.7992 131.573 60.2645C131.389 60.6795 131.281 61.1385 130.969 61.4844C130.861 61.5284 130.747 61.5284 130.639 61.5598C130.518 61.8176 130.499 62.1069 130.372 62.3647C130.131 62.8866 129.858 63.4273 129.426 63.8234C129.318 63.9303 129.166 63.9492 129.032 63.9995C129.096 64.1881 129.102 64.3894 129 64.5654C128.899 64.4711 128.804 64.3768 128.702 64.2887C128.658 64.4459 128.645 64.6094 128.607 64.7666C128.499 64.9804 128.359 65.1816 128.219 65.3703C128.137 65.5023 127.972 65.5149 127.845 65.5841C127.66 65.7538 127.591 66.0053 127.444 66.194C127.406 66.15 127.343 66.0494 127.317 65.9991C127.127 66.2569 126.955 66.5335 126.695 66.7284C126.511 66.8542 126.365 67.0177 126.231 67.1938C126.117 67.3384 125.901 67.3384 125.78 67.4704C125.641 67.6213 125.418 67.5962 125.234 67.6653C124.853 67.7722 124.555 68.0741 124.161 68.1621C123.634 68.2816 123.062 68.3381 122.541 68.1244C121.919 67.8728 121.474 67.3321 121.138 66.7788C120.909 66.3826 120.7 65.9739 120.573 65.54C120.376 64.8861 120.395 64.1693 120.636 63.5279C121.017 62.4212 121.601 61.3963 122.198 60.3903C122.675 59.6231 123.202 58.8686 123.869 58.2461C123.621 57.7997 123.037 57.7116 122.783 57.2778C122.465 56.7747 122.084 56.2717 122.027 55.6618C121.951 54.9764 121.989 54.2784 122.059 53.5931C122.059 53.4799 122.084 53.2724 121.932 53.2598C121.735 53.2975 121.614 53.4799 121.436 53.5616C120.877 53.832 120.35 54.1653 119.747 54.3539C119.366 54.4671 118.953 54.5174 118.566 54.3979C118 54.2218 117.461 53.9263 117.086 53.461C116.54 52.7945 116.33 51.889 116.425 51.0465C116.635 49.8203 117.187 48.6759 117.791 47.5881C118.388 46.5443 119.061 45.5131 120.007 44.7649C120.458 44.4127 120.998 44.1109 121.589 44.1109C122.148 44.1549 122.656 44.4379 123.107 44.746C123.551 45.1044 123.932 45.532 124.288 45.9721C124.637 45.2679 124.885 44.5196 125.272 43.8343C125.609 43.1929 125.99 42.583 126.339 41.9479C126.949 40.7784 127.66 39.6591 128.321 38.5147C128.924 37.4206 129.655 36.3957 130.474 35.4462C130.868 34.9998 131.261 34.5408 131.77 34.2012V34.1886ZM122.11 46.5632C121.811 46.6701 121.589 46.9216 121.379 47.148C120.592 48.0912 119.906 49.1161 119.347 50.2039C119.156 50.6 118.972 51.0087 118.934 51.4426C118.921 51.5998 118.934 51.8262 119.112 51.889C119.417 51.9205 119.709 51.7947 119.982 51.6815C120.687 51.3609 121.214 50.7761 121.69 50.185C122.179 49.5814 122.611 48.9274 122.986 48.2484C123.157 47.9088 123.38 47.5693 123.392 47.1794C123.208 46.7078 122.618 46.3809 122.122 46.5695L122.11 46.5632Z" fill="black"></path>
    <path d="M91.4908 36.4963C92.3927 36.3705 93.3009 36.4334 94.1964 36.5843C94.7997 36.6975 95.4412 36.9113 95.835 37.4143C96.3494 38.0808 96.5653 38.9046 96.7051 39.7094C96.9083 40.9292 96.6034 42.2937 95.6889 43.1677C95.2062 43.828 94.787 44.5322 94.2091 45.1044C93.9233 45.3936 93.6057 45.7018 93.1929 45.8024C93.0786 45.8401 93.0341 45.708 92.9643 45.6577C93.1548 45.3182 93.466 45.0855 93.7581 44.8466C93.9868 44.6643 94.1392 44.4127 94.2789 44.1549C94.3678 44.1361 94.4758 44.1549 94.5584 44.1172C94.7489 43.9223 94.7553 43.6268 94.7743 43.3689C94.5139 43.4444 94.3424 43.6708 94.1646 43.8531C93.8661 44.2052 93.5105 44.4945 93.1865 44.8214C92.507 45.7269 91.4717 46.2677 90.7223 47.1102C89.6807 48.0597 88.5375 48.8897 87.4896 49.8329C87.1276 50.1599 86.7402 50.468 86.4671 50.8704C86.6894 50.9333 86.8989 50.7949 87.1022 50.7321C87.8262 50.4491 88.6201 50.5749 89.3759 50.6629C89.8522 50.7383 90.3603 50.839 90.735 51.1659C91.1542 51.5683 91.332 52.1531 91.4273 52.7065C91.5607 53.8571 91.6877 55.0204 91.7004 56.1837C91.6877 56.3786 91.7131 56.5798 91.5988 56.7496C91.4209 56.6175 91.3701 56.3974 91.3193 56.2025C91.1605 56.3974 91.0526 56.6364 90.9001 56.8439C90.4937 57.3846 89.9983 57.8562 89.5029 58.3152C87.9151 59.7174 86.1559 60.9184 84.3649 62.0565C83.6154 62.5218 82.866 62.9746 82.0848 63.377C81.8498 63.4965 81.6021 63.6096 81.3354 63.6537C81.3163 63.6851 81.2846 63.7417 81.2655 63.7731C80.8781 63.8674 80.5161 64.0498 80.1604 64.207C79.4173 64.5717 78.6362 64.8609 77.8486 65.1124C77.0103 65.3954 76.1211 65.6469 75.232 65.5212C74.8699 65.4583 74.6921 65.0999 74.5333 64.8106C74.1269 63.9806 73.8601 63.0312 74.0189 62.1068C74.2158 61.3083 74.87 60.7235 75.4924 60.2393C76.2164 59.686 77.0166 59.2459 77.8232 58.8057C78.1027 58.6234 78.4583 58.4913 78.5981 58.1643C78.8521 58.2335 79.1125 58.1329 79.3284 58.0197C79.7412 57.7871 80.1604 57.5167 80.6431 57.4852C80.6113 57.7619 80.3446 57.9002 80.1223 57.9946C79.5253 58.1895 78.9855 58.5165 78.4583 58.8309C78.2233 58.9881 77.9629 59.1138 77.7724 59.3276C78.833 58.9063 79.8175 58.3467 80.8463 57.8499C81.7291 57.523 82.6183 57.1771 83.4185 56.6678C83.8949 56.3723 84.403 56.1082 84.9492 55.9887C85.1079 55.9259 85.146 56.1459 85.019 56.1962C84.3712 56.7055 83.5519 56.913 82.8215 57.2652C81.9197 57.6927 81.094 58.2524 80.3065 58.856C79.068 59.6609 77.8359 60.4657 76.6737 61.3649C76.1783 61.7673 75.6765 62.1634 75.2828 62.6665C75.1685 62.8174 75.0668 62.9934 75.0668 63.1821C75.1049 63.3204 75.2447 63.421 75.3844 63.4273C76.0195 63.4839 76.6419 63.2701 77.2389 63.0689C78.6806 62.5596 80.0525 61.8805 81.4243 61.2077C84.422 59.9249 87.1784 58.0071 89.2616 55.5046C89.6363 55.0393 90.0554 54.5614 90.2015 53.964C90.2904 53.6874 90.1634 53.3981 90.011 53.1655C89.8522 52.9705 89.5982 52.8951 89.3695 52.8133C88.7281 52.6247 88.0548 52.5052 87.388 52.5681C86.6322 52.6247 85.8701 52.719 85.1587 52.9894C84.8793 53.09 84.638 53.2912 84.3458 53.3415C83.8949 53.3981 83.4694 53.5805 83.0438 53.7502C82.2118 54.1275 81.4052 54.5425 80.6685 55.0707C80.2938 55.2845 79.8746 55.4543 79.5634 55.7624C79.1315 56.1396 78.9156 56.6804 78.7378 57.2086C78.6171 57.5481 78.5599 57.9191 78.325 58.1958C78.1344 57.9757 78.1598 57.655 77.9756 57.4349C77.9058 57.3343 77.7851 57.284 77.6898 57.2212C77.0674 57.4224 76.8578 58.1581 76.2672 58.4159C76.1529 58.4724 76.1084 58.3278 76.0957 58.2461C76.0386 57.8499 76.0957 57.4475 76.0449 57.0514C75.9623 56.5484 76.1465 56.0327 76.4895 55.668C76.8515 55.2845 77.2897 54.9952 77.6454 54.5991C77.7915 54.423 77.8867 54.2155 78.001 54.0143C78.6552 52.8385 79.2205 51.6187 79.8302 50.424C81.0178 48.0786 82.2118 45.7269 83.5773 43.4758C83.7424 43.2369 83.8631 42.9288 84.1553 42.803C84.549 42.803 84.9174 43.0043 85.1905 43.2872C85.4445 43.5261 85.6732 43.8217 85.724 44.1738C85.7748 44.6705 85.6605 45.205 85.2921 45.5634C84.7332 46.1608 84.4347 46.9342 83.9774 47.5944C83.6218 48.0157 83.3741 48.5061 83.0883 48.9777C82.6882 49.6757 82.2817 50.3674 81.9197 51.0842C81.8625 51.2414 81.7228 51.4866 81.9197 51.5935C82.269 51.5369 82.5611 51.3357 82.8533 51.1596C83.806 50.5183 84.6888 49.7763 85.5652 49.0469C87.0514 47.7893 88.5058 46.494 89.9094 45.1358C91.1859 43.8657 92.4879 42.6144 93.6692 41.2562C94.0249 40.8412 94.3806 40.4262 94.6473 39.9546C94.7553 39.766 94.8378 39.5208 94.6854 39.3384C94.5012 39.1058 94.1964 39.024 93.9233 38.9674C93.2945 38.8542 92.6594 38.892 92.0243 38.9297C90.5572 39.068 89.1155 39.395 87.6865 39.7534C86.5496 40.0364 85.4636 40.4639 84.3966 40.9418C83.4122 41.3946 82.4405 41.8724 81.5132 42.4383C80.3128 43.1866 79.1824 44.0732 78.344 45.2113C78.0137 45.6389 77.8296 46.1419 77.6263 46.6261C77.5882 46.7455 77.4548 46.8021 77.3596 46.7078C76.9214 46.3557 76.8388 45.7583 76.788 45.2364C76.7181 44.375 76.9785 43.5136 77.4358 42.7905C78.1916 41.5769 79.3602 40.6903 80.5859 39.9861C81.691 39.3761 82.8342 38.8228 84.0092 38.3512C85.0254 37.9362 86.0797 37.6407 87.1403 37.3452C88.582 36.9427 90.0555 36.6472 91.548 36.5026H91.5289L91.4908 36.4963ZM84.187 45.6515C84.0282 45.8527 84.0282 46.1356 83.8441 46.3243C83.7424 46.4437 83.6091 46.538 83.5392 46.6827C83.2407 47.28 83.0311 47.934 82.7009 48.525C82.4595 48.8331 82.2626 49.1727 82.0785 49.5122C81.9705 49.9146 81.7609 50.2793 81.5005 50.6C81.3798 50.7635 81.3481 50.971 81.3608 51.1659C81.6339 50.927 81.7228 50.5497 81.799 50.2102C81.9959 49.9838 82.2372 49.7826 82.3579 49.4996C82.4468 49.311 82.4278 49.1035 82.4405 48.9023C82.7263 48.5753 83.101 48.3049 83.2788 47.8962C83.571 47.324 83.8314 46.733 84.168 46.1796C84.5109 45.7332 84.8158 45.2553 85.0444 44.746C84.6507 44.9221 84.4284 45.3119 84.1934 45.6515H84.187Z" fill="black"></path>
    <path d="M50.3612 41.3254C50.5581 41.3254 50.7105 41.1682 50.901 41.1682C51.6187 41.1305 52.3427 41.1242 53.054 41.187C54.0639 41.2814 55.1309 41.426 55.9756 42.0233C56.5091 42.3755 56.8584 43.0042 56.8457 43.6456C56.8457 44.3624 56.5027 45.0164 56.0962 45.5823C55.7977 45.9721 55.4548 46.3305 55.0483 46.6072C55.0102 46.3871 55.2007 46.2488 55.3277 46.0916C55.5119 45.8904 55.5754 45.6074 55.531 45.3433C55.3341 45.4188 55.188 45.5823 55.0229 45.708C54.6672 46.0224 54.2544 46.2677 53.7844 46.3808C53.6193 46.4123 53.4542 46.5129 53.2827 46.4814C53.2509 46.3494 53.3526 46.2488 53.4097 46.1419C53.6002 45.8338 53.8162 45.532 53.8606 45.161C53.8606 44.9346 53.6828 44.7523 53.4859 44.6642C53.0985 44.4882 52.6603 44.4505 52.2475 44.3876C51.7775 44.331 51.2948 44.2744 50.8312 44.3876C50.2913 44.6077 49.6753 44.6328 49.11 44.507C48.9703 44.3247 48.983 44.004 49.1735 43.8657C49.6117 43.8154 50.05 43.8657 50.4882 43.8217C50.8312 43.7839 51.1678 43.8594 51.5044 43.9034C51.6568 43.872 51.625 43.677 51.4917 43.6393C51.0471 43.4255 50.431 43.677 50.0754 43.2558C49.4403 43.413 48.7861 43.501 48.1319 43.5261C47.6111 43.5576 47.084 43.4947 46.5696 43.5702C46.4425 43.5827 46.3473 43.6896 46.2266 43.7399C45.8709 43.8657 45.4899 43.6896 45.1406 43.7902C44.9881 43.828 44.8421 43.9852 44.8738 44.1549C45.0961 44.3939 45.4391 44.5574 45.7693 44.5133C45.8646 44.4882 45.9662 44.2681 46.0488 44.419C46.1059 44.5448 46.0615 44.6957 46.0615 44.834C45.3946 45.073 44.6833 45.1044 43.9974 45.2176C44.5499 45.4691 45.1723 45.6074 45.6296 46.035C45.8328 46.2111 45.8963 46.5003 45.8265 46.7581C45.6423 46.9593 45.3247 46.9027 45.1342 47.0788C45.2485 47.1354 45.4327 47.1165 45.4772 47.2674C45.5153 47.3617 45.4645 47.4624 45.4454 47.5441C45.3502 47.8271 45.2295 48.11 45.0707 48.3741C45.0135 48.4936 44.8738 48.5061 44.7722 48.5627C44.6388 48.7514 44.6642 48.9966 44.5309 49.1852C44.4038 49.223 44.2641 49.1035 44.1434 49.1852C44.0863 49.5751 44.2006 49.9775 44.0609 50.3548C43.9085 50.2668 43.7941 50.1096 43.629 50.053C43.4448 50.2353 43.3368 50.4743 43.2543 50.7132C43.2035 50.8138 43.2987 50.9899 43.4194 50.9521C43.5464 50.7698 43.5909 50.5434 43.6608 50.3359C43.7941 50.7698 43.5528 51.2225 43.6226 51.669C44.1498 51.6249 44.6642 51.4992 45.185 51.4237C46.5823 51.1911 48.0113 51.0716 49.4276 51.015C49.8658 51.0276 50.3358 51.015 50.7422 51.2036C50.6978 51.5746 50.5771 51.9582 50.3294 52.2537C49.9928 52.5241 49.5419 52.2852 49.1608 52.3795C49.1926 52.6121 49.472 52.5807 49.6371 52.6624C49.9865 52.7819 49.9865 53.2283 49.8721 53.5113C49.815 53.5113 49.688 53.5365 49.6308 53.5427C49.688 53.7314 50.0119 53.8005 49.9484 54.0018C49.5673 54.3665 48.9957 54.379 48.4939 54.3665C47.808 54.2973 47.1348 54.4796 46.4616 54.574C45.7249 54.6934 44.9881 54.8443 44.2387 54.7815C44.118 54.7626 43.8894 54.7437 43.9402 54.574C44.0101 54.3727 44.2387 54.2658 44.4419 54.203C44.8675 54.1149 45.2993 54.0835 45.7312 54.1149C46.2965 54.1464 46.8617 54.0395 47.3952 53.8508C45.7947 53.549 44.1371 53.8634 42.6382 54.4293C42.3524 54.5614 42.0158 54.6368 41.7872 54.8632C41.9079 55.0393 42.0285 55.2216 42.073 55.4291C41.9142 55.6303 41.6348 55.624 41.3998 55.6618C41.5141 56.1648 41.4188 56.7307 41.0187 57.0765C40.7392 57.5104 40.5678 58.0134 40.2312 58.4158C40.2185 58.8183 40.0216 59.2521 39.6723 59.4785C39.6723 59.2333 39.6723 58.9755 39.7675 58.7491C39.8564 58.6045 39.9771 58.4787 40.0914 58.353C40.282 57.5104 40.5805 56.6615 41.1394 55.995C41.2156 55.8944 41.2283 55.7687 41.2664 55.6492C40.9107 55.6869 40.7329 55.995 40.6313 56.3031C40.0597 57.3721 39.5262 58.4599 38.999 59.554C38.7196 60.1199 38.5545 60.7235 38.2941 61.2957C38.0972 61.7736 37.8622 62.2389 37.6145 62.6916C37.2461 63.3707 36.9286 64.0812 36.6237 64.7918C36.5221 65.0496 36.357 65.2948 36.357 65.584C36.6999 65.4646 36.7063 65.0056 37.0175 64.8484C37.1763 64.7981 37.3795 64.8106 37.4938 64.6597C37.8939 64.207 37.9892 63.5908 38.2306 63.05C38.4211 62.6287 38.5926 62.1949 38.8847 61.8302C38.9228 61.8113 38.9927 61.7862 39.0244 61.7673C39.1007 62.635 38.7196 63.465 38.3449 64.2321C38.5926 63.9177 38.7641 63.5531 39.0626 63.2764C39.0435 63.5531 38.9101 63.8109 38.7831 64.0561C38.1607 65.1439 37.7161 66.3323 37.3859 67.5459C37.2842 67.8917 37.1318 68.2438 36.827 68.4513C36.4586 68.7028 35.9632 68.6085 35.5758 68.4513C34.7946 68.0992 34.3056 67.3258 34.0452 66.5461C33.8991 66.1374 33.9944 65.6909 34.115 65.2885C34.3119 64.6786 34.5596 64.0749 34.8454 63.4965C35.6012 61.8868 36.3443 60.2834 37.1128 58.6737C37.3096 58.2901 37.4684 57.8877 37.7161 57.5293C37.7987 57.3972 37.8876 57.2463 37.8812 57.0891C37.8241 56.8879 37.6844 56.7181 37.57 56.5421C37.3859 56.7118 37.0747 56.825 36.8714 56.6301C37.0302 56.4603 37.2461 56.366 37.4748 56.3534L37.6526 56.1459C37.5319 56.0956 37.3986 56.039 37.2652 56.0893C36.5031 56.2465 35.7917 56.5861 35.0487 56.8187C34.7311 56.913 34.3818 56.9571 34.0642 56.8565C33.7848 56.6427 33.6578 56.2843 33.5625 55.9573C33.5244 55.7435 33.2386 55.6869 33.1878 55.4794C33.0862 55.165 33.1878 54.7877 33.4418 54.574C33.7149 54.423 34.0261 54.3539 34.3183 54.2533C34.8835 54.1024 35.398 53.8131 35.9823 53.7188C37.0175 53.6056 38.0019 53.2598 38.98 52.9454C39.3293 52.8259 39.7421 52.763 39.9708 52.4361C40.2439 52.0336 40.4344 51.5935 40.6503 51.1533C41.2473 49.8518 41.8316 48.5564 42.435 47.2549C42.6573 46.7518 42.9113 46.2614 43.0511 45.7269C43.0765 45.6074 43.14 45.4377 43.0002 45.3685C42.543 45.5005 42.0793 45.6074 41.603 45.6137C40.7964 45.6137 40.0343 45.8715 39.2467 46.0224C38.8085 46.1293 38.3385 46.1419 37.9067 46.2677C37.6971 46.318 37.5002 46.4186 37.2842 46.4626C37.0874 46.5003 36.8778 46.4249 36.6872 46.5003C36.0331 46.6952 35.4488 47.0536 34.8137 47.2926C34.3437 47.4875 33.8292 47.607 33.4355 47.9339C33.1497 48.1729 32.8385 48.4307 32.451 48.481C32.2923 48.5187 32.07 48.4621 32.0192 48.2861C31.9811 48.0408 32.0763 47.8082 32.1525 47.5818C32.2542 47.28 32.305 46.9405 32.5082 46.6764C32.7496 46.3997 33.1116 46.2991 33.4164 46.1042C33.2322 45.9721 33.0226 45.8589 32.8829 45.6766C32.8448 45.4817 32.9845 45.3182 33.0925 45.161C33.6324 44.463 34.3119 43.8405 35.1249 43.4633C36.3316 42.9539 37.6399 42.7905 38.9228 42.5955C40.0533 42.4006 41.1965 42.2623 42.3143 42.0359C42.8542 41.9353 43.394 41.8095 43.9529 41.7718C44.8548 41.5266 45.7947 41.4952 46.7156 41.4071C47.5921 41.338 48.4749 41.3442 49.3514 41.2562C49.7134 41.1556 50.0627 41.3065 50.4247 41.2939H50.3802L50.3612 41.3254Z" fill="black"></path>
    <path d="M64.8924 41.6272C65.2163 41.3882 65.6482 41.4637 65.9912 41.6272C66.2388 41.7467 66.5437 41.8787 66.6136 42.1679C66.6326 42.4509 66.423 42.7653 66.5945 43.0357C66.7025 43.2306 66.9692 43.2683 67.0899 43.4444C67.128 43.8908 66.785 44.2367 66.5501 44.5888C66.0483 45.3182 65.6037 46.079 65.1592 46.8398C66.3976 46.6323 67.6234 46.3305 68.8682 46.1356C70.2591 45.9029 71.7072 45.8149 73.0917 46.1356C72.9012 46.1922 72.717 46.2362 72.5201 46.2865V46.406C73.0726 46.3808 73.6823 46.6386 73.8856 47.1857C73.8284 47.2611 73.7713 47.3366 73.7141 47.4058C73.8221 47.4623 73.9618 47.4938 74.0444 47.5944C74.1206 47.7076 74.0317 47.827 74.0063 47.9402C73.4029 47.9402 72.8377 47.6698 72.2343 47.6447C71.65 47.607 71.072 47.6447 70.4941 47.7139C69.3509 47.8459 68.2013 47.9528 67.1026 48.3049C66.8359 48.393 66.5818 48.5187 66.296 48.5501C66.169 48.5313 66.1118 48.4055 66.042 48.3175C65.8578 48.481 65.7117 48.6948 65.4513 48.7451C64.867 48.8897 64.27 48.9903 63.6984 49.1789C63.7238 49.2733 63.7746 49.3676 63.7619 49.4619C63.6539 49.638 63.4952 49.7763 63.4444 49.9775C62.9934 50.2164 62.8474 50.7258 62.6124 51.1408C62.5235 51.2791 62.5552 51.4426 62.5489 51.5998C62.4726 51.8324 62.3266 52.0336 62.2313 52.2537C62.0535 52.6436 61.9963 53.1152 61.6724 53.4233C61.5454 53.5553 61.3485 53.5993 61.177 53.637C61.4692 53.9766 61.2723 54.5299 60.8976 54.7186C60.8341 54.5802 60.8023 54.4356 60.7769 54.2847C60.6118 54.4419 60.58 54.6683 60.5229 54.8758C60.7261 54.9764 60.9611 55.0141 61.1453 55.1461C61.0055 55.2153 60.8531 55.1964 60.707 55.1964C60.6753 55.3725 60.6562 55.5486 60.6054 55.712C60.4784 55.6743 60.3514 55.6303 60.2243 55.5926C60.1037 55.7812 60.091 56.0327 60.3133 56.1522C60.218 56.6678 59.875 57.0891 59.7544 57.5984C59.4876 57.7367 59.2463 57.9442 59.1701 58.2398C59.2971 58.1643 59.4241 58.0889 59.5575 58.026C59.5829 58.4536 59.4051 58.856 59.2463 59.2458C59.1955 59.4156 59.0113 59.4533 58.8652 59.5099C58.9414 59.6357 59.024 59.774 59.0939 59.9061C59.0303 59.9941 58.9605 60.0821 58.8906 60.1639C58.7255 61.0693 58.554 61.9874 58.4651 62.9054C58.3952 63.5027 58.5032 64.1001 58.662 64.6786C58.9287 65.3891 59.4495 65.9676 59.748 66.6593C59.6591 66.8479 59.4178 66.8856 59.2336 66.9296C58.5985 66.9422 58.0015 66.5901 57.6077 66.1122C57.0424 65.4394 56.782 64.5717 56.6296 63.7228C56.3121 61.8805 56.5661 59.9878 57.0869 58.2083C57.2076 57.7179 57.4108 57.2589 57.5442 56.7684C56.8138 57.743 55.9882 58.6548 55.0291 59.4219C53.9177 60.3274 52.6983 61.1008 51.4789 61.8427C51.1169 62.0691 50.7294 62.2703 50.4055 62.547C50.9644 62.4024 51.4725 62.1257 51.987 61.8867C52.7491 61.5283 53.4731 61.0756 54.1336 60.5537C54.4385 60.3336 54.7179 60.0633 55.0418 59.8683C55.0672 59.8683 55.1117 59.8683 55.1435 59.8683C55.1244 60.057 55.0037 60.2079 54.9021 60.3588C54.6163 60.7612 54.2099 61.0693 53.7907 61.3397C53.2318 61.7233 52.6729 62.132 52.2092 62.635C52.0378 62.8362 51.771 62.8865 51.5297 62.962C50.9073 63.1255 50.2341 63.2764 49.5926 63.1255C49.1163 63.0123 48.7606 62.5847 48.6844 62.1131C48.5002 61.1322 48.8178 60.1639 49.1163 59.2395C49.7196 57.4789 50.4817 55.7498 51.6186 54.2595C51.8917 53.7942 52.241 53.3352 52.7618 53.1152C53.2254 52.9454 53.7653 53.0334 54.1717 53.3101C54.4766 53.5364 54.7814 53.9074 54.6417 54.3098C54.4702 54.8443 53.9558 55.165 53.7272 55.668C53.3143 56.498 52.8126 57.2903 52.3553 58.1014C52.1203 58.5353 51.8536 58.9755 51.7647 59.4722C51.8726 59.5351 51.9933 59.6105 52.1203 59.5351C53.1175 59.1012 54.0511 58.5039 54.9021 57.8311C55.7214 57.2023 56.3692 56.3849 57.0424 55.6177C57.5378 55.0392 58.0332 54.4733 58.535 53.9137C58.6429 53.7942 58.7636 53.6873 58.8398 53.549C59.3225 52.4612 59.8623 51.3923 60.3577 50.3108C60.4085 50.185 60.453 50.053 60.4974 49.9272C59.7988 50.0718 59.1002 50.2353 58.4016 50.3673C57.9824 50.4177 57.5188 50.4239 57.1568 50.185C57.2393 50.1158 57.3282 50.0467 57.4235 49.9838C57.3092 49.9964 57.2076 50.0026 57.0933 50.0215C57.0933 50.2542 57.2393 50.468 57.1822 50.7069C57.1187 50.9458 56.9027 51.0967 56.7503 51.2854C56.3121 51.7695 55.9691 52.3858 55.353 52.675C54.9974 52.8573 54.5719 52.7693 54.2353 52.587C53.9177 52.4235 53.8351 52.0399 53.8097 51.7192C53.7653 50.8578 54.267 50.0844 54.8577 49.487C54.4321 49.5248 54.0003 49.5688 53.5938 49.4367C53.4096 49.3864 53.2508 49.2418 53.2254 49.0469C53.2254 48.8834 53.4223 48.852 53.543 48.8268C54.0447 48.7451 54.5528 48.7514 55.0482 48.6633C57.0424 48.3049 59.0684 48.1289 61.05 47.6761C61.2723 47.607 61.5644 47.5818 61.6915 47.3555C62.0344 46.777 62.2377 46.1293 62.5679 45.5508C63.0823 44.6202 63.5587 43.6582 64.1112 42.7464C64.3272 42.3566 64.4859 41.8976 64.8734 41.6335L64.8924 41.6272ZM69.732 47.412C70.094 47.4246 70.4687 47.412 70.8307 47.3743C71.2499 47.3555 71.669 47.3303 72.0692 47.2234C71.9866 47.1542 71.8723 47.1417 71.777 47.1417C71.0911 47.1542 70.4052 47.2926 69.732 47.4183V47.412ZM66.8994 47.8773C67.1026 47.9025 67.3122 47.8773 67.5154 47.8333C67.6742 47.7956 67.8774 47.7956 67.9664 47.6384C67.6043 47.6384 67.2106 47.6824 66.893 47.8773H66.8994ZM54.8577 50.2353C54.7179 50.4742 54.5274 50.7132 54.5338 51.0024C54.8958 50.6692 55.1689 50.2353 55.3213 49.77C55.099 49.8392 54.9783 50.0592 54.8577 50.2353ZM52.1902 54.0646C52.0886 54.2281 51.9552 54.3602 51.8218 54.4922C51.6249 54.6683 51.6122 54.9449 51.5106 55.1713C51.3455 55.5045 51.0343 55.7498 50.9136 56.0956C50.8501 56.366 50.939 56.6678 50.7675 56.9067C50.3293 57.4224 50.0308 58.0386 49.7577 58.6485C49.6371 58.988 49.3767 59.2773 49.3576 59.642C49.3767 59.7049 49.3957 59.8432 49.491 59.8243C49.6371 59.5917 49.6371 59.3024 49.7069 59.0383C49.7387 58.8434 49.9419 58.7554 50.0435 58.5919C50.3039 58.1769 50.6088 57.7808 50.7866 57.3155C50.8819 57.1142 50.9263 56.8816 51.0216 56.6804C51.1931 56.3283 51.2248 55.9384 51.3773 55.5863C51.4725 55.3851 51.7139 55.297 51.8155 55.0958C51.9235 54.9135 52.0505 54.7437 52.1457 54.5677C52.2601 54.2155 52.6792 54.1464 52.9015 53.8823C52.9777 53.8194 52.9396 53.7125 52.946 53.6308C52.6538 53.6622 52.349 53.8068 52.1965 54.0646H52.1902ZM58.7953 58.0763C58.9478 57.6927 59.1574 57.3217 59.2018 56.9067C58.9351 57.24 58.8525 57.6676 58.7953 58.0763ZM49.0527 60.5663C49.1036 60.6606 49.1417 60.7989 49.2814 60.7612C49.4148 60.6166 49.4021 60.4028 49.3322 60.233C49.1544 60.2645 49.0909 60.4217 49.0464 60.5726L49.0527 60.5663Z" fill="black"></path>
  </g>
  <defs>
    <clipPath id="clip0_12_28874">
      <rect width="106" height="34.6337" fill="white" transform="translate(32 34)"></rect>
    </clipPath>
  </defs>
</svg>
