<?xml version="1.0" encoding="UTF-8"?>
<svg xmlns="http://www.w3.org/2000/svg" width="173" height="108" viewBox="0 0 173 108" fill="none">
  <g style="mix-blend-mode:luminosity">
    <rect x="0.5" y="0.5" width="172" height="107" rx="9.5" stroke="#E3E3E3"></rect>
  </g>
  <g clip-path="url(#clip0_10_26820)">
    <path d="M83.6572 22C85.7853 22 87.9198 22 90.0415 22C89.1649 33.071 88.2946 44.142 87.4243 55.213C87.3862 55.721 87.3671 56.2354 87.2591 56.7369C87.1575 56.6132 87.0685 56.4634 87.0685 56.2875C85.9314 44.8584 84.7943 33.4162 83.6572 21.987V22Z" fill="#007BA5"></path>
    <path d="M85.2136 70.6668C85.4296 70.8427 85.5821 71.0706 85.6773 71.3376C86.8208 74.2291 87.9198 77.1271 89.0759 80.0055C89.3046 80.5395 89.5333 81.1126 89.978 81.5164C90.321 81.816 90.8102 81.7508 91.2231 81.8225C91.0706 82.109 90.734 82.0244 90.4672 82.0504C89.6286 82.0504 88.7901 82.0504 87.9516 82.0244C87.7356 82.0244 87.5132 81.9853 87.3226 81.8746C87.437 81.829 87.6593 81.7378 87.7673 81.6857C87.4433 80.5135 86.9542 79.3999 86.5413 78.2602H83.2189C82.914 79.1199 82.5646 79.9599 82.2851 80.8326C82.2152 81.1126 82.0755 81.5425 82.4058 81.7118C82.6853 81.8095 82.9902 81.7834 83.2761 81.829C83.0982 82.1481 82.7234 82.0309 82.4376 82.0374C81.599 81.9658 80.7668 82.0374 79.9283 82.0504C79.725 82.083 79.5472 82.0048 79.4265 81.829C79.8203 81.7574 80.265 81.8029 80.608 81.562C80.9574 81.3145 81.1289 80.8912 81.2877 80.507C82.355 77.7718 83.4158 75.0366 84.4894 72.3014C84.7054 71.7479 84.896 71.1683 85.2136 70.6603V70.6668ZM84.915 73.669C84.4259 74.9389 83.9685 76.2349 83.5048 77.5178C84.4259 77.5178 85.3534 77.5178 86.2808 77.5178C85.8298 76.2349 85.3724 74.9519 84.915 73.669Z" fill="#007BA5"></path>
    <path d="M42.4928 71.4157C42.4928 71.1813 42.5564 70.9599 42.6199 70.7384C43.0455 71.025 43.3568 71.4418 43.7062 71.8195C46.0249 74.3463 48.4388 76.7754 50.7702 79.2957C50.7321 77.0684 50.6749 74.8477 50.6304 72.627C50.5987 72.2558 50.6304 71.7999 50.3319 71.5329C49.9698 71.2855 49.506 71.3766 49.0995 71.2855C49.3663 70.9468 49.8046 71.1096 50.1667 71.0836C51.0497 71.1552 51.9264 71.0575 52.803 71.0836C52.8665 71.1292 52.9936 71.2204 53.0571 71.2659C52.7077 71.3571 52.2948 71.292 52.0089 71.546C51.7993 71.8065 51.8057 72.1646 51.7866 72.4837C51.7421 74.9715 51.6977 77.4592 51.6595 79.9469C51.6405 80.7023 51.6723 81.4578 51.5833 82.2132C51.145 82.2002 50.8845 81.7964 50.586 81.5164C48.1529 79.0156 45.6755 76.5605 43.3822 73.923C43.433 76.0069 43.4902 78.0974 43.541 80.1813C43.5728 80.6307 43.5664 81.1452 43.8396 81.5294C44.1826 81.816 44.6718 81.7248 45.0783 81.8094C44.8115 82.1676 44.3478 81.9918 43.9793 82.0178C43.1408 81.9527 42.3086 82.0178 41.4701 82.0178C41.2732 82.0504 41.108 81.9657 41 81.8029C41.3621 81.7248 41.7623 81.7899 42.0863 81.601C42.3721 81.3015 42.3277 80.8261 42.3658 80.4418C42.4166 77.4266 42.4611 74.4049 42.4992 71.3897V71.4157H42.4928Z" fill="#007BA5"></path>
    <path d="M60.7309 70.9013C62.2683 70.758 63.9136 71.0055 65.2031 71.9302C66.1814 72.627 66.8421 73.7211 67.0835 74.9129C67.3821 76.4107 67.2042 78.0258 66.48 79.3673C65.7113 80.8261 64.2439 81.8485 62.6558 82.1286C61.0041 82.4346 59.1809 82.1937 57.8024 81.1517C55.5028 79.4064 55.0073 75.7985 56.551 73.3825C57.4403 71.9107 59.0666 71.038 60.7309 70.9013ZM60.2418 71.6632C59.1492 71.8781 58.2725 72.7768 57.9358 73.8579C57.5039 75.2255 57.5102 76.7363 57.885 78.1235C58.2281 79.3803 59.0221 80.5656 60.1973 81.1257C61.2646 81.6336 62.6049 81.7053 63.615 81.028C64.4535 80.4744 64.8982 79.4911 65.0888 78.5207C65.2857 77.4527 65.2921 76.3456 65.0888 75.2776C64.8537 74.1444 64.2947 73.0373 63.3736 72.3405C62.497 71.6567 61.3217 71.4288 60.2482 71.6697L60.2418 71.6632Z" fill="#007BA5"></path>
    <path d="M104.767 72.6466C104.856 72.0344 104.964 71.4353 105.148 70.8492C105.802 71.1162 106.507 71.1031 107.193 71.1162H112.866C113.349 71.1162 113.825 71.0445 114.302 70.9729C114.302 71.585 114.289 72.1842 114.27 72.7898C114.295 72.9852 114.213 73.161 114.067 73.2783C113.991 72.9982 113.991 72.6987 113.857 72.4382C113.559 72.067 113.044 71.9953 112.606 71.9562C111.913 71.9172 111.215 71.9237 110.522 71.8976C110.535 74.6654 110.497 77.4331 110.548 80.2009C110.598 80.6633 110.509 81.2298 110.84 81.601C111.24 81.8355 111.735 81.7443 112.174 81.8355C112.053 81.9918 111.894 82.0895 111.691 82.0569C110.592 82.0569 109.487 81.9657 108.381 82.0569C108.07 82.0374 107.67 82.1676 107.467 81.855C107.791 81.7704 108.172 81.842 108.464 81.6401C108.75 81.2364 108.686 80.6958 108.737 80.2139C108.781 77.4462 108.75 74.6784 108.762 71.9107C107.778 71.9758 106.787 71.8911 105.809 72.0539C105.269 72.1321 105.122 72.7247 104.913 73.148C104.773 73.0178 104.722 72.855 104.767 72.6661V72.6466Z" fill="#007BA5"></path>
    <path d="M127.509 71.4548C128.76 70.6473 130.355 70.7775 131.727 71.1748C131.663 71.8781 131.695 72.588 131.644 73.2913C131.6 73.3564 131.505 73.4932 131.454 73.5648C131.333 73.122 131.301 72.627 131.009 72.2623C130.444 71.4874 129.3 71.3441 128.493 71.7674C127.915 72.0605 127.655 72.7964 127.82 73.4215C127.992 74.0467 128.512 74.4831 128.983 74.8803C129.866 75.5771 130.812 76.2544 131.447 77.2182C132.229 78.3905 132.203 80.1358 131.212 81.1843C130.463 81.9983 129.332 82.2849 128.277 82.2458C127.541 82.2197 126.753 82.1546 126.13 81.7248C126.016 80.8912 126.092 80.0251 126.2 79.198C126.251 79.1589 126.365 79.0873 126.416 79.0547C126.486 79.7971 126.619 80.6372 127.248 81.1126C128.087 81.7378 129.446 81.7183 130.145 80.8782C130.679 80.24 130.577 79.2436 130.113 78.5924C129.523 77.7457 128.614 77.2508 127.884 76.554C127.147 75.8767 126.473 75.0171 126.384 73.9751C126.245 72.9982 126.689 71.9693 127.509 71.4548Z" fill="#007BA5"></path>
    <path d="M68.3222 71.2725C68.4747 71.1162 68.6589 71.0445 68.8686 71.0706C69.7071 71.0706 70.5393 71.1357 71.3778 71.0966C71.9178 71.0836 72.4704 71.0185 73.0104 71.1487C72.7372 71.3506 72.3879 71.3115 72.0956 71.4613C71.8797 71.7218 72.0766 72.0735 72.1401 72.3535C73.0104 74.737 73.8871 77.114 74.7828 79.4911C75.7166 77.075 76.6695 74.6784 77.5779 72.2493C77.635 71.9953 77.8193 71.6958 77.635 71.4613C77.3174 71.2985 76.9109 71.4157 76.6377 71.1422C77.292 70.9989 77.9527 71.1031 78.6133 71.1031C79.1914 71.1031 79.7695 71.012 80.3349 71.1422C80.0554 71.3962 79.6552 71.3181 79.3375 71.5004C79.0707 71.6827 78.9183 71.9888 78.7785 72.2754C77.5398 75.1799 76.2629 78.0714 75.0432 80.9889C74.8209 81.4578 74.6875 82.0113 74.2682 82.3435C74.1221 82.1351 73.9823 81.9071 73.8871 81.6662C72.6737 78.6314 71.454 75.6097 70.2407 72.5814C70.0882 72.2233 69.9358 71.826 69.6054 71.5981C69.2243 71.3441 68.7542 71.3636 68.3222 71.279V71.2725Z" fill="#007BA5"></path>
    <path d="M92.9828 71.279C93.0463 71.2334 93.1733 71.1357 93.2305 71.0836C94.0246 71.038 94.8186 71.1227 95.6191 71.1097C96.6672 71.1097 97.7281 70.9859 98.7636 71.2008C99.4242 71.3441 100.091 71.6697 100.46 72.2754C101.019 73.109 100.993 74.2356 100.561 75.1148C100.206 75.8441 99.6211 76.4107 99.024 76.9382C99.8816 78.0453 100.726 79.172 101.635 80.2465C102.067 80.7479 102.518 81.2624 103.115 81.5555C103.503 81.7574 103.966 81.7248 104.347 81.9527C103.693 82.1351 103.007 82.0244 102.34 82.0439C101.654 82.07 100.968 81.816 100.485 81.295C99.4687 80.2335 98.7318 78.944 97.8615 77.7653C97.7599 77.6285 97.6392 77.5048 97.4613 77.5308C97.0293 77.5048 96.6037 77.5113 96.1781 77.5113C96.1781 78.6184 96.1463 79.7385 96.2289 80.8391C96.267 81.1257 96.2797 81.4969 96.5719 81.6401C96.9531 81.7964 97.4105 81.6792 97.7662 81.9332C97.1564 82.1155 96.5148 81.9983 95.8859 81.9983C95.0664 81.9397 94.2469 82.07 93.4338 82.0113C93.3766 81.9658 93.2623 81.8681 93.2051 81.8225C93.5862 81.7118 94.2279 81.8616 94.3486 81.3341C94.5264 80.5591 94.4756 79.7516 94.501 78.9636C94.501 76.8015 94.5201 74.6459 94.4883 72.4903C94.4502 72.1581 94.5074 71.7218 94.2088 71.5069C93.8467 71.292 93.3957 71.3506 92.9955 71.2725L92.9828 71.279ZM96.1781 71.826C96.159 73.4281 96.1527 75.0431 96.1781 76.6517C96.8133 76.8275 97.5185 76.9382 98.1537 76.7103C98.8779 76.3391 99.1511 75.4404 99.1892 74.6654C99.2464 73.7667 99.024 72.7443 98.2744 72.1842C97.6773 71.7088 96.8769 71.6958 96.1654 71.826H96.1781Z" fill="#007BA5"></path>
    <path d="M117.662 71.279C117.891 70.9403 118.329 71.1096 118.66 71.0771C119.708 71.1552 120.756 71.0445 121.804 71.0901C121.855 71.1357 121.969 71.2269 122.02 71.2724C121.677 71.3571 121.296 71.3115 120.991 71.5069C120.712 71.7999 120.781 72.2558 120.743 72.627C120.743 75.2385 120.718 77.8434 120.756 80.4549C120.801 80.8391 120.718 81.3601 121.08 81.6206C121.493 81.7964 121.957 81.7443 122.395 81.8225C122.274 81.9462 122.147 82.0764 121.957 82.0374C120.858 82.0374 119.759 81.9462 118.653 82.0374C118.323 82.0113 117.91 82.1611 117.681 81.8355C118.024 81.7573 118.412 81.8094 118.711 81.6075C118.984 81.1973 118.907 80.6633 118.958 80.1944C118.99 77.6741 118.971 75.1603 118.971 72.6335C118.939 72.2558 119.003 71.7869 118.698 71.5004C118.387 71.305 118.005 71.3506 117.662 71.279Z" fill="#007BA5"></path>
    <path d="M71.4858 26.2395C71.9368 26.22 72.3307 26.4805 72.7372 26.6563C74.7701 27.6071 76.7393 28.9552 77.9146 30.9545C78.9246 32.6412 79.1851 34.7121 78.8992 36.6463C78.4736 39.5899 77.0951 42.2534 75.742 44.8453C74.1856 47.7889 73.3979 51.2209 73.8807 54.5487C74.2364 57.0821 75.3799 59.4981 77.165 61.3021C79.1279 63.3144 81.7451 64.5387 84.4323 65.1509C84.7753 65.242 85.1755 65.2355 85.436 65.5221C84.0384 65.5611 82.6535 65.2811 81.2814 65.0662C77.8574 64.428 74.4143 63.2623 71.67 60.996C69.669 59.3549 68.1761 57.03 67.6933 54.4315C67.0581 51.1949 67.8394 47.8475 69.1989 44.9039C70.4503 42.2534 72.0258 39.7722 73.0866 37.024C73.7537 35.3113 74.2237 33.4617 74.0459 31.5992C73.9252 30.147 73.3598 28.7468 72.5213 27.5746C72.2036 27.1122 71.8034 26.7149 71.4858 26.2461V26.233V26.2395Z" fill="#E9510E"></path>
    <path d="M94.4184 38.9386C94.7488 38.8019 95.0473 39.0363 95.3396 39.16C98.8207 40.9053 101.8 43.7057 103.757 47.1377C104.913 49.2151 105.694 51.5856 105.586 54.0017C105.516 55.8447 104.862 57.6421 103.763 59.1009C102.442 60.8592 100.587 62.1226 98.6365 63.0408C95.9748 64.2847 93.1035 64.962 90.2258 65.4048C89.8001 65.4569 89.3809 65.5611 88.9489 65.4895C89.1331 65.3527 89.3364 65.2485 89.5524 65.1834C91.8457 64.4084 94.05 63.2036 95.7588 61.4388C97.2898 59.8889 98.3634 57.8896 98.897 55.76C99.6275 52.823 99.4179 49.7101 98.6619 46.799C98.0648 44.5653 97.1818 42.3902 95.8478 40.5081C95.4412 39.9155 94.933 39.427 94.4248 38.9256H94.4121L94.4184 38.9386Z" fill="#F9B123"></path>
  </g>
  <defs>
    <clipPath id="clip0_10_26820">
      <rect width="91" height="60.337" fill="white" transform="translate(41 22)"></rect>
    </clipPath>
  </defs>
</svg>
