<svg preserveAspectRatio="none" width="100%" height="100%" overflow="visible" style="display: block;" viewBox="0 0 25.7694 24.1142" fill="none" xmlns="http://www.w3.org/2000/svg">
<g id="Group">
<g id="Group_2">
<path id="Vector" d="M10.166 24.1142C8.73844 24.1142 7.57697 22.9527 7.57697 21.5252C7.57697 20.0976 8.73844 18.9365 10.166 18.9365C11.5936 18.9365 12.755 20.0976 12.755 21.5252C12.755 22.9527 11.5936 24.1142 10.166 24.1142ZM10.166 20.5615C9.63462 20.5615 9.20197 20.9938 9.20197 21.5252C9.20197 22.0569 9.63422 22.4892 10.166 22.4892C10.6978 22.4892 11.13 22.0569 11.13 21.5252C11.13 20.9938 10.6978 20.5615 10.166 20.5615Z" fill="var(--fill-0, #15301F)"/>
<path id="Vector_2" d="M19.1661 24.1142C17.7385 24.1142 16.5774 22.9527 16.5774 21.5252C16.5774 20.0976 17.7385 18.9365 19.1661 18.9365C20.5936 18.9365 21.7551 20.0976 21.7551 21.5252C21.7551 22.9527 20.5932 24.1142 19.1661 24.1142ZM19.1661 20.5615C18.6347 20.5615 18.2024 20.9938 18.2024 21.5252C18.2024 22.0569 18.6347 22.4892 19.1661 22.4892C19.6978 22.4892 20.1301 22.0569 20.1301 21.5252C20.1301 20.9938 19.6974 20.5615 19.1661 20.5615Z" fill="var(--fill-0, #15301F)"/>
</g>
<path id="Vector_3" d="M21.0616 16.9297H8.29765C7.05575 16.9297 5.99503 16.0842 5.71797 14.8736L3.06881 3.30484C3.03387 3.15209 2.92825 3.02128 2.78606 2.95547L0.588655 1.937C0.0800299 1.70137 -0.141376 1.09769 0.0942486 0.588655C0.329874 0.0800299 0.933967 -0.141376 1.44259 0.0942486L3.64 1.11272C4.34809 1.44056 4.875 2.09056 5.04887 2.85147L7.69803 14.4211C7.76222 14.7022 8.00881 14.8988 8.29765 14.8988H21.0616C21.3492 14.8988 21.5954 14.7034 21.6612 14.4231L23.7209 5.56156C23.7798 5.30969 23.6726 5.12647 23.6039 5.03994C23.5349 4.953 23.3805 4.80756 23.1221 4.80756H8.09087C7.52984 4.80756 7.07525 4.35297 7.07525 3.79194C7.07525 3.2309 7.52984 2.77631 8.09087 2.77631H23.1221C23.9342 2.77631 24.689 3.14072 25.1944 3.7765C25.6998 4.41228 25.8834 5.23047 25.6998 6.02144L23.6397 14.8834C23.359 16.0879 22.2991 16.9297 21.0616 16.9297Z" fill="var(--fill-0, #15301F)"/>
</g>
</svg>
