<svg preserveAspectRatio="none" width="100%" height="100%" overflow="visible" style="display: block;" viewBox="0 0 27.9982 28.0001" fill="none" xmlns="http://www.w3.org/2000/svg">
<g id="line copy">
<path id="Vector" d="M13.9982 0.000107747C11.8509 -0.00838004 9.73128 0.484714 7.8082 1.44011C7.68069 1.49156 7.56516 1.56876 7.46883 1.66687C7.3725 1.76499 7.29744 1.88192 7.24834 2.01035C7.19924 2.13878 7.17715 2.27596 7.18346 2.41331C7.18977 2.55067 7.22433 2.68525 7.28499 2.80864C7.34566 2.93203 7.43111 3.04159 7.53603 3.13047C7.64094 3.21935 7.76306 3.28563 7.89474 3.32518C8.02643 3.36474 8.16486 3.37671 8.30138 3.36035C8.4379 3.34399 8.56959 3.29965 8.6882 3.23011C10.5184 2.32702 12.5487 1.90563 14.5871 2.00579C16.6255 2.10594 18.6047 2.72432 20.3375 3.80247C22.0704 4.88062 23.4996 6.38291 24.4901 8.16731C25.4807 9.9517 25.9997 11.9592 25.9982 14.0001C25.9982 18.8801 23.3782 24.3201 18.9982 25.0001C18.5331 25.1113 18.0492 25.1187 17.5808 25.0219C17.1125 24.9251 16.6712 24.7265 16.2882 24.4401C15.418 23.4785 14.9554 22.2163 14.9982 20.9201C16.6628 20.6798 18.1852 19.8483 19.287 18.5776C20.3888 17.3069 20.9962 15.682 20.9982 14.0001V8.00011C20.9982 7.73489 20.8928 7.48054 20.7053 7.293C20.5178 7.10547 20.2634 7.00011 19.9982 7.00011H16.9982C16.733 7.00011 16.4786 7.10547 16.2911 7.293C16.1036 7.48054 15.9982 7.73489 15.9982 8.00011C15.9982 8.26533 16.1036 8.51968 16.2911 8.70722C16.4786 8.89475 16.733 9.00011 16.9982 9.00011H18.9982V14.0001C18.9982 15.3262 18.4714 16.598 17.5337 17.5356C16.5961 18.4733 15.3243 19.0001 13.9982 19.0001C12.6721 19.0001 11.4003 18.4733 10.4627 17.5356C9.52498 16.598 8.9982 15.3262 8.9982 14.0001V9.00011H10.9982C11.2634 9.00011 11.5178 8.89475 11.7053 8.70722C11.8928 8.51968 11.9982 8.26533 11.9982 8.00011C11.9982 7.73489 11.8928 7.48054 11.7053 7.293C11.5178 7.10547 11.2634 7.00011 10.9982 7.00011H7.9982C7.73298 7.00011 7.47863 7.10547 7.29109 7.293C7.10356 7.48054 6.9982 7.73489 6.9982 8.00011V14.0001C7.00017 15.682 7.60761 17.3069 8.70938 18.5776C9.81115 19.8483 11.3336 20.6798 12.9982 20.9201C13.1282 23.2201 13.7782 24.9201 14.9382 25.9201C15.8431 26.6763 17.0006 27.0621 18.1782 27.0001C18.546 27.0005 18.9134 26.9771 19.2782 26.9301C24.9382 26.1101 27.9982 19.6501 27.9982 14.0001C27.9982 10.2871 26.5232 6.72612 23.8977 4.10061C21.2722 1.4751 17.7112 0.000107747 13.9982 0.000107747Z" fill="var(--fill-0, #15301F)"/>
<path id="Vector_2" d="M4.9982 20.0001C4.56923 20.0066 4.14398 20.0808 3.7382 20.2201C2.3674 17.9601 1.78114 15.3107 2.07046 12.6834C2.35978 10.056 3.50848 7.59768 5.3382 5.69011C5.44049 5.59812 5.5227 5.48601 5.57969 5.3608C5.63667 5.23558 5.66721 5.09996 5.66939 4.9624C5.67157 4.82485 5.64534 4.68833 5.59235 4.56137C5.53936 4.43442 5.46074 4.31976 5.36142 4.22458C5.26209 4.12939 5.1442 4.05572 5.0151 4.00818C4.88601 3.96064 4.74849 3.94024 4.61116 3.94827C4.47382 3.9563 4.33962 3.99257 4.21694 4.05483C4.09427 4.1171 3.98576 4.204 3.8982 4.31011C1.75638 6.54228 0.414195 9.42099 0.0813092 12.4966C-0.251577 15.5721 0.443584 18.6714 2.0582 21.3101C1.4408 21.9896 1.07593 22.8608 1.02484 23.7774C0.973742 24.6941 1.23953 25.6005 1.7776 26.3443C2.31566 27.0882 3.09325 27.6244 3.97983 27.8628C4.86642 28.1012 5.80804 28.0274 6.64665 27.6538C7.48525 27.2801 8.1698 26.6293 8.58537 25.8107C9.00095 24.992 9.12227 24.0554 8.92897 23.1578C8.73566 22.2603 8.2395 21.4566 7.52376 20.8817C6.80802 20.3067 5.91628 19.9954 4.9982 20.0001ZM4.9982 26.0001C4.60264 26.0001 4.21596 25.8828 3.88706 25.663C3.55816 25.4433 3.30182 25.1309 3.15044 24.7655C2.99907 24.4 2.95946 23.9979 3.03663 23.6099C3.1138 23.222 3.30428 22.8656 3.58399 22.5859C3.86369 22.3062 4.22006 22.1157 4.60802 22.0385C4.99598 21.9614 5.39812 22.001 5.76357 22.1523C6.12902 22.3037 6.44138 22.5601 6.66114 22.889C6.8809 23.2179 6.9982 23.6045 6.9982 24.0001C6.9982 24.5305 6.78749 25.0392 6.41241 25.4143C6.03734 25.7894 5.52863 26.0001 4.9982 26.0001Z" fill="var(--fill-0, #15301F)"/>
</g>
</svg>
