<svg preserveAspectRatio="none" width="100%" height="100%" overflow="visible" style="display: block;" viewBox="0 0 9.63901 923" fill="none" xmlns="http://www.w3.org/2000/svg">
<g id="Group">
<path id="Vector" d="M4.81951 0.92512C5.07503 0.92512 5.28218 0.718025 5.28218 0.46256C5.28218 0.207095 5.07503 0 4.81951 0C4.56398 0 4.35683 0.207095 4.35683 0.46256C4.35683 0.718025 4.56398 0.92512 4.81951 0.92512Z" fill="var(--fill-0, #78B355)"/>
<path id="Vector_2" d="M4.8195 20.5646C5.31459 20.5646 5.71593 20.1634 5.71593 19.6684C5.71593 19.1735 5.31459 18.7722 4.8195 18.7722C4.32442 18.7722 3.92308 19.1735 3.92308 19.6684C3.92308 20.1634 4.32442 20.5646 4.8195 20.5646Z" fill="var(--fill-0, #78B355)"/>
<path id="Vector_3" d="M4.81951 40.1656C5.52753 40.1656 6.10149 39.5918 6.10149 38.884C6.10149 38.1761 5.52753 37.6023 4.81951 37.6023C4.11148 37.6023 3.53752 38.1761 3.53752 38.884C3.53752 39.5918 4.11148 40.1656 4.81951 40.1656Z" fill="var(--fill-0, #78B355)"/>
<path id="Vector_4" d="M4.8195 59.7281C5.7245 59.7281 6.45814 58.9946 6.45814 58.0898C6.45814 57.1851 5.7245 56.4516 4.8195 56.4516C3.91451 56.4516 3.18087 57.1851 3.18087 58.0898C3.18087 58.9946 3.91451 59.7281 4.8195 59.7281Z" fill="var(--fill-0, #78B355)"/>
<path id="Vector_5" d="M4.81951 79.2616C5.90017 79.2616 6.77622 78.3858 6.77622 77.3053C6.77622 76.2249 5.90017 75.3491 4.81951 75.3491C3.73884 75.3491 2.86279 76.2249 2.86279 77.3053C2.86279 78.3858 3.73884 79.2616 4.81951 79.2616Z" fill="var(--fill-0, #78B355)"/>
<path id="Vector_6" d="M4.8195 98.7855C6.07585 98.7855 7.09431 97.7673 7.09431 96.5112C7.09431 95.2552 6.07585 94.237 4.8195 94.237C3.56316 94.237 2.5447 95.2552 2.5447 96.5112C2.5447 97.7673 3.56316 98.7855 4.8195 98.7855Z" fill="var(--fill-0, #78B355)"/>
<path id="Vector_7" d="M4.8195 118.271C6.23023 118.271 7.37384 117.127 7.37384 115.717C7.37384 114.307 6.23023 113.163 4.8195 113.163C3.40878 113.163 2.26517 114.307 2.26517 115.717C2.26517 117.127 3.40878 118.271 4.8195 118.271Z" fill="var(--fill-0, #78B355)"/>
<path id="Vector_8" d="M4.8195 137.737C6.36864 137.737 7.62446 136.481 7.62446 134.933C7.62446 133.384 6.36864 132.128 4.8195 132.128C3.27037 132.128 2.01455 133.384 2.01455 134.933C2.01455 136.481 3.27037 137.737 4.8195 137.737Z" fill="var(--fill-0, #78B355)"/>
<path id="Vector_9" d="M4.8195 157.184C6.50172 157.184 7.86543 155.82 7.86543 154.139C7.86543 152.457 6.50172 151.093 4.8195 151.093C3.13729 151.093 1.77358 152.457 1.77358 154.139C1.77358 155.82 3.13729 157.184 4.8195 157.184Z" fill="var(--fill-0, #78B355)"/>
<path id="Vector_10" d="M4.81951 176.65C6.64014 176.65 8.11605 175.174 8.11605 173.354C8.11605 171.534 6.64014 170.058 4.81951 170.058C2.99888 170.058 1.52296 171.534 1.52296 173.354C1.52296 175.174 2.99888 176.65 4.81951 176.65Z" fill="var(--fill-0, #78B355)"/>
<path id="Vector_11" d="M4.81951 196.039C6.74128 196.039 8.29919 194.481 8.29919 192.56C8.29919 190.639 6.74128 189.081 4.81951 189.081C2.89773 189.081 1.33982 190.639 1.33982 192.56C1.33982 194.481 2.89773 196.039 4.81951 196.039Z" fill="var(--fill-0, #78B355)"/>
<path id="Vector_12" d="M4.8195 215.428C6.8371 215.428 8.47269 213.792 8.47269 211.775C8.47269 209.758 6.8371 208.123 4.8195 208.123C2.80191 208.123 1.16632 209.758 1.16632 211.775C1.16632 213.792 2.80191 215.428 4.8195 215.428Z" fill="var(--fill-0, #78B355)"/>
<path id="Vector_13" d="M4.8195 234.817C6.93825 234.817 8.65583 233.099 8.65583 230.981C8.65583 228.863 6.93825 227.146 4.8195 227.146C2.70076 227.146 0.983179 228.863 0.983179 230.981C0.983179 233.099 2.70076 234.817 4.8195 234.817Z" fill="var(--fill-0, #78B355)"/>
<path id="Vector_14" d="M4.8195 254.206C7.03939 254.206 8.83897 252.406 8.83897 250.187C8.83897 247.968 7.03939 246.169 4.8195 246.169C2.59961 246.169 0.800038 247.968 0.800038 250.187C0.800038 252.406 2.59961 254.206 4.8195 254.206Z" fill="var(--fill-0, #78B355)"/>
<path id="Vector_15" d="M4.81951 273.546C7.1086 273.546 8.96428 271.691 8.96428 269.403C8.96428 267.114 7.1086 265.259 4.81951 265.259C2.53041 265.259 0.674731 267.114 0.674731 269.403C0.674731 271.691 2.53041 273.546 4.81951 273.546Z" fill="var(--fill-0, #78B355)"/>
<path id="Vector_16" d="M4.8195 292.858C7.16716 292.858 9.07031 290.956 9.07031 288.609C9.07031 286.261 7.16716 284.359 4.8195 284.359C2.47185 284.359 0.568702 286.261 0.568702 288.609C0.568702 290.956 2.47185 292.858 4.8195 292.858Z" fill="var(--fill-0, #78B355)"/>
<path id="Vector_17" d="M4.8195 312.18C7.22572 312.18 9.17634 310.23 9.17634 307.824C9.17634 305.418 7.22572 303.468 4.8195 303.468C2.41329 303.468 0.462672 305.418 0.462672 307.824C0.462672 310.23 2.41329 312.18 4.8195 312.18Z" fill="var(--fill-0, #78B355)"/>
<path id="Vector_18" d="M4.8195 331.501C7.2896 331.501 9.29201 329.499 9.29201 327.03C9.29201 324.56 7.2896 322.559 4.8195 322.559C2.34941 322.559 0.347004 324.56 0.347004 327.03C0.347004 329.499 2.34941 331.501 4.8195 331.501Z" fill="var(--fill-0, #78B355)"/>
<path id="Vector_19" d="M4.8195 350.813C7.34816 350.813 9.39803 348.764 9.39803 346.236C9.39803 343.708 7.34816 341.658 4.8195 341.658C2.29085 341.658 0.240975 343.708 0.240975 346.236C0.240975 348.764 2.29085 350.813 4.8195 350.813Z" fill="var(--fill-0, #78B355)"/>
<path id="Vector_20" d="M4.8195 370.087C7.3801 370.087 9.45587 368.011 9.45587 365.451C9.45587 362.891 7.3801 360.816 4.8195 360.816C2.25891 360.816 0.183141 362.891 0.183141 365.451C0.183141 368.011 2.25891 370.087 4.8195 370.087Z" fill="var(--fill-0, #78B355)"/>
<path id="Vector_21" d="M4.8195 389.331C7.40139 389.331 9.49443 387.238 9.49443 384.657C9.49443 382.076 7.40139 379.983 4.8195 379.983C2.23762 379.983 0.144585 382.076 0.144585 384.657C0.144585 387.238 2.23762 389.331 4.8195 389.331Z" fill="var(--fill-0, #78B355)"/>
<path id="Vector_22" d="M4.8195 408.585C7.42269 408.585 9.53298 406.475 9.53298 403.873C9.53298 401.27 7.42269 399.16 4.8195 399.16C2.21632 399.16 0.106029 401.27 0.106029 403.873C0.106029 406.475 2.21632 408.585 4.8195 408.585Z" fill="var(--fill-0, #78B355)"/>
<path id="Vector_23" d="M4.81951 427.82C7.43866 427.82 9.5619 425.697 9.5619 423.079C9.5619 420.46 7.43866 418.337 4.81951 418.337C2.20035 418.337 0.0771121 420.46 0.0771121 423.079C0.0771121 425.697 2.20035 427.82 4.81951 427.82Z" fill="var(--fill-0, #78B355)"/>
<path id="Vector_24" d="M4.81951 447.064C7.45995 447.064 9.60045 444.924 9.60045 442.284C9.60045 439.645 7.45995 437.505 4.81951 437.505C2.17906 437.505 0.038556 439.645 0.038556 442.284C0.038556 444.924 2.17906 447.064 4.81951 447.064Z" fill="var(--fill-0, #78B355)"/>
<path id="Vector_25" d="M4.81951 466.318C7.48124 466.318 9.63901 464.161 9.63901 461.5C9.63901 458.839 7.48124 456.682 4.81951 456.682C2.15777 456.682 0 458.839 0 461.5C0 464.161 2.15777 466.318 4.81951 466.318Z" fill="var(--fill-0, #78B355)"/>
<path id="Vector_26" d="M4.8195 485.495C7.46527 485.495 9.61009 483.351 9.61009 480.706C9.61009 478.061 7.46527 475.916 4.8195 475.916C2.17374 475.916 0.028917 478.061 0.028917 480.706C0.028917 483.351 2.17374 485.495 4.8195 485.495Z" fill="var(--fill-0, #78B355)"/>
<path id="Vector_27" d="M4.8195 504.672C7.44398 504.672 9.57154 502.545 9.57154 499.921C9.57154 497.298 7.44398 495.171 4.8195 495.171C2.19503 495.171 0.0674731 497.298 0.0674731 499.921C0.0674731 502.545 2.19503 504.672 4.8195 504.672Z" fill="var(--fill-0, #78B355)"/>
<path id="Vector_28" d="M4.8195 523.84C7.42269 523.84 9.53298 521.73 9.53298 519.127C9.53298 516.525 7.42269 514.415 4.8195 514.415C2.21632 514.415 0.106029 516.525 0.106029 519.127C0.106029 521.73 2.21632 523.84 4.8195 523.84Z" fill="var(--fill-0, #78B355)"/>
<path id="Vector_29" d="M4.8195 543.007C7.40139 543.007 9.49443 540.914 9.49443 538.333C9.49443 535.752 7.40139 533.659 4.8195 533.659C2.23762 533.659 0.144585 535.752 0.144585 538.333C0.144585 540.914 2.23762 543.007 4.8195 543.007Z" fill="var(--fill-0, #78B355)"/>
<path id="Vector_30" d="M4.8195 562.194C7.38542 562.194 9.46551 560.114 9.46551 557.549C9.46551 554.983 7.38542 552.904 4.8195 552.904C2.25359 552.904 0.173502 554.983 0.173502 557.549C0.173502 560.114 2.25359 562.194 4.8195 562.194Z" fill="var(--fill-0, #78B355)"/>
<path id="Vector_31" d="M4.81951 581.342C7.35348 581.342 9.40767 579.288 9.40767 576.755C9.40767 574.221 7.35348 572.167 4.81951 572.167C2.28553 572.167 0.231336 574.221 0.231336 576.755C0.231336 579.288 2.28553 581.342 4.81951 581.342Z" fill="var(--fill-0, #78B355)"/>
<path id="Vector_32" d="M4.8195 600.451C7.29492 600.451 9.30164 598.445 9.30164 595.97C9.30164 593.495 7.29492 591.489 4.8195 591.489C2.34409 591.489 0.337365 593.495 0.337365 595.97C0.337365 598.445 2.34409 600.451 4.8195 600.451Z" fill="var(--fill-0, #78B355)"/>
<path id="Vector_33" d="M4.81951 619.551C7.23636 619.551 9.19562 617.592 9.19562 615.176C9.19562 612.76 7.23636 610.801 4.81951 610.801C2.40265 610.801 0.443394 612.76 0.443394 615.176C0.443394 617.592 2.40265 619.551 4.81951 619.551Z" fill="var(--fill-0, #78B355)"/>
<path id="Vector_34" d="M4.8195 638.641C7.17248 638.641 9.07995 636.734 9.07995 634.382C9.07995 632.029 7.17248 630.122 4.8195 630.122C2.46653 630.122 0.559063 632.029 0.559063 634.382C0.559063 636.734 2.46653 638.641 4.8195 638.641Z" fill="var(--fill-0, #78B355)"/>
<path id="Vector_35" d="M4.8195 657.751C7.11392 657.751 8.97392 655.891 8.97392 653.597C8.97392 651.303 7.11392 649.444 4.8195 649.444C2.52509 649.444 0.665092 651.303 0.665092 653.597C0.665092 655.891 2.52509 657.751 4.8195 657.751Z" fill="var(--fill-0, #78B355)"/>
<path id="Vector_36" d="M4.81951 676.831C7.04472 676.831 8.84861 675.028 8.84861 672.803C8.84861 670.579 7.04472 668.775 4.81951 668.775C2.59429 668.775 0.790399 670.579 0.790399 672.803C0.790399 675.028 2.59429 676.831 4.81951 676.831Z" fill="var(--fill-0, #78B355)"/>
<path id="Vector_37" d="M4.81951 695.864C2.68928 695.864 0.963901 694.139 0.963901 692.009C0.963901 689.879 2.68928 688.154 4.81951 688.154C6.94973 688.154 8.67511 689.879 8.67511 692.009C8.67511 694.139 6.94973 695.864 4.81951 695.864Z" fill="var(--fill-0, #78B355)"/>
<path id="Vector_38" d="M4.8195 714.896C2.79531 714.896 1.14704 713.258 1.14704 711.225C1.14704 709.191 2.78567 707.553 4.8195 707.553C6.85334 707.553 8.49197 709.191 8.49197 711.225C8.49197 713.258 6.85334 714.896 4.8195 714.896Z" fill="var(--fill-0, #78B355)"/>
<path id="Vector_39" d="M4.8195 733.929C2.8917 733.929 1.33018 732.367 1.33018 730.44C1.33018 728.513 2.8917 726.952 4.8195 726.952C6.74731 726.952 8.30883 728.513 8.30883 730.44C8.30883 732.367 6.74731 733.929 4.8195 733.929Z" fill="var(--fill-0, #78B355)"/>
<path id="Vector_40" d="M4.81951 752.951C6.64546 752.951 8.12569 751.471 8.12569 749.646C8.12569 747.82 6.64546 746.341 4.81951 746.341C2.99355 746.341 1.51332 747.82 1.51332 749.646C1.51332 751.471 2.99355 752.951 4.81951 752.951Z" fill="var(--fill-0, #78B355)"/>
<path id="Vector_41" d="M4.8195 771.916C6.51237 771.916 7.88471 770.544 7.88471 768.852C7.88471 767.16 6.51237 765.787 4.8195 765.787C3.12664 765.787 1.7543 767.16 1.7543 768.852C1.7543 770.544 3.12664 771.916 4.8195 771.916Z" fill="var(--fill-0, #78B355)"/>
<path id="Vector_42" d="M4.8195 790.881C3.26762 790.881 2.00491 789.619 2.00491 788.067C2.00491 786.516 3.26762 785.253 4.8195 785.253C6.37139 785.253 7.6341 786.516 7.6341 788.067C7.6341 789.619 6.37139 790.881 4.8195 790.881Z" fill="var(--fill-0, #78B355)"/>
<path id="Vector_43" d="M4.8195 809.837C6.23555 809.837 7.38348 808.689 7.38348 807.273C7.38348 805.858 6.23555 804.71 4.8195 804.71C3.40346 804.71 2.25553 805.858 2.25553 807.273C2.25553 808.689 3.40346 809.837 4.8195 809.837Z" fill="var(--fill-0, #78B355)"/>
<path id="Vector_44" d="M4.8195 828.773C6.08117 828.773 7.10395 827.75 7.10395 826.489C7.10395 825.227 6.08117 824.205 4.8195 824.205C3.55784 824.205 2.53506 825.227 2.53506 826.489C2.53506 827.75 3.55784 828.773 4.8195 828.773Z" fill="var(--fill-0, #78B355)"/>
<path id="Vector_45" d="M4.8195 847.661C5.90549 847.661 6.78586 846.78 6.78586 845.695C6.78586 844.609 5.90549 843.729 4.8195 843.729C3.73352 843.729 2.85315 844.609 2.85315 845.695C2.85315 846.78 3.73352 847.661 4.8195 847.661Z" fill="var(--fill-0, #78B355)"/>
<path id="Vector_46" d="M4.81951 866.548C5.72982 866.548 6.46778 865.811 6.46778 864.9C6.46778 863.99 5.72982 863.253 4.81951 863.253C3.90919 863.253 3.17123 863.99 3.17123 864.9C3.17123 865.811 3.90919 866.548 4.81951 866.548Z" fill="var(--fill-0, #78B355)"/>
<path id="Vector_47" d="M4.81951 885.407C5.53285 885.407 6.11113 884.829 6.11113 884.116C6.11113 883.403 5.53285 882.825 4.81951 882.825C4.10616 882.825 3.52788 883.403 3.52788 884.116C3.52788 884.829 4.10616 885.407 4.81951 885.407Z" fill="var(--fill-0, #78B355)"/>
<path id="Vector_48" d="M4.8195 904.228C4.31828 904.228 3.91344 903.823 3.91344 903.322C3.91344 902.821 4.31828 902.416 4.8195 902.416C5.32073 902.416 5.72557 902.821 5.72557 903.322C5.72557 903.823 5.32073 904.228 4.8195 904.228Z" fill="var(--fill-0, #78B355)"/>
<path id="Vector_49" d="M4.81951 923C4.55925 923 4.35683 922.788 4.35683 922.537C4.35683 922.287 4.56889 922.075 4.81951 922.075C5.07012 922.075 5.28218 922.287 5.28218 922.537C5.28218 922.788 5.07012 923 4.81951 923Z" fill="var(--fill-0, #78B355)"/>
</g>
</svg>
