<svg preserveAspectRatio="none" width="100%" height="100%" overflow="visible" style="display: block;" viewBox="0 0 26.25 26.25" fill="none" xmlns="http://www.w3.org/2000/svg">
<g id="Group">
<path id="Vector" d="M17.0625 17.5C17.0625 17.9833 16.6708 18.375 16.1875 18.375H10.9375C10.4542 18.375 10.0625 17.9833 10.0625 17.5C10.0625 17.0167 10.4542 16.625 10.9375 16.625H16.1875C16.6708 16.625 17.0625 17.0167 17.0625 17.5Z" fill="var(--fill-0, #15301F)"/>
<path id="Vector_2" d="M7.92286 9.33446C7.52076 9.0664 6.97751 9.17503 6.70946 9.57714C6.4414 9.97924 6.55003 10.5225 6.95214 10.7905L8.70551 11.9595C9.22504 12.3058 9.22504 13.0692 8.70551 13.4155L6.95214 14.5845C6.55003 14.8525 6.4414 15.3958 6.70946 15.7979C6.97751 16.2 7.52076 16.3086 7.92286 16.0405L9.67623 14.8716C11.2348 13.8326 11.2348 11.5424 9.67623 10.5034L7.92286 9.33446Z" fill="var(--fill-0, #15301F)"/>
<path id="Vector_3" fill-rule="evenodd" clip-rule="evenodd" d="M0 13.125C0 5.87628 5.87628 0 13.125 0C20.3737 0 26.25 5.87628 26.25 13.125C26.25 20.3737 20.3737 26.25 13.125 26.25C12.1523 26.25 11.1799 26.2497 10.2076 26.2494H10.2031C8.26057 26.2488 6.31816 26.2482 4.37579 26.25C4.14361 26.2502 3.92083 26.1581 3.75655 25.994C3.59231 25.8299 3.5 25.6072 3.5 25.375V22.0484C1.32874 19.7074 0 16.5705 0 13.125ZM13.125 1.75C6.84276 1.75 1.75 6.84276 1.75 13.125C1.75 16.2247 2.98865 19.0333 4.99997 21.0858C5.16023 21.2494 5.25 21.4692 5.25 21.6982V24.4993C6.90143 24.4984 8.55308 24.4989 10.2042 24.4994H10.2104C11.1822 24.4997 12.1537 24.5 13.125 24.5C19.4072 24.5 24.5 19.4072 24.5 13.125C24.5 6.84276 19.4072 1.75 13.125 1.75Z" fill="var(--fill-0, #15301F)"/>
</g>
</svg>
