<svg preserveAspectRatio="none" width="100%" height="100%" overflow="visible" style="display: block;" viewBox="0 0 95 95" fill="none" xmlns="http://www.w3.org/2000/svg">
<g id="quote 1">
<path id="Vector" d="M22.8 19.4156C11.875 19.4156 2.96875 28.4109 2.96875 39.4547C2.96875 46.9656 7.03594 53.7047 13.4781 57.1484C13.1516 60.6516 11.6969 68.1031 5.72969 69.7359C4.30469 70.1219 3.38438 71.4875 3.5625 72.9422C3.74063 74.3969 4.92813 75.525 6.4125 75.5547H6.85781C9.76719 75.5547 25.7391 74.9016 36.0703 61.0375C42.7797 52.0422 44.7688 42.275 41.7109 33.6656C39.1578 25.1453 31.5578 19.4156 22.8 19.4156Z" fill="var(--fill-0, #CFCFCF)" fill-opacity="0.5"/>
<path id="Vector_2" d="M90.6656 33.6953C88.1125 25.175 80.5125 19.4453 71.7547 19.4453C60.8297 19.4453 51.9234 28.4406 51.9234 39.4844C51.9234 46.9953 55.9906 53.7344 62.4328 57.1781C62.1063 60.6812 60.6516 68.1328 54.6844 69.7656C53.2594 70.1516 52.3391 71.5172 52.5172 72.9719C52.6953 74.4266 53.8828 75.5547 55.3672 75.5844H55.8125C58.7219 75.5844 74.6938 74.9312 85.025 61.0672C91.7344 52.0719 93.7234 42.3047 90.6656 33.6953Z" fill="var(--fill-0, #CFCFCF)" fill-opacity="0.5"/>
</g>
</svg>
