<svg preserveAspectRatio="none" width="100%" height="100%" overflow="visible" style="display: block;" viewBox="0 0 24 24" fill="none" xmlns="http://www.w3.org/2000/svg">
<g id="shield 1">
<path id="Vector" d="M12 22.75C11.66 22.75 11.33 22.65 11.04 22.46L5.75 18.94C5.18 18.55 4.75 18.16 4.42 17.74C3.46 16.61 2.95 15.2 2.95 13.71V6.24C2.95 5.55 3.36 4.92 3.99 4.64L11.31 1.4C11.76 1.2 12.28 1.2 12.73 1.4L20.03 4.64C20.66 4.92 21.07 5.55 21.07 6.23V13.7C21.07 15.82 20.02 17.78 18.27 18.94L12.98 22.46C12.69 22.65 12.35 22.75 12.02 22.75H12ZM12.01 2.75C12.01 2.75 11.94 2.75 11.91 2.77L4.59 6.01C4.5 6.05 4.44 6.14 4.44 6.23V13.7C4.44 14.84 4.83 15.91 5.58 16.79C5.83 17.11 6.15 17.4 6.58 17.69L11.87 21.21C11.95 21.26 12.05 21.26 12.14 21.21L17.43 17.69C18.76 16.81 19.56 15.32 19.56 13.7V6.23C19.56 6.13 19.5 6.05 19.41 6.01L12.11 2.77C12.11 2.77 12.04 2.75 12.01 2.75Z" fill="var(--fill-0, #15301F)"/>
<path id="Vector_2" d="M11 15.08C10.82 15.08 10.63 15.01 10.49 14.88L7.99 12.55C7.69 12.27 7.67 11.79 7.95 11.49C8.23 11.19 8.71 11.17 9.01 11.45L10.97 13.28L14.96 9.14C15.25 8.84 15.72 8.83 16.02 9.12C16.32 9.41 16.33 9.88 16.04 10.18L11.54 14.85C11.39 15 11.2 15.08 11 15.08Z" fill="var(--fill-0, #15301F)"/>
</g>
</svg>
